%TF.GenerationSoftware,KiCad,Pcbnew,7.0.8*%
%TF.CreationDate,2023-12-13T08:54:22+01:00*%
%TF.ProjectId,MicroPython_DemoBoard,4d696372-6f50-4797-9468-6f6e5f44656d,rev?*%
%TF.SameCoordinates,Original*%
%TF.FileFunction,Soldermask,Bot*%
%TF.FilePolarity,Negative*%
%FSLAX46Y46*%
G04 Gerber Fmt 4.6, Leading zero omitted, Abs format (unit mm)*
G04 Created by KiCad (PCBNEW 7.0.8) date 2023-12-13 08:54:22*
%MOMM*%
%LPD*%
G01*
G04 APERTURE LIST*
G04 Aperture macros list*
%AMRoundRect*
0 Rectangle with rounded corners*
0 $1 Rounding radius*
0 $2 $3 $4 $5 $6 $7 $8 $9 X,Y pos of 4 corners*
0 Add a 4 corners polygon primitive as box body*
4,1,4,$2,$3,$4,$5,$6,$7,$8,$9,$2,$3,0*
0 Add four circle primitives for the rounded corners*
1,1,$1+$1,$2,$3*
1,1,$1+$1,$4,$5*
1,1,$1+$1,$6,$7*
1,1,$1+$1,$8,$9*
0 Add four rect primitives between the rounded corners*
20,1,$1+$1,$2,$3,$4,$5,0*
20,1,$1+$1,$4,$5,$6,$7,0*
20,1,$1+$1,$6,$7,$8,$9,0*
20,1,$1+$1,$8,$9,$2,$3,0*%
G04 Aperture macros list end*
%ADD10C,2.000000*%
%ADD11R,1.700000X1.700000*%
%ADD12O,1.700000X1.700000*%
%ADD13C,1.440000*%
%ADD14C,1.600000*%
%ADD15O,1.600000X1.600000*%
%ADD16C,1.500000*%
%ADD17R,2.000000X2.000000*%
%ADD18R,1.800000X1.800000*%
%ADD19C,1.800000*%
%ADD20RoundRect,0.200000X-0.600000X-0.600000X0.600000X-0.600000X0.600000X0.600000X-0.600000X0.600000X0*%
%ADD21R,3.000000X1.700000*%
%ADD22RoundRect,0.425000X-1.075000X-0.425000X1.075000X-0.425000X1.075000X0.425000X-1.075000X0.425000X0*%
G04 APERTURE END LIST*
D10*
%TO.C,SW3*%
X146610000Y-133640000D03*
X153110000Y-133640000D03*
X146610000Y-138140000D03*
X153110000Y-138140000D03*
%TD*%
D11*
%TO.C,J3*%
X146050000Y-93980000D03*
D12*
X148590000Y-93980000D03*
X151130000Y-93980000D03*
X153670000Y-93980000D03*
%TD*%
D10*
%TO.C,SW6*%
X89610000Y-147030000D03*
X83110000Y-147030000D03*
X89610000Y-142530000D03*
X83110000Y-142530000D03*
%TD*%
%TO.C,SW1*%
X133910000Y-133640000D03*
X140410000Y-133640000D03*
X133910000Y-138140000D03*
X140410000Y-138140000D03*
%TD*%
D13*
%TO.C,RV1*%
X120015000Y-128270000D03*
X122555000Y-130810000D03*
X125095000Y-128270000D03*
%TD*%
D14*
%TO.C,R2*%
X118110000Y-109855000D03*
D15*
X128270000Y-109855000D03*
%TD*%
D16*
%TO.C,R1*%
X124255000Y-116840000D03*
X120855000Y-116840000D03*
%TD*%
D10*
%TO.C,SW5*%
X159310000Y-133640000D03*
X165810000Y-133640000D03*
X159310000Y-138140000D03*
X165810000Y-138140000D03*
%TD*%
D17*
%TO.C,BZ1*%
X97030000Y-142240000D03*
D10*
X103630000Y-142240000D03*
%TD*%
D18*
%TO.C,D1*%
X81275000Y-129794000D03*
D19*
X83815000Y-129794000D03*
%TD*%
D10*
%TO.C,SW4*%
X146610000Y-143800000D03*
X153110000Y-143800000D03*
X146610000Y-148300000D03*
X153110000Y-148300000D03*
%TD*%
D11*
%TO.C,J2*%
X116865000Y-93955000D03*
D12*
X119405000Y-93955000D03*
X121945000Y-93955000D03*
X124485000Y-93955000D03*
X127025000Y-93955000D03*
X129565000Y-93955000D03*
%TD*%
D11*
%TO.C,J4*%
X85090000Y-82550000D03*
D12*
X85090000Y-85090000D03*
X85090000Y-87630000D03*
X85090000Y-90170000D03*
X85090000Y-92710000D03*
X85090000Y-95250000D03*
X85090000Y-97790000D03*
X85090000Y-100330000D03*
X85090000Y-102870000D03*
X85090000Y-105410000D03*
X85090000Y-107950000D03*
X85090000Y-110490000D03*
%TD*%
D14*
%TO.C,A1*%
X91440000Y-82550000D03*
X91440000Y-85090000D03*
D20*
X91440000Y-87630000D03*
D14*
X91440000Y-90170000D03*
X91440000Y-92710000D03*
X91440000Y-95250000D03*
X91440000Y-97790000D03*
D20*
X91440000Y-100330000D03*
D14*
X91440000Y-102870000D03*
X91440000Y-105410000D03*
X91440000Y-107950000D03*
X91440000Y-110490000D03*
D20*
X91440000Y-113030000D03*
D14*
X91440000Y-115570000D03*
X91440000Y-118110000D03*
X91481881Y-120650000D03*
X91440000Y-123190000D03*
D20*
X91440000Y-125730000D03*
D14*
X91440000Y-128270000D03*
X91440000Y-130810000D03*
X109220000Y-130810000D03*
X109220000Y-128270000D03*
D20*
X109220000Y-125730000D03*
D14*
X109220000Y-123190000D03*
X109220000Y-120650000D03*
X109220000Y-118110000D03*
X109220000Y-115570000D03*
D20*
X109220000Y-113030000D03*
D14*
X109220000Y-110490000D03*
X109220000Y-107950000D03*
X109220000Y-105410000D03*
X109220000Y-102870000D03*
D20*
X109220000Y-100330000D03*
D14*
X109220000Y-97790000D03*
X109220000Y-95250000D03*
X109220000Y-92710000D03*
X109220000Y-90170000D03*
D20*
X109220000Y-87630000D03*
D14*
X109220000Y-85090000D03*
X109220000Y-82550000D03*
%TD*%
D21*
%TO.C,J1*%
X116713000Y-81100000D03*
D22*
X116713000Y-84074000D03*
X116713000Y-87000000D03*
%TD*%
D14*
%TO.C,R3*%
X81026000Y-137668000D03*
D15*
X91186000Y-137668000D03*
%TD*%
D10*
%TO.C,SW2*%
X146610000Y-123480000D03*
X153110000Y-123480000D03*
X146610000Y-127980000D03*
X153110000Y-127980000D03*
%TD*%
M02*
