M48
; DRILL file {KiCad 7.0.8} date Wed Dec 13 08:54:27 2023
; FORMAT={-:-/ absolute / inch / decimal}
; #@! TF.CreationDate,2023-12-13T08:54:27+01:00
; #@! TF.GenerationSoftware,Kicad,Pcbnew,7.0.8
; #@! TF.FileFunction,Plated,1,2,PTH
FMAT,2
INCH
; #@! TA.AperFunction,Plated,PTH,ViaDrill
T1C0.0157
; #@! TA.AperFunction,Plated,PTH,ComponentDrill
T2C0.0315
; #@! TA.AperFunction,Plated,PTH,ComponentDrill
T3C0.0354
; #@! TA.AperFunction,Plated,PTH,ComponentDrill
T4C0.0394
; #@! TA.AperFunction,Plated,PTH,ComponentDrill
T5C0.0433
%
G90
G05
T1
X4.7Y-3.9
X4.8Y-4.075
X4.825Y-4.275
X4.925Y-4.275
T2
X3.19Y-5.42
X3.59Y-5.42
X4.65Y-4.325
X4.725Y-5.05
X4.7581Y-4.6
X4.825Y-5.15
X4.8919Y-4.6
X4.925Y-5.05
X5.05Y-4.325
T3
X3.1998Y-5.11
X3.2998Y-5.11
T4
X3.35Y-3.25
X3.35Y-3.35
X3.35Y-3.45
X3.35Y-3.55
X3.35Y-3.65
X3.35Y-3.75
X3.35Y-3.85
X3.35Y-3.95
X3.35Y-4.05
X3.35Y-4.15
X3.35Y-4.25
X3.35Y-4.35
X3.6Y-3.25
X3.6Y-3.35
X3.6Y-3.45
X3.6Y-3.55
X3.6Y-3.65
X3.6Y-3.75
X3.6Y-3.85
X3.6Y-3.95
X3.6Y-4.05
X3.6Y-4.15
X3.6Y-4.25
X3.6Y-4.35
X3.6Y-4.45
X3.6Y-4.55
X3.6Y-4.65
X3.6Y-4.85
X3.6Y-4.95
X3.6Y-5.05
X3.6Y-5.15
X3.6016Y-4.75
X3.8201Y-5.6
X4.0799Y-5.6
X4.3Y-3.25
X4.3Y-3.35
X4.3Y-3.45
X4.3Y-3.55
X4.3Y-3.65
X4.3Y-3.75
X4.3Y-3.85
X4.3Y-3.95
X4.3Y-4.05
X4.3Y-4.15
X4.3Y-4.25
X4.3Y-4.35
X4.3Y-4.45
X4.3Y-4.55
X4.3Y-4.65
X4.3Y-4.75
X4.3Y-4.85
X4.3Y-4.95
X4.3Y-5.05
X4.3Y-5.15
X4.595Y-3.1929
X4.595Y-3.31
X4.595Y-3.4252
X4.601Y-3.699
X4.701Y-3.699
X4.801Y-3.699
X4.901Y-3.699
X5.001Y-3.699
X5.101Y-3.699
X5.75Y-3.7
X5.85Y-3.7
X5.95Y-3.7
X6.05Y-3.7
T5
X3.272Y-5.6114
X3.272Y-5.7886
X3.528Y-5.6114
X3.528Y-5.7886
X5.272Y-5.2614
X5.272Y-5.4386
X5.528Y-5.2614
X5.528Y-5.4386
X5.772Y-4.8614
X5.772Y-5.0386
X5.772Y-5.2614
X5.772Y-5.4386
X5.772Y-5.6614
X5.772Y-5.8386
X6.028Y-4.8614
X6.028Y-5.0386
X6.028Y-5.2614
X6.028Y-5.4386
X6.028Y-5.6614
X6.028Y-5.8386
X6.272Y-5.2614
X6.272Y-5.4386
X6.528Y-5.2614
X6.528Y-5.4386
T0
M30
