%TF.GenerationSoftware,KiCad,Pcbnew,7.0.8*%
%TF.CreationDate,2023-12-13T08:54:31+01:00*%
%TF.ProjectId,MicroPython_DemoBoard,4d696372-6f50-4797-9468-6f6e5f44656d,rev?*%
%TF.SameCoordinates,Original*%
%TF.FileFunction,Drillmap*%
%TF.FilePolarity,Positive*%
%FSLAX45Y45*%
G04 Gerber Fmt 4.5, Leading zero omitted, Abs format (unit mm)*
G04 Created by KiCad (PCBNEW 7.0.8) date 2023-12-13 08:54:31*
%MOMM*%
%LPD*%
G01*
G04 APERTURE LIST*
%ADD10C,0.100000*%
%ADD11C,0.200000*%
G04 APERTURE END LIST*
D10*
X17018000Y-7793000D02*
X17018000Y-15003500D01*
X16718000Y-15303500D02*
X7793000Y-15303500D01*
X17018000Y-7793000D02*
G75*
G03*
X16718000Y-7493000I-300000J0D01*
G01*
X7493000Y-15003500D02*
G75*
G03*
X7793000Y-15303500I300000J0D01*
G01*
X16718000Y-15303500D02*
G75*
G03*
X17018000Y-15003500I0J300000D01*
G01*
X7793000Y-7493000D02*
G75*
G03*
X7493000Y-7793000I0J-300000D01*
G01*
X7793000Y-7493000D02*
X16718000Y-7493000D01*
X7493000Y-15003500D02*
X7493000Y-7793000D01*
D11*
X7748777Y-15619984D02*
X7748777Y-15419984D01*
X7748777Y-15419984D02*
X7796396Y-15419984D01*
X7796396Y-15419984D02*
X7824967Y-15429508D01*
X7824967Y-15429508D02*
X7844015Y-15448555D01*
X7844015Y-15448555D02*
X7853539Y-15467603D01*
X7853539Y-15467603D02*
X7863062Y-15505698D01*
X7863062Y-15505698D02*
X7863062Y-15534269D01*
X7863062Y-15534269D02*
X7853539Y-15572365D01*
X7853539Y-15572365D02*
X7844015Y-15591412D01*
X7844015Y-15591412D02*
X7824967Y-15610460D01*
X7824967Y-15610460D02*
X7796396Y-15619984D01*
X7796396Y-15619984D02*
X7748777Y-15619984D01*
X7948777Y-15619984D02*
X7948777Y-15486650D01*
X7948777Y-15524746D02*
X7958301Y-15505698D01*
X7958301Y-15505698D02*
X7967824Y-15496174D01*
X7967824Y-15496174D02*
X7986872Y-15486650D01*
X7986872Y-15486650D02*
X8005920Y-15486650D01*
X8072586Y-15619984D02*
X8072586Y-15486650D01*
X8072586Y-15419984D02*
X8063062Y-15429508D01*
X8063062Y-15429508D02*
X8072586Y-15439031D01*
X8072586Y-15439031D02*
X8082110Y-15429508D01*
X8082110Y-15429508D02*
X8072586Y-15419984D01*
X8072586Y-15419984D02*
X8072586Y-15439031D01*
X8196396Y-15619984D02*
X8177348Y-15610460D01*
X8177348Y-15610460D02*
X8167824Y-15591412D01*
X8167824Y-15591412D02*
X8167824Y-15419984D01*
X8301158Y-15619984D02*
X8282110Y-15610460D01*
X8282110Y-15610460D02*
X8272586Y-15591412D01*
X8272586Y-15591412D02*
X8272586Y-15419984D01*
X8529729Y-15619984D02*
X8529729Y-15419984D01*
X8529729Y-15419984D02*
X8596396Y-15562841D01*
X8596396Y-15562841D02*
X8663063Y-15419984D01*
X8663063Y-15419984D02*
X8663063Y-15619984D01*
X8844015Y-15619984D02*
X8844015Y-15515222D01*
X8844015Y-15515222D02*
X8834491Y-15496174D01*
X8834491Y-15496174D02*
X8815444Y-15486650D01*
X8815444Y-15486650D02*
X8777348Y-15486650D01*
X8777348Y-15486650D02*
X8758301Y-15496174D01*
X8844015Y-15610460D02*
X8824967Y-15619984D01*
X8824967Y-15619984D02*
X8777348Y-15619984D01*
X8777348Y-15619984D02*
X8758301Y-15610460D01*
X8758301Y-15610460D02*
X8748777Y-15591412D01*
X8748777Y-15591412D02*
X8748777Y-15572365D01*
X8748777Y-15572365D02*
X8758301Y-15553317D01*
X8758301Y-15553317D02*
X8777348Y-15543793D01*
X8777348Y-15543793D02*
X8824967Y-15543793D01*
X8824967Y-15543793D02*
X8844015Y-15534269D01*
X8939253Y-15486650D02*
X8939253Y-15686650D01*
X8939253Y-15496174D02*
X8958301Y-15486650D01*
X8958301Y-15486650D02*
X8996396Y-15486650D01*
X8996396Y-15486650D02*
X9015444Y-15496174D01*
X9015444Y-15496174D02*
X9024967Y-15505698D01*
X9024967Y-15505698D02*
X9034491Y-15524746D01*
X9034491Y-15524746D02*
X9034491Y-15581888D01*
X9034491Y-15581888D02*
X9024967Y-15600936D01*
X9024967Y-15600936D02*
X9015444Y-15610460D01*
X9015444Y-15610460D02*
X8996396Y-15619984D01*
X8996396Y-15619984D02*
X8958301Y-15619984D01*
X8958301Y-15619984D02*
X8939253Y-15610460D01*
X9120205Y-15600936D02*
X9129729Y-15610460D01*
X9129729Y-15610460D02*
X9120205Y-15619984D01*
X9120205Y-15619984D02*
X9110682Y-15610460D01*
X9110682Y-15610460D02*
X9120205Y-15600936D01*
X9120205Y-15600936D02*
X9120205Y-15619984D01*
X9120205Y-15496174D02*
X9129729Y-15505698D01*
X9129729Y-15505698D02*
X9120205Y-15515222D01*
X9120205Y-15515222D02*
X9110682Y-15505698D01*
X9110682Y-15505698D02*
X9120205Y-15496174D01*
X9120205Y-15496174D02*
X9120205Y-15515222D01*
M02*
