%TF.GenerationSoftware,KiCad,Pcbnew,7.0.8*%
%TF.CreationDate,2023-12-13T08:54:22+01:00*%
%TF.ProjectId,MicroPython_DemoBoard,4d696372-6f50-4797-9468-6f6e5f44656d,rev?*%
%TF.SameCoordinates,Original*%
%TF.FileFunction,Copper,L2,Bot*%
%TF.FilePolarity,Positive*%
%FSLAX46Y46*%
G04 Gerber Fmt 4.6, Leading zero omitted, Abs format (unit mm)*
G04 Created by KiCad (PCBNEW 7.0.8) date 2023-12-13 08:54:22*
%MOMM*%
%LPD*%
G01*
G04 APERTURE LIST*
G04 Aperture macros list*
%AMRoundRect*
0 Rectangle with rounded corners*
0 $1 Rounding radius*
0 $2 $3 $4 $5 $6 $7 $8 $9 X,Y pos of 4 corners*
0 Add a 4 corners polygon primitive as box body*
4,1,4,$2,$3,$4,$5,$6,$7,$8,$9,$2,$3,0*
0 Add four circle primitives for the rounded corners*
1,1,$1+$1,$2,$3*
1,1,$1+$1,$4,$5*
1,1,$1+$1,$6,$7*
1,1,$1+$1,$8,$9*
0 Add four rect primitives between the rounded corners*
20,1,$1+$1,$2,$3,$4,$5,0*
20,1,$1+$1,$4,$5,$6,$7,0*
20,1,$1+$1,$6,$7,$8,$9,0*
20,1,$1+$1,$8,$9,$2,$3,0*%
G04 Aperture macros list end*
%TA.AperFunction,ComponentPad*%
%ADD10C,2.000000*%
%TD*%
%TA.AperFunction,ComponentPad*%
%ADD11R,1.700000X1.700000*%
%TD*%
%TA.AperFunction,ComponentPad*%
%ADD12O,1.700000X1.700000*%
%TD*%
%TA.AperFunction,ComponentPad*%
%ADD13C,1.440000*%
%TD*%
%TA.AperFunction,ComponentPad*%
%ADD14C,1.600000*%
%TD*%
%TA.AperFunction,ComponentPad*%
%ADD15O,1.600000X1.600000*%
%TD*%
%TA.AperFunction,ComponentPad*%
%ADD16C,1.500000*%
%TD*%
%TA.AperFunction,ComponentPad*%
%ADD17R,2.000000X2.000000*%
%TD*%
%TA.AperFunction,ComponentPad*%
%ADD18R,1.800000X1.800000*%
%TD*%
%TA.AperFunction,ComponentPad*%
%ADD19C,1.800000*%
%TD*%
%TA.AperFunction,ComponentPad*%
%ADD20RoundRect,0.200000X-0.600000X-0.600000X0.600000X-0.600000X0.600000X0.600000X-0.600000X0.600000X0*%
%TD*%
%TA.AperFunction,ComponentPad*%
%ADD21R,3.000000X1.700000*%
%TD*%
%TA.AperFunction,ComponentPad*%
%ADD22RoundRect,0.425000X-1.075000X-0.425000X1.075000X-0.425000X1.075000X0.425000X-1.075000X0.425000X0*%
%TD*%
%TA.AperFunction,ViaPad*%
%ADD23C,0.800000*%
%TD*%
%TA.AperFunction,Conductor*%
%ADD24C,0.250000*%
%TD*%
%TA.AperFunction,Conductor*%
%ADD25C,0.400000*%
%TD*%
G04 APERTURE END LIST*
D10*
%TO.P,SW3,1,A*%
%TO.N,+3.3V*%
X146610000Y-133640000D03*
X153110000Y-133640000D03*
%TO.P,SW3,2,B*%
%TO.N,/Center*%
X146610000Y-138140000D03*
X153110000Y-138140000D03*
%TD*%
D11*
%TO.P,J3,1,Pin_1*%
%TO.N,GND*%
X146050000Y-93980000D03*
D12*
%TO.P,J3,2,Pin_2*%
%TO.N,+3.3V*%
X148590000Y-93980000D03*
%TO.P,J3,3,Pin_3*%
%TO.N,/I2C SCL*%
X151130000Y-93980000D03*
%TO.P,J3,4,Pin_4*%
%TO.N,/I2C SDA*%
X153670000Y-93980000D03*
%TD*%
D10*
%TO.P,SW6,1,A*%
%TO.N,GND*%
X89610000Y-147030000D03*
X83110000Y-147030000D03*
%TO.P,SW6,2,B*%
%TO.N,Net-(A1-RUN)*%
X89610000Y-142530000D03*
X83110000Y-142530000D03*
%TD*%
%TO.P,SW1,1,A*%
%TO.N,+3.3V*%
X133910000Y-133640000D03*
X140410000Y-133640000D03*
%TO.P,SW1,2,B*%
%TO.N,/Left*%
X133910000Y-138140000D03*
X140410000Y-138140000D03*
%TD*%
D13*
%TO.P,RV1,1,1*%
%TO.N,GND*%
X120015000Y-128270000D03*
%TO.P,RV1,2,2*%
%TO.N,Net-(A1-GP26)*%
X122555000Y-130810000D03*
%TO.P,RV1,3,3*%
%TO.N,+3.3V*%
X125095000Y-128270000D03*
%TD*%
D14*
%TO.P,R2,1*%
%TO.N,Net-(A1-GP27)*%
X118110000Y-109855000D03*
D15*
%TO.P,R2,2*%
%TO.N,GND*%
X128270000Y-109855000D03*
%TD*%
D16*
%TO.P,R1,1*%
%TO.N,+3.3V*%
X124255000Y-116840000D03*
%TO.P,R1,2*%
%TO.N,Net-(A1-GP27)*%
X120855000Y-116840000D03*
%TD*%
D10*
%TO.P,SW5,1,A*%
%TO.N,+3.3V*%
X159310000Y-133640000D03*
X165810000Y-133640000D03*
%TO.P,SW5,2,B*%
%TO.N,/Right*%
X159310000Y-138140000D03*
X165810000Y-138140000D03*
%TD*%
D17*
%TO.P,BZ1,1,-*%
%TO.N,Net-(A1-GP10)*%
X97030000Y-142240000D03*
D10*
%TO.P,BZ1,2,+*%
%TO.N,GND*%
X103630000Y-142240000D03*
%TD*%
D18*
%TO.P,D1,1,K*%
%TO.N,Net-(D1-K)*%
X81275000Y-129794000D03*
D19*
%TO.P,D1,2,A*%
%TO.N,Net-(A1-GP22)*%
X83815000Y-129794000D03*
%TD*%
D10*
%TO.P,SW4,1,A*%
%TO.N,+3.3V*%
X146610000Y-143800000D03*
X153110000Y-143800000D03*
%TO.P,SW4,2,B*%
%TO.N,/Down*%
X146610000Y-148300000D03*
X153110000Y-148300000D03*
%TD*%
D11*
%TO.P,J2,1,Pin_1*%
%TO.N,/SPI RX*%
X116865000Y-93955000D03*
D12*
%TO.P,J2,2,Pin_2*%
%TO.N,/SPI CS*%
X119405000Y-93955000D03*
%TO.P,J2,3,Pin_3*%
%TO.N,/SPI TX*%
X121945000Y-93955000D03*
%TO.P,J2,4,Pin_4*%
%TO.N,/SPI CLK*%
X124485000Y-93955000D03*
%TO.P,J2,5,Pin_5*%
%TO.N,GND*%
X127025000Y-93955000D03*
%TO.P,J2,6,Pin_6*%
%TO.N,+3.3V*%
X129565000Y-93955000D03*
%TD*%
D11*
%TO.P,J4,1,Pin_1*%
%TO.N,+3.3V*%
X85090000Y-82550000D03*
D12*
%TO.P,J4,2,Pin_2*%
%TO.N,GND*%
X85090000Y-85090000D03*
%TO.P,J4,3,Pin_3*%
%TO.N,Net-(A1-GP0)*%
X85090000Y-87630000D03*
%TO.P,J4,4,Pin_4*%
%TO.N,Net-(A1-GP1)*%
X85090000Y-90170000D03*
%TO.P,J4,5,Pin_5*%
%TO.N,Net-(A1-GP2)*%
X85090000Y-92710000D03*
%TO.P,J4,6,Pin_6*%
%TO.N,Net-(A1-GP3)*%
X85090000Y-95250000D03*
%TO.P,J4,7,Pin_7*%
%TO.N,Net-(A1-GP4)*%
X85090000Y-97790000D03*
%TO.P,J4,8,Pin_8*%
%TO.N,Net-(A1-GP5)*%
X85090000Y-100330000D03*
%TO.P,J4,9,Pin_9*%
%TO.N,Net-(A1-GP6)*%
X85090000Y-102870000D03*
%TO.P,J4,10,Pin_10*%
%TO.N,Net-(A1-GP7)*%
X85090000Y-105410000D03*
%TO.P,J4,11,Pin_11*%
%TO.N,Net-(A1-GP8)*%
X85090000Y-107950000D03*
%TO.P,J4,12,Pin_12*%
%TO.N,Net-(A1-GP9)*%
X85090000Y-110490000D03*
%TD*%
D14*
%TO.P,A1,1,GP0*%
%TO.N,Net-(A1-GP0)*%
X91440000Y-82550000D03*
%TO.P,A1,2,GP1*%
%TO.N,Net-(A1-GP1)*%
X91440000Y-85090000D03*
D20*
%TO.P,A1,3,GND*%
%TO.N,GND*%
X91440000Y-87630000D03*
D14*
%TO.P,A1,4,GP2*%
%TO.N,Net-(A1-GP2)*%
X91440000Y-90170000D03*
%TO.P,A1,5,GP3*%
%TO.N,Net-(A1-GP3)*%
X91440000Y-92710000D03*
%TO.P,A1,6,GP4*%
%TO.N,Net-(A1-GP4)*%
X91440000Y-95250000D03*
%TO.P,A1,7,GP5*%
%TO.N,Net-(A1-GP5)*%
X91440000Y-97790000D03*
D20*
%TO.P,A1,8,GND*%
%TO.N,GND*%
X91440000Y-100330000D03*
D14*
%TO.P,A1,9,GP6*%
%TO.N,Net-(A1-GP6)*%
X91440000Y-102870000D03*
%TO.P,A1,10,GP7*%
%TO.N,Net-(A1-GP7)*%
X91440000Y-105410000D03*
%TO.P,A1,11,GP8*%
%TO.N,Net-(A1-GP8)*%
X91440000Y-107950000D03*
%TO.P,A1,12,GP9*%
%TO.N,Net-(A1-GP9)*%
X91440000Y-110490000D03*
D20*
%TO.P,A1,13,GND*%
%TO.N,GND*%
X91440000Y-113030000D03*
D14*
%TO.P,A1,14,GP10*%
%TO.N,Net-(A1-GP10)*%
X91440000Y-115570000D03*
%TO.P,A1,15,GP11*%
%TO.N,/Up*%
X91440000Y-118110000D03*
%TO.P,A1,16,GP12*%
%TO.N,/Left*%
X91481881Y-120650000D03*
%TO.P,A1,17,GP13*%
%TO.N,/Right*%
X91440000Y-123190000D03*
D20*
%TO.P,A1,18,GND*%
%TO.N,GND*%
X91440000Y-125730000D03*
D14*
%TO.P,A1,19,GP14*%
%TO.N,/Down*%
X91440000Y-128270000D03*
%TO.P,A1,20,GP15*%
%TO.N,/Center*%
X91440000Y-130810000D03*
%TO.P,A1,21,GP16*%
%TO.N,/SPI RX*%
X109220000Y-130810000D03*
%TO.P,A1,22,GP17*%
%TO.N,/SPI CS*%
X109220000Y-128270000D03*
D20*
%TO.P,A1,23,GND*%
%TO.N,GND*%
X109220000Y-125730000D03*
D14*
%TO.P,A1,24,GP18*%
%TO.N,/SPI CLK*%
X109220000Y-123190000D03*
%TO.P,A1,25,GP19*%
%TO.N,/SPI TX*%
X109220000Y-120650000D03*
%TO.P,A1,26,GP20*%
%TO.N,/I2C SDA*%
X109220000Y-118110000D03*
%TO.P,A1,27,GP21*%
%TO.N,/I2C SCL*%
X109220000Y-115570000D03*
D20*
%TO.P,A1,28,GND*%
%TO.N,GND*%
X109220000Y-113030000D03*
D14*
%TO.P,A1,29,GP22*%
%TO.N,Net-(A1-GP22)*%
X109220000Y-110490000D03*
%TO.P,A1,30,RUN*%
%TO.N,Net-(A1-RUN)*%
X109220000Y-107950000D03*
%TO.P,A1,31,GP26*%
%TO.N,Net-(A1-GP26)*%
X109220000Y-105410000D03*
%TO.P,A1,32,GP27*%
%TO.N,Net-(A1-GP27)*%
X109220000Y-102870000D03*
D20*
%TO.P,A1,33,AGND*%
%TO.N,GND*%
X109220000Y-100330000D03*
D14*
%TO.P,A1,34,GP28*%
%TO.N,Net-(A1-GP28)*%
X109220000Y-97790000D03*
%TO.P,A1,35,ADC_VREF*%
%TO.N,unconnected-(A1-ADC_VREF-Pad35)*%
X109220000Y-95250000D03*
%TO.P,A1,36,3V3_OUT*%
%TO.N,+3.3V*%
X109220000Y-92710000D03*
%TO.P,A1,37,3V3_EN*%
%TO.N,unconnected-(A1-3V3_EN-Pad37)*%
X109220000Y-90170000D03*
D20*
%TO.P,A1,38,GND*%
%TO.N,GND*%
X109220000Y-87630000D03*
D14*
%TO.P,A1,39,VSYS*%
%TO.N,unconnected-(A1-VSYS-Pad39)*%
X109220000Y-85090000D03*
%TO.P,A1,40,VBUS*%
%TO.N,+5V*%
X109220000Y-82550000D03*
%TD*%
D21*
%TO.P,J1,1,Pin_1*%
%TO.N,GND*%
X116713000Y-81100000D03*
D22*
%TO.P,J1,2,Pin_2*%
%TO.N,Net-(A1-GP28)*%
X116713000Y-84074000D03*
%TO.P,J1,3,Pin_3*%
%TO.N,+5V*%
X116713000Y-87000000D03*
%TD*%
D14*
%TO.P,R3,1*%
%TO.N,Net-(D1-K)*%
X81026000Y-137668000D03*
D15*
%TO.P,R3,2*%
%TO.N,GND*%
X91186000Y-137668000D03*
%TD*%
D10*
%TO.P,SW2,1,A*%
%TO.N,+3.3V*%
X146610000Y-123480000D03*
X153110000Y-123480000D03*
%TO.P,SW2,2,B*%
%TO.N,/Up*%
X146610000Y-127980000D03*
X153110000Y-127980000D03*
%TD*%
D23*
%TO.N,/I2C SDA*%
X125095000Y-108585000D03*
%TO.N,/SPI CS*%
X121920000Y-103505000D03*
X119380000Y-99060000D03*
%TO.N,/I2C SCL*%
X122555000Y-108585000D03*
%TD*%
D24*
%TO.N,/I2C SDA*%
X109220000Y-118110000D02*
X115570000Y-118110000D01*
X115570000Y-118110000D02*
X125095000Y-108585000D01*
%TO.N,/SPI CS*%
X121920000Y-103505000D02*
X121920000Y-101600000D01*
X121920000Y-101600000D02*
X119380000Y-99060000D01*
%TO.N,/I2C SCL*%
X115570000Y-115570000D02*
X122555000Y-108585000D01*
X109220000Y-115570000D02*
X115570000Y-115570000D01*
%TO.N,Net-(A1-GP22)*%
X88387000Y-134366000D02*
X83815000Y-129794000D01*
X92202000Y-134366000D02*
X88387000Y-134366000D01*
X95504000Y-124206000D02*
X95504000Y-131064000D01*
X95504000Y-131064000D02*
X92202000Y-134366000D01*
X109220000Y-110490000D02*
X95504000Y-124206000D01*
%TO.N,Net-(A1-RUN)*%
X81570000Y-142530000D02*
X83110000Y-142530000D01*
X93980000Y-130810000D02*
X91440000Y-133350000D01*
X93980000Y-123190000D02*
X93980000Y-130810000D01*
X78740000Y-128270000D02*
X78740000Y-139700000D01*
X80010000Y-127000000D02*
X78740000Y-128270000D01*
X85090000Y-127000000D02*
X80010000Y-127000000D01*
X88900000Y-133350000D02*
X86360000Y-130810000D01*
X91440000Y-133350000D02*
X88900000Y-133350000D01*
X86360000Y-128270000D02*
X85090000Y-127000000D01*
X78740000Y-139700000D02*
X81570000Y-142530000D01*
X86360000Y-130810000D02*
X86360000Y-128270000D01*
X109220000Y-107950000D02*
X93980000Y-123190000D01*
%TO.N,Net-(A1-GP27)*%
X114300000Y-102870000D02*
X118110000Y-106680000D01*
X109220000Y-102870000D02*
X114300000Y-102870000D01*
X118110000Y-106680000D02*
X118110000Y-109855000D01*
D25*
%TO.N,+3.3V*%
X87630000Y-80010000D02*
X85090000Y-82550000D01*
X96520000Y-80010000D02*
X87630000Y-80010000D01*
X109220000Y-92710000D02*
X96520000Y-80010000D01*
%TD*%
%TA.AperFunction,Conductor*%
%TO.N,GND*%
G36*
X166912244Y-76200161D02*
G01*
X167081292Y-76212251D01*
X167185648Y-76219714D01*
X167203435Y-76222272D01*
X167464657Y-76279098D01*
X167481896Y-76284158D01*
X167732392Y-76377589D01*
X167748738Y-76385054D01*
X167983374Y-76513175D01*
X167998498Y-76522895D01*
X168212509Y-76683102D01*
X168226095Y-76694875D01*
X168415124Y-76883904D01*
X168426897Y-76897490D01*
X168587104Y-77111501D01*
X168596824Y-77126625D01*
X168724945Y-77361261D01*
X168732413Y-77377613D01*
X168825838Y-77628095D01*
X168830902Y-77645345D01*
X168887726Y-77906560D01*
X168890285Y-77924354D01*
X168909839Y-78197755D01*
X168910000Y-78202251D01*
X168910000Y-149762748D01*
X168909839Y-149767244D01*
X168890285Y-150040645D01*
X168887726Y-150058439D01*
X168830902Y-150319654D01*
X168825838Y-150336904D01*
X168732413Y-150587386D01*
X168724945Y-150603738D01*
X168596824Y-150838374D01*
X168587104Y-150853498D01*
X168426897Y-151067509D01*
X168415124Y-151081095D01*
X168226095Y-151270124D01*
X168212509Y-151281897D01*
X167998498Y-151442104D01*
X167983374Y-151451824D01*
X167748738Y-151579945D01*
X167732386Y-151587413D01*
X167481904Y-151680838D01*
X167464654Y-151685902D01*
X167203439Y-151742726D01*
X167185645Y-151745285D01*
X166912244Y-151764839D01*
X166907748Y-151765000D01*
X78202252Y-151765000D01*
X78197756Y-151764839D01*
X77924354Y-151745285D01*
X77906560Y-151742726D01*
X77645345Y-151685902D01*
X77628095Y-151680838D01*
X77377613Y-151587413D01*
X77361261Y-151579945D01*
X77126625Y-151451824D01*
X77111501Y-151442104D01*
X76897490Y-151281897D01*
X76883904Y-151270124D01*
X76694875Y-151081095D01*
X76683102Y-151067509D01*
X76522895Y-150853498D01*
X76513175Y-150838374D01*
X76385054Y-150603738D01*
X76377589Y-150587392D01*
X76284158Y-150336896D01*
X76279097Y-150319654D01*
X76222273Y-150058439D01*
X76219714Y-150040644D01*
X76200161Y-149767244D01*
X76200000Y-149762748D01*
X76200000Y-147030000D01*
X81597337Y-147030000D01*
X81615960Y-147266632D01*
X81671371Y-147497437D01*
X81762206Y-147716733D01*
X81876897Y-147903891D01*
X82583097Y-147197691D01*
X82586884Y-147215915D01*
X82656442Y-147350156D01*
X82759638Y-147460652D01*
X82888819Y-147539209D01*
X82944421Y-147554788D01*
X82236107Y-148263101D01*
X82236107Y-148263102D01*
X82423261Y-148377791D01*
X82642562Y-148468628D01*
X82873367Y-148524039D01*
X83110000Y-148542662D01*
X83346632Y-148524039D01*
X83577437Y-148468628D01*
X83796738Y-148377791D01*
X83983891Y-148263102D01*
X83983892Y-148263101D01*
X83277625Y-147556834D01*
X83398458Y-147504349D01*
X83515739Y-147408934D01*
X83602928Y-147285415D01*
X83634837Y-147195628D01*
X84343101Y-147903892D01*
X84343102Y-147903891D01*
X84457791Y-147716738D01*
X84548628Y-147497437D01*
X84604039Y-147266632D01*
X84622662Y-147030000D01*
X88097337Y-147030000D01*
X88115960Y-147266632D01*
X88171371Y-147497437D01*
X88262206Y-147716733D01*
X88376897Y-147903891D01*
X89083097Y-147197691D01*
X89086884Y-147215915D01*
X89156442Y-147350156D01*
X89259638Y-147460652D01*
X89388819Y-147539209D01*
X89444421Y-147554788D01*
X88736107Y-148263101D01*
X88736107Y-148263102D01*
X88923261Y-148377791D01*
X89142562Y-148468628D01*
X89373367Y-148524039D01*
X89610000Y-148542662D01*
X89846632Y-148524039D01*
X90077437Y-148468628D01*
X90296738Y-148377791D01*
X90423680Y-148300000D01*
X145096835Y-148300000D01*
X145115465Y-148536710D01*
X145170894Y-148767592D01*
X145261759Y-148986961D01*
X145385825Y-149189417D01*
X145385826Y-149189419D01*
X145540030Y-149369969D01*
X145720580Y-149524173D01*
X145720584Y-149524176D01*
X145923037Y-149648240D01*
X146142406Y-149739105D01*
X146373289Y-149794535D01*
X146610000Y-149813165D01*
X146846711Y-149794535D01*
X147077594Y-149739105D01*
X147296963Y-149648240D01*
X147499416Y-149524176D01*
X147679969Y-149369969D01*
X147834176Y-149189416D01*
X147958240Y-148986963D01*
X148049105Y-148767594D01*
X148104535Y-148536711D01*
X148123165Y-148300000D01*
X151596835Y-148300000D01*
X151615465Y-148536710D01*
X151670894Y-148767592D01*
X151761759Y-148986961D01*
X151885825Y-149189417D01*
X151885826Y-149189419D01*
X152040030Y-149369969D01*
X152220580Y-149524173D01*
X152220584Y-149524176D01*
X152423037Y-149648240D01*
X152642406Y-149739105D01*
X152873289Y-149794535D01*
X153110000Y-149813165D01*
X153346711Y-149794535D01*
X153577594Y-149739105D01*
X153796963Y-149648240D01*
X153999416Y-149524176D01*
X154179969Y-149369969D01*
X154334176Y-149189416D01*
X154458240Y-148986963D01*
X154549105Y-148767594D01*
X154604535Y-148536711D01*
X154623165Y-148300000D01*
X154604535Y-148063289D01*
X154549105Y-147832406D01*
X154458240Y-147613037D01*
X154334176Y-147410584D01*
X154282566Y-147350156D01*
X154179969Y-147230030D01*
X153999419Y-147075826D01*
X153999417Y-147075825D01*
X153999416Y-147075824D01*
X153796963Y-146951760D01*
X153577594Y-146860895D01*
X153577592Y-146860894D01*
X153419651Y-146822976D01*
X153346711Y-146805465D01*
X153110000Y-146786835D01*
X152873289Y-146805465D01*
X152642407Y-146860894D01*
X152423038Y-146951759D01*
X152220582Y-147075825D01*
X152220580Y-147075826D01*
X152040030Y-147230030D01*
X151885826Y-147410580D01*
X151885825Y-147410582D01*
X151761759Y-147613038D01*
X151670894Y-147832407D01*
X151615465Y-148063289D01*
X151596835Y-148300000D01*
X148123165Y-148300000D01*
X148104535Y-148063289D01*
X148049105Y-147832406D01*
X147958240Y-147613037D01*
X147834176Y-147410584D01*
X147782566Y-147350156D01*
X147679969Y-147230030D01*
X147499419Y-147075826D01*
X147499417Y-147075825D01*
X147499416Y-147075824D01*
X147296963Y-146951760D01*
X147077594Y-146860895D01*
X147077592Y-146860894D01*
X146919651Y-146822976D01*
X146846711Y-146805465D01*
X146610000Y-146786835D01*
X146373289Y-146805465D01*
X146142407Y-146860894D01*
X145923038Y-146951759D01*
X145720582Y-147075825D01*
X145720580Y-147075826D01*
X145540030Y-147230030D01*
X145385826Y-147410580D01*
X145385825Y-147410582D01*
X145261759Y-147613038D01*
X145170894Y-147832407D01*
X145115465Y-148063289D01*
X145096835Y-148300000D01*
X90423680Y-148300000D01*
X90483891Y-148263102D01*
X90483892Y-148263101D01*
X89777625Y-147556834D01*
X89898458Y-147504349D01*
X90015739Y-147408934D01*
X90102928Y-147285415D01*
X90134837Y-147195628D01*
X90843101Y-147903892D01*
X90843102Y-147903891D01*
X90957791Y-147716738D01*
X91048628Y-147497437D01*
X91104039Y-147266632D01*
X91122662Y-147030000D01*
X91104039Y-146793367D01*
X91048628Y-146562562D01*
X90957791Y-146343261D01*
X90843102Y-146156107D01*
X90843101Y-146156107D01*
X90136902Y-146862306D01*
X90133116Y-146844085D01*
X90063558Y-146709844D01*
X89960362Y-146599348D01*
X89831181Y-146520791D01*
X89775577Y-146505211D01*
X90483891Y-145796897D01*
X90296733Y-145682206D01*
X90077437Y-145591371D01*
X89846632Y-145535960D01*
X89610000Y-145517337D01*
X89373367Y-145535960D01*
X89142562Y-145591371D01*
X88923262Y-145682208D01*
X88736107Y-145796896D01*
X88736107Y-145796898D01*
X89442374Y-146503165D01*
X89321542Y-146555651D01*
X89204261Y-146651066D01*
X89117072Y-146774585D01*
X89085162Y-146864371D01*
X88376898Y-146156107D01*
X88376896Y-146156107D01*
X88262208Y-146343262D01*
X88171371Y-146562562D01*
X88115960Y-146793367D01*
X88097337Y-147030000D01*
X84622662Y-147030000D01*
X84604039Y-146793367D01*
X84548628Y-146562562D01*
X84457791Y-146343261D01*
X84343102Y-146156107D01*
X84343101Y-146156107D01*
X83636902Y-146862306D01*
X83633116Y-146844085D01*
X83563558Y-146709844D01*
X83460362Y-146599348D01*
X83331181Y-146520791D01*
X83275577Y-146505211D01*
X83983891Y-145796897D01*
X83796733Y-145682206D01*
X83577437Y-145591371D01*
X83346632Y-145535960D01*
X83110000Y-145517337D01*
X82873367Y-145535960D01*
X82642562Y-145591371D01*
X82423262Y-145682208D01*
X82236107Y-145796896D01*
X82236107Y-145796898D01*
X82942374Y-146503165D01*
X82821542Y-146555651D01*
X82704261Y-146651066D01*
X82617072Y-146774585D01*
X82585162Y-146864371D01*
X81876898Y-146156107D01*
X81876896Y-146156107D01*
X81762208Y-146343262D01*
X81671371Y-146562562D01*
X81615960Y-146793367D01*
X81597337Y-147030000D01*
X76200000Y-147030000D01*
X76200000Y-128249943D01*
X78101780Y-128249943D01*
X78106220Y-128296917D01*
X78106500Y-128302850D01*
X78106500Y-139616146D01*
X78104751Y-139631988D01*
X78105044Y-139632016D01*
X78104298Y-139639907D01*
X78106500Y-139709957D01*
X78106500Y-139739851D01*
X78106501Y-139739872D01*
X78107378Y-139746820D01*
X78107844Y-139752732D01*
X78109326Y-139799888D01*
X78109327Y-139799893D01*
X78114977Y-139819339D01*
X78118986Y-139838697D01*
X78121525Y-139858793D01*
X78121526Y-139858799D01*
X78138893Y-139902662D01*
X78140816Y-139908279D01*
X78153982Y-139953593D01*
X78164294Y-139971031D01*
X78172988Y-139988779D01*
X78180444Y-140007609D01*
X78180450Y-140007620D01*
X78208177Y-140045783D01*
X78211437Y-140050746D01*
X78235460Y-140091365D01*
X78249779Y-140105684D01*
X78262617Y-140120714D01*
X78272156Y-140133843D01*
X78274528Y-140137107D01*
X78302794Y-140160491D01*
X78310886Y-140167185D01*
X78315267Y-140171171D01*
X79697357Y-141553261D01*
X81062753Y-142918657D01*
X81072720Y-142931097D01*
X81072947Y-142930910D01*
X81077999Y-142937017D01*
X81129095Y-142984999D01*
X81150225Y-143006130D01*
X81155768Y-143010430D01*
X81160281Y-143014285D01*
X81194679Y-143046586D01*
X81194680Y-143046586D01*
X81194682Y-143046588D01*
X81212429Y-143056344D01*
X81228959Y-143067202D01*
X81244959Y-143079613D01*
X81276136Y-143093104D01*
X81288251Y-143098347D01*
X81293585Y-143100959D01*
X81334940Y-143123695D01*
X81354562Y-143128733D01*
X81373263Y-143135135D01*
X81391855Y-143143181D01*
X81438470Y-143150563D01*
X81444242Y-143151758D01*
X81489970Y-143163500D01*
X81510231Y-143163500D01*
X81529939Y-143165050D01*
X81549943Y-143168219D01*
X81583459Y-143165051D01*
X81596910Y-143163780D01*
X81602842Y-143163500D01*
X81658435Y-143163500D01*
X81726556Y-143183502D01*
X81765865Y-143223662D01*
X81842798Y-143349204D01*
X81885825Y-143419417D01*
X81885826Y-143419419D01*
X82040030Y-143599969D01*
X82206316Y-143741990D01*
X82220584Y-143754176D01*
X82423037Y-143878240D01*
X82642406Y-143969105D01*
X82873289Y-144024535D01*
X83110000Y-144043165D01*
X83346711Y-144024535D01*
X83577594Y-143969105D01*
X83796963Y-143878240D01*
X83999416Y-143754176D01*
X84179969Y-143599969D01*
X84334176Y-143419416D01*
X84458240Y-143216963D01*
X84549105Y-142997594D01*
X84604535Y-142766711D01*
X84623165Y-142530000D01*
X88096835Y-142530000D01*
X88115465Y-142766710D01*
X88170894Y-142997592D01*
X88239615Y-143163499D01*
X88261760Y-143216963D01*
X88305689Y-143288649D01*
X88385825Y-143419417D01*
X88385826Y-143419419D01*
X88540030Y-143599969D01*
X88706316Y-143741990D01*
X88720584Y-143754176D01*
X88923037Y-143878240D01*
X89142406Y-143969105D01*
X89373289Y-144024535D01*
X89610000Y-144043165D01*
X89846711Y-144024535D01*
X90077594Y-143969105D01*
X90296963Y-143878240D01*
X90424638Y-143800000D01*
X145096835Y-143800000D01*
X145115465Y-144036711D01*
X145132976Y-144109651D01*
X145170894Y-144267592D01*
X145261759Y-144486961D01*
X145385825Y-144689417D01*
X145385826Y-144689419D01*
X145540030Y-144869969D01*
X145720580Y-145024173D01*
X145720584Y-145024176D01*
X145923037Y-145148240D01*
X146142406Y-145239105D01*
X146373289Y-145294535D01*
X146610000Y-145313165D01*
X146846711Y-145294535D01*
X147077594Y-145239105D01*
X147296963Y-145148240D01*
X147499416Y-145024176D01*
X147679969Y-144869969D01*
X147834176Y-144689416D01*
X147958240Y-144486963D01*
X148049105Y-144267594D01*
X148104535Y-144036711D01*
X148123165Y-143800000D01*
X151596835Y-143800000D01*
X151615465Y-144036711D01*
X151632976Y-144109651D01*
X151670894Y-144267592D01*
X151761759Y-144486961D01*
X151885825Y-144689417D01*
X151885826Y-144689419D01*
X152040030Y-144869969D01*
X152220580Y-145024173D01*
X152220584Y-145024176D01*
X152423037Y-145148240D01*
X152642406Y-145239105D01*
X152873289Y-145294535D01*
X153110000Y-145313165D01*
X153346711Y-145294535D01*
X153577594Y-145239105D01*
X153796963Y-145148240D01*
X153999416Y-145024176D01*
X154179969Y-144869969D01*
X154334176Y-144689416D01*
X154458240Y-144486963D01*
X154549105Y-144267594D01*
X154604535Y-144036711D01*
X154623165Y-143800000D01*
X154604535Y-143563289D01*
X154549105Y-143332406D01*
X154458240Y-143113037D01*
X154334176Y-142910584D01*
X154211297Y-142766711D01*
X154179969Y-142730030D01*
X153999419Y-142575826D01*
X153999417Y-142575825D01*
X153999416Y-142575824D01*
X153796963Y-142451760D01*
X153792338Y-142449844D01*
X153577592Y-142360894D01*
X153419651Y-142322976D01*
X153346711Y-142305465D01*
X153110000Y-142286835D01*
X152873289Y-142305465D01*
X152642407Y-142360894D01*
X152423038Y-142451759D01*
X152220582Y-142575825D01*
X152220580Y-142575826D01*
X152040030Y-142730030D01*
X151885826Y-142910580D01*
X151885825Y-142910582D01*
X151761759Y-143113038D01*
X151670894Y-143332407D01*
X151615465Y-143563289D01*
X151596835Y-143800000D01*
X148123165Y-143800000D01*
X148104535Y-143563289D01*
X148049105Y-143332406D01*
X147958240Y-143113037D01*
X147834176Y-142910584D01*
X147711297Y-142766711D01*
X147679969Y-142730030D01*
X147499419Y-142575826D01*
X147499417Y-142575825D01*
X147499416Y-142575824D01*
X147296963Y-142451760D01*
X147292338Y-142449844D01*
X147077592Y-142360894D01*
X146919651Y-142322976D01*
X146846711Y-142305465D01*
X146610000Y-142286835D01*
X146373289Y-142305465D01*
X146142407Y-142360894D01*
X145923038Y-142451759D01*
X145720582Y-142575825D01*
X145720580Y-142575826D01*
X145540030Y-142730030D01*
X145385826Y-142910580D01*
X145385825Y-142910582D01*
X145261759Y-143113038D01*
X145170894Y-143332407D01*
X145115465Y-143563289D01*
X145096835Y-143800000D01*
X90424638Y-143800000D01*
X90499416Y-143754176D01*
X90679969Y-143599969D01*
X90834176Y-143419416D01*
X90914311Y-143288649D01*
X95521500Y-143288649D01*
X95528009Y-143349196D01*
X95528011Y-143349204D01*
X95579110Y-143486202D01*
X95579112Y-143486207D01*
X95666738Y-143603261D01*
X95783792Y-143690887D01*
X95783794Y-143690888D01*
X95783796Y-143690889D01*
X95842875Y-143712924D01*
X95920795Y-143741988D01*
X95920803Y-143741990D01*
X95981350Y-143748499D01*
X95981355Y-143748499D01*
X95981362Y-143748500D01*
X95981368Y-143748500D01*
X98078632Y-143748500D01*
X98078638Y-143748500D01*
X98078645Y-143748499D01*
X98078649Y-143748499D01*
X98139196Y-143741990D01*
X98139199Y-143741989D01*
X98139201Y-143741989D01*
X98276204Y-143690889D01*
X98393261Y-143603261D01*
X98480889Y-143486204D01*
X98531989Y-143349201D01*
X98533795Y-143332407D01*
X98538499Y-143288649D01*
X98538500Y-143288632D01*
X98538500Y-142240000D01*
X102117337Y-142240000D01*
X102135960Y-142476632D01*
X102191371Y-142707437D01*
X102282206Y-142926733D01*
X102396897Y-143113891D01*
X103145638Y-142365150D01*
X103170507Y-142449844D01*
X103248239Y-142570798D01*
X103356900Y-142664952D01*
X103487685Y-142724680D01*
X103502412Y-142726797D01*
X102756107Y-143473101D01*
X102756107Y-143473102D01*
X102943261Y-143587791D01*
X103162562Y-143678628D01*
X103393367Y-143734039D01*
X103630000Y-143752662D01*
X103866632Y-143734039D01*
X104097437Y-143678628D01*
X104316738Y-143587791D01*
X104503891Y-143473102D01*
X104503892Y-143473101D01*
X103757588Y-142726797D01*
X103772315Y-142724680D01*
X103903100Y-142664952D01*
X104011761Y-142570798D01*
X104089493Y-142449844D01*
X104114360Y-142365151D01*
X104863101Y-143113892D01*
X104863102Y-143113891D01*
X104977791Y-142926738D01*
X105068628Y-142707437D01*
X105124039Y-142476632D01*
X105142662Y-142240000D01*
X105124039Y-142003367D01*
X105068628Y-141772562D01*
X104977791Y-141553261D01*
X104863102Y-141366107D01*
X104863101Y-141366107D01*
X104114360Y-142114848D01*
X104089493Y-142030156D01*
X104011761Y-141909202D01*
X103903100Y-141815048D01*
X103772315Y-141755320D01*
X103757587Y-141753202D01*
X104503891Y-141006897D01*
X104316733Y-140892206D01*
X104097437Y-140801371D01*
X103866632Y-140745960D01*
X103630000Y-140727337D01*
X103393367Y-140745960D01*
X103162562Y-140801371D01*
X102943262Y-140892208D01*
X102756107Y-141006896D01*
X102756107Y-141006898D01*
X103502411Y-141753202D01*
X103487685Y-141755320D01*
X103356900Y-141815048D01*
X103248239Y-141909202D01*
X103170507Y-142030156D01*
X103145639Y-142114848D01*
X102396898Y-141366107D01*
X102396896Y-141366107D01*
X102282208Y-141553262D01*
X102191371Y-141772562D01*
X102135960Y-142003367D01*
X102117337Y-142240000D01*
X98538500Y-142240000D01*
X98538500Y-141191367D01*
X98538499Y-141191350D01*
X98531990Y-141130803D01*
X98531988Y-141130795D01*
X98480889Y-140993797D01*
X98480887Y-140993792D01*
X98393261Y-140876738D01*
X98276207Y-140789112D01*
X98276202Y-140789110D01*
X98139204Y-140738011D01*
X98139196Y-140738009D01*
X98078649Y-140731500D01*
X98078638Y-140731500D01*
X95981362Y-140731500D01*
X95981350Y-140731500D01*
X95920803Y-140738009D01*
X95920795Y-140738011D01*
X95783797Y-140789110D01*
X95783792Y-140789112D01*
X95666738Y-140876738D01*
X95579112Y-140993792D01*
X95579110Y-140993797D01*
X95528011Y-141130795D01*
X95528009Y-141130803D01*
X95521500Y-141191350D01*
X95521500Y-143288649D01*
X90914311Y-143288649D01*
X90958240Y-143216963D01*
X91049105Y-142997594D01*
X91104535Y-142766711D01*
X91123165Y-142530000D01*
X91104535Y-142293289D01*
X91049105Y-142062406D01*
X90958240Y-141843037D01*
X90834176Y-141640584D01*
X90834173Y-141640581D01*
X90834173Y-141640580D01*
X90679969Y-141460030D01*
X90499419Y-141305826D01*
X90499417Y-141305825D01*
X90499416Y-141305824D01*
X90296963Y-141181760D01*
X90173942Y-141130803D01*
X90077592Y-141090894D01*
X89919651Y-141052976D01*
X89846711Y-141035465D01*
X89610000Y-141016835D01*
X89373289Y-141035465D01*
X89142407Y-141090894D01*
X88923038Y-141181759D01*
X88720582Y-141305825D01*
X88720580Y-141305826D01*
X88540030Y-141460030D01*
X88385826Y-141640580D01*
X88385825Y-141640582D01*
X88261759Y-141843038D01*
X88170894Y-142062407D01*
X88115465Y-142293289D01*
X88096835Y-142530000D01*
X84623165Y-142530000D01*
X84604535Y-142293289D01*
X84549105Y-142062406D01*
X84458240Y-141843037D01*
X84334176Y-141640584D01*
X84334173Y-141640581D01*
X84334173Y-141640580D01*
X84179969Y-141460030D01*
X83999419Y-141305826D01*
X83999417Y-141305825D01*
X83999416Y-141305824D01*
X83796963Y-141181760D01*
X83673942Y-141130803D01*
X83577592Y-141090894D01*
X83419651Y-141052976D01*
X83346711Y-141035465D01*
X83110000Y-141016835D01*
X82873289Y-141035465D01*
X82642407Y-141090894D01*
X82423038Y-141181759D01*
X82220582Y-141305825D01*
X82220580Y-141305826D01*
X82040030Y-141460030D01*
X81885826Y-141640580D01*
X81885826Y-141640581D01*
X81851798Y-141696108D01*
X81799149Y-141743738D01*
X81729107Y-141755344D01*
X81663910Y-141727239D01*
X81655271Y-141719366D01*
X79410405Y-139474500D01*
X79376379Y-139412188D01*
X79373500Y-139385405D01*
X79373500Y-137668000D01*
X79712502Y-137668000D01*
X79732457Y-137896087D01*
X79759133Y-137995641D01*
X79791715Y-138117240D01*
X79791717Y-138117246D01*
X79888360Y-138324498D01*
X79888477Y-138324749D01*
X80019802Y-138512300D01*
X80181700Y-138674198D01*
X80369251Y-138805523D01*
X80576757Y-138902284D01*
X80797913Y-138961543D01*
X81026000Y-138981498D01*
X81254087Y-138961543D01*
X81475243Y-138902284D01*
X81682749Y-138805523D01*
X81870300Y-138674198D01*
X82032198Y-138512300D01*
X82163523Y-138324749D01*
X82260284Y-138117243D01*
X82319543Y-137896087D01*
X82339498Y-137668000D01*
X82319543Y-137439913D01*
X82312600Y-137414000D01*
X89899917Y-137414000D01*
X90874314Y-137414000D01*
X90858359Y-137429955D01*
X90800835Y-137542852D01*
X90781014Y-137668000D01*
X90800835Y-137793148D01*
X90858359Y-137906045D01*
X90874314Y-137922000D01*
X89899918Y-137922000D01*
X89952186Y-138117068D01*
X89952188Y-138117073D01*
X90048912Y-138324498D01*
X90180184Y-138511974D01*
X90180189Y-138511980D01*
X90342019Y-138673810D01*
X90342025Y-138673815D01*
X90529501Y-138805087D01*
X90736926Y-138901811D01*
X90736931Y-138901813D01*
X90932000Y-138954081D01*
X90932000Y-137979686D01*
X90947955Y-137995641D01*
X91060852Y-138053165D01*
X91154519Y-138068000D01*
X91217481Y-138068000D01*
X91311148Y-138053165D01*
X91424045Y-137995641D01*
X91440000Y-137979686D01*
X91440000Y-138954081D01*
X91635068Y-138901813D01*
X91635073Y-138901811D01*
X91842498Y-138805087D01*
X92029974Y-138673815D01*
X92029980Y-138673810D01*
X92191810Y-138511980D01*
X92191815Y-138511974D01*
X92323087Y-138324498D01*
X92409120Y-138140000D01*
X132396835Y-138140000D01*
X132415465Y-138376710D01*
X132470894Y-138607592D01*
X132470895Y-138607594D01*
X132561760Y-138826963D01*
X132639658Y-138954081D01*
X132685825Y-139029417D01*
X132685826Y-139029419D01*
X132840030Y-139209969D01*
X133020580Y-139364173D01*
X133020584Y-139364176D01*
X133223037Y-139488240D01*
X133442406Y-139579105D01*
X133673289Y-139634535D01*
X133910000Y-139653165D01*
X134146711Y-139634535D01*
X134377594Y-139579105D01*
X134596963Y-139488240D01*
X134799416Y-139364176D01*
X134979969Y-139209969D01*
X135134176Y-139029416D01*
X135258240Y-138826963D01*
X135349105Y-138607594D01*
X135404535Y-138376711D01*
X135423165Y-138140000D01*
X138896835Y-138140000D01*
X138915465Y-138376710D01*
X138970894Y-138607592D01*
X138970895Y-138607594D01*
X139061760Y-138826963D01*
X139139658Y-138954081D01*
X139185825Y-139029417D01*
X139185826Y-139029419D01*
X139340030Y-139209969D01*
X139520580Y-139364173D01*
X139520584Y-139364176D01*
X139723037Y-139488240D01*
X139942406Y-139579105D01*
X140173289Y-139634535D01*
X140410000Y-139653165D01*
X140646711Y-139634535D01*
X140877594Y-139579105D01*
X141096963Y-139488240D01*
X141299416Y-139364176D01*
X141479969Y-139209969D01*
X141634176Y-139029416D01*
X141758240Y-138826963D01*
X141849105Y-138607594D01*
X141904535Y-138376711D01*
X141923165Y-138140000D01*
X145096835Y-138140000D01*
X145115465Y-138376710D01*
X145170894Y-138607592D01*
X145170895Y-138607594D01*
X145261760Y-138826963D01*
X145339658Y-138954081D01*
X145385825Y-139029417D01*
X145385826Y-139029419D01*
X145540030Y-139209969D01*
X145720580Y-139364173D01*
X145720584Y-139364176D01*
X145923037Y-139488240D01*
X146142406Y-139579105D01*
X146373289Y-139634535D01*
X146610000Y-139653165D01*
X146846711Y-139634535D01*
X147077594Y-139579105D01*
X147296963Y-139488240D01*
X147499416Y-139364176D01*
X147679969Y-139209969D01*
X147834176Y-139029416D01*
X147958240Y-138826963D01*
X148049105Y-138607594D01*
X148104535Y-138376711D01*
X148123165Y-138140000D01*
X151596835Y-138140000D01*
X151615465Y-138376710D01*
X151670894Y-138607592D01*
X151670895Y-138607594D01*
X151761760Y-138826963D01*
X151839658Y-138954081D01*
X151885825Y-139029417D01*
X151885826Y-139029419D01*
X152040030Y-139209969D01*
X152220580Y-139364173D01*
X152220584Y-139364176D01*
X152423037Y-139488240D01*
X152642406Y-139579105D01*
X152873289Y-139634535D01*
X153110000Y-139653165D01*
X153346711Y-139634535D01*
X153577594Y-139579105D01*
X153796963Y-139488240D01*
X153999416Y-139364176D01*
X154179969Y-139209969D01*
X154334176Y-139029416D01*
X154458240Y-138826963D01*
X154549105Y-138607594D01*
X154604535Y-138376711D01*
X154623165Y-138140000D01*
X157796835Y-138140000D01*
X157815465Y-138376710D01*
X157870894Y-138607592D01*
X157870895Y-138607594D01*
X157961760Y-138826963D01*
X158039658Y-138954081D01*
X158085825Y-139029417D01*
X158085826Y-139029419D01*
X158240030Y-139209969D01*
X158420580Y-139364173D01*
X158420584Y-139364176D01*
X158623037Y-139488240D01*
X158842406Y-139579105D01*
X159073289Y-139634535D01*
X159310000Y-139653165D01*
X159546711Y-139634535D01*
X159777594Y-139579105D01*
X159996963Y-139488240D01*
X160199416Y-139364176D01*
X160379969Y-139209969D01*
X160534176Y-139029416D01*
X160658240Y-138826963D01*
X160749105Y-138607594D01*
X160804535Y-138376711D01*
X160823165Y-138140000D01*
X164296835Y-138140000D01*
X164315465Y-138376710D01*
X164370894Y-138607592D01*
X164370895Y-138607594D01*
X164461760Y-138826963D01*
X164539658Y-138954081D01*
X164585825Y-139029417D01*
X164585826Y-139029419D01*
X164740030Y-139209969D01*
X164920580Y-139364173D01*
X164920584Y-139364176D01*
X165123037Y-139488240D01*
X165342406Y-139579105D01*
X165573289Y-139634535D01*
X165810000Y-139653165D01*
X166046711Y-139634535D01*
X166277594Y-139579105D01*
X166496963Y-139488240D01*
X166699416Y-139364176D01*
X166879969Y-139209969D01*
X167034176Y-139029416D01*
X167158240Y-138826963D01*
X167249105Y-138607594D01*
X167304535Y-138376711D01*
X167323165Y-138140000D01*
X167304535Y-137903289D01*
X167249105Y-137672406D01*
X167158240Y-137453037D01*
X167034176Y-137250584D01*
X167007142Y-137218931D01*
X166879969Y-137070030D01*
X166699419Y-136915826D01*
X166699417Y-136915825D01*
X166699416Y-136915824D01*
X166496963Y-136791760D01*
X166277594Y-136700895D01*
X166277592Y-136700894D01*
X166114747Y-136661799D01*
X166046711Y-136645465D01*
X165810000Y-136626835D01*
X165573289Y-136645465D01*
X165342407Y-136700894D01*
X165123038Y-136791759D01*
X164920582Y-136915825D01*
X164920580Y-136915826D01*
X164740030Y-137070030D01*
X164585826Y-137250580D01*
X164585825Y-137250582D01*
X164461759Y-137453038D01*
X164370894Y-137672407D01*
X164315465Y-137903289D01*
X164296835Y-138140000D01*
X160823165Y-138140000D01*
X160804535Y-137903289D01*
X160749105Y-137672406D01*
X160658240Y-137453037D01*
X160534176Y-137250584D01*
X160507142Y-137218931D01*
X160379969Y-137070030D01*
X160199419Y-136915826D01*
X160199417Y-136915825D01*
X160199416Y-136915824D01*
X159996963Y-136791760D01*
X159777594Y-136700895D01*
X159777592Y-136700894D01*
X159614747Y-136661799D01*
X159546711Y-136645465D01*
X159310000Y-136626835D01*
X159073289Y-136645465D01*
X158842407Y-136700894D01*
X158623038Y-136791759D01*
X158420582Y-136915825D01*
X158420580Y-136915826D01*
X158240030Y-137070030D01*
X158085826Y-137250580D01*
X158085825Y-137250582D01*
X157961759Y-137453038D01*
X157870894Y-137672407D01*
X157815465Y-137903289D01*
X157796835Y-138140000D01*
X154623165Y-138140000D01*
X154604535Y-137903289D01*
X154549105Y-137672406D01*
X154458240Y-137453037D01*
X154334176Y-137250584D01*
X154307142Y-137218931D01*
X154179969Y-137070030D01*
X153999419Y-136915826D01*
X153999417Y-136915825D01*
X153999416Y-136915824D01*
X153796963Y-136791760D01*
X153577594Y-136700895D01*
X153577592Y-136700894D01*
X153414747Y-136661799D01*
X153346711Y-136645465D01*
X153110000Y-136626835D01*
X152873289Y-136645465D01*
X152642407Y-136700894D01*
X152423038Y-136791759D01*
X152220582Y-136915825D01*
X152220580Y-136915826D01*
X152040030Y-137070030D01*
X151885826Y-137250580D01*
X151885825Y-137250582D01*
X151761759Y-137453038D01*
X151670894Y-137672407D01*
X151615465Y-137903289D01*
X151596835Y-138140000D01*
X148123165Y-138140000D01*
X148104535Y-137903289D01*
X148049105Y-137672406D01*
X147958240Y-137453037D01*
X147834176Y-137250584D01*
X147807142Y-137218931D01*
X147679969Y-137070030D01*
X147499419Y-136915826D01*
X147499417Y-136915825D01*
X147499416Y-136915824D01*
X147296963Y-136791760D01*
X147077594Y-136700895D01*
X147077592Y-136700894D01*
X146914747Y-136661799D01*
X146846711Y-136645465D01*
X146610000Y-136626835D01*
X146373289Y-136645465D01*
X146142407Y-136700894D01*
X145923038Y-136791759D01*
X145720582Y-136915825D01*
X145720580Y-136915826D01*
X145540030Y-137070030D01*
X145385826Y-137250580D01*
X145385825Y-137250582D01*
X145261759Y-137453038D01*
X145170894Y-137672407D01*
X145115465Y-137903289D01*
X145096835Y-138140000D01*
X141923165Y-138140000D01*
X141904535Y-137903289D01*
X141849105Y-137672406D01*
X141758240Y-137453037D01*
X141634176Y-137250584D01*
X141607142Y-137218931D01*
X141479969Y-137070030D01*
X141299419Y-136915826D01*
X141299417Y-136915825D01*
X141299416Y-136915824D01*
X141096963Y-136791760D01*
X140877594Y-136700895D01*
X140877592Y-136700894D01*
X140714747Y-136661799D01*
X140646711Y-136645465D01*
X140410000Y-136626835D01*
X140173289Y-136645465D01*
X139942407Y-136700894D01*
X139723038Y-136791759D01*
X139520582Y-136915825D01*
X139520580Y-136915826D01*
X139340030Y-137070030D01*
X139185826Y-137250580D01*
X139185825Y-137250582D01*
X139061759Y-137453038D01*
X138970894Y-137672407D01*
X138915465Y-137903289D01*
X138896835Y-138140000D01*
X135423165Y-138140000D01*
X135404535Y-137903289D01*
X135349105Y-137672406D01*
X135258240Y-137453037D01*
X135134176Y-137250584D01*
X135107142Y-137218931D01*
X134979969Y-137070030D01*
X134799419Y-136915826D01*
X134799417Y-136915825D01*
X134799416Y-136915824D01*
X134596963Y-136791760D01*
X134377594Y-136700895D01*
X134377592Y-136700894D01*
X134214747Y-136661799D01*
X134146711Y-136645465D01*
X133910000Y-136626835D01*
X133673289Y-136645465D01*
X133442407Y-136700894D01*
X133223038Y-136791759D01*
X133020582Y-136915825D01*
X133020580Y-136915826D01*
X132840030Y-137070030D01*
X132685826Y-137250580D01*
X132685825Y-137250582D01*
X132561759Y-137453038D01*
X132470894Y-137672407D01*
X132415465Y-137903289D01*
X132396835Y-138140000D01*
X92409120Y-138140000D01*
X92419811Y-138117073D01*
X92419813Y-138117068D01*
X92472082Y-137922000D01*
X91497686Y-137922000D01*
X91513641Y-137906045D01*
X91571165Y-137793148D01*
X91590986Y-137668000D01*
X91571165Y-137542852D01*
X91513641Y-137429955D01*
X91497686Y-137414000D01*
X92472082Y-137414000D01*
X92419813Y-137218931D01*
X92419811Y-137218926D01*
X92323087Y-137011501D01*
X92191815Y-136824025D01*
X92191810Y-136824019D01*
X92029980Y-136662189D01*
X92029974Y-136662184D01*
X91842498Y-136530912D01*
X91635073Y-136434188D01*
X91635071Y-136434187D01*
X91440000Y-136381917D01*
X91440000Y-137356314D01*
X91424045Y-137340359D01*
X91311148Y-137282835D01*
X91217481Y-137268000D01*
X91154519Y-137268000D01*
X91060852Y-137282835D01*
X90947955Y-137340359D01*
X90932000Y-137356314D01*
X90932000Y-136381917D01*
X90931999Y-136381917D01*
X90736928Y-136434187D01*
X90736926Y-136434188D01*
X90529501Y-136530912D01*
X90342025Y-136662184D01*
X90342019Y-136662189D01*
X90180189Y-136824019D01*
X90180184Y-136824025D01*
X90048912Y-137011501D01*
X89952188Y-137218926D01*
X89952186Y-137218931D01*
X89899917Y-137414000D01*
X82312600Y-137414000D01*
X82260284Y-137218757D01*
X82163523Y-137011251D01*
X82032198Y-136823700D01*
X81870300Y-136661802D01*
X81846968Y-136645465D01*
X81682749Y-136530477D01*
X81475246Y-136433717D01*
X81475240Y-136433715D01*
X81381771Y-136408670D01*
X81254087Y-136374457D01*
X81026000Y-136354502D01*
X80797913Y-136374457D01*
X80576759Y-136433715D01*
X80576753Y-136433717D01*
X80369250Y-136530477D01*
X80181703Y-136661799D01*
X80181697Y-136661804D01*
X80019804Y-136823697D01*
X80019799Y-136823703D01*
X79888477Y-137011250D01*
X79791717Y-137218753D01*
X79791715Y-137218759D01*
X79739400Y-137414000D01*
X79732457Y-137439913D01*
X79712502Y-137668000D01*
X79373500Y-137668000D01*
X79373500Y-128584594D01*
X79393502Y-128516473D01*
X79410405Y-128495499D01*
X80235499Y-127670405D01*
X80297811Y-127636379D01*
X80324594Y-127633500D01*
X84775406Y-127633500D01*
X84843527Y-127653502D01*
X84864501Y-127670405D01*
X85689595Y-128495499D01*
X85723621Y-128557811D01*
X85726500Y-128584594D01*
X85726500Y-130505405D01*
X85706498Y-130573526D01*
X85652842Y-130620019D01*
X85582568Y-130630123D01*
X85517988Y-130600629D01*
X85511405Y-130594500D01*
X85206022Y-130289117D01*
X85171996Y-130226805D01*
X85172972Y-130169092D01*
X85209051Y-130026626D01*
X85228327Y-129794000D01*
X85209051Y-129561374D01*
X85189448Y-129483963D01*
X85151750Y-129335096D01*
X85151747Y-129335089D01*
X85136206Y-129299660D01*
X85057984Y-129121331D01*
X85053388Y-129114296D01*
X84930314Y-128925916D01*
X84772225Y-128754186D01*
X84772221Y-128754182D01*
X84645004Y-128655165D01*
X84588017Y-128610810D01*
X84382727Y-128499713D01*
X84382724Y-128499712D01*
X84382723Y-128499711D01*
X84161955Y-128423921D01*
X84161948Y-128423919D01*
X84063411Y-128407476D01*
X83931712Y-128385500D01*
X83698288Y-128385500D01*
X83583066Y-128404727D01*
X83468051Y-128423919D01*
X83468044Y-128423921D01*
X83247276Y-128499711D01*
X83247273Y-128499713D01*
X83041985Y-128610809D01*
X83041983Y-128610810D01*
X82857778Y-128754182D01*
X82853946Y-128757711D01*
X82852581Y-128756228D01*
X82799129Y-128788333D01*
X82728165Y-128786180D01*
X82669630Y-128746003D01*
X82649258Y-128710449D01*
X82633037Y-128666961D01*
X82625889Y-128647796D01*
X82625888Y-128647794D01*
X82625887Y-128647792D01*
X82538261Y-128530738D01*
X82421207Y-128443112D01*
X82421202Y-128443110D01*
X82284204Y-128392011D01*
X82284196Y-128392009D01*
X82223649Y-128385500D01*
X82223638Y-128385500D01*
X80326362Y-128385500D01*
X80326350Y-128385500D01*
X80265803Y-128392009D01*
X80265795Y-128392011D01*
X80128797Y-128443110D01*
X80128792Y-128443112D01*
X80011738Y-128530738D01*
X79924112Y-128647792D01*
X79924110Y-128647797D01*
X79873011Y-128784795D01*
X79873009Y-128784803D01*
X79866500Y-128845350D01*
X79866500Y-130742649D01*
X79873009Y-130803196D01*
X79873011Y-130803204D01*
X79924110Y-130940202D01*
X79924112Y-130940207D01*
X80011738Y-131057261D01*
X80128792Y-131144887D01*
X80128794Y-131144888D01*
X80128796Y-131144889D01*
X80180243Y-131164078D01*
X80265795Y-131195988D01*
X80265803Y-131195990D01*
X80326350Y-131202499D01*
X80326355Y-131202499D01*
X80326362Y-131202500D01*
X80326368Y-131202500D01*
X82223632Y-131202500D01*
X82223638Y-131202500D01*
X82223645Y-131202499D01*
X82223649Y-131202499D01*
X82284196Y-131195990D01*
X82284199Y-131195989D01*
X82284201Y-131195989D01*
X82293261Y-131192610D01*
X82307813Y-131187182D01*
X82421204Y-131144889D01*
X82422352Y-131144030D01*
X82538261Y-131057261D01*
X82625886Y-130940208D01*
X82625885Y-130940208D01*
X82625889Y-130940204D01*
X82649258Y-130877547D01*
X82691804Y-130820715D01*
X82758325Y-130795904D01*
X82827699Y-130810996D01*
X82853294Y-130830996D01*
X82853946Y-130830289D01*
X82857778Y-130833817D01*
X82913933Y-130877524D01*
X83041983Y-130977190D01*
X83247273Y-131088287D01*
X83468049Y-131164080D01*
X83698288Y-131202500D01*
X83698292Y-131202500D01*
X83931708Y-131202500D01*
X83931712Y-131202500D01*
X84161951Y-131164080D01*
X84174165Y-131159886D01*
X84182269Y-131157105D01*
X84253194Y-131153903D01*
X84312278Y-131187182D01*
X87879753Y-134754657D01*
X87889720Y-134767097D01*
X87889947Y-134766910D01*
X87894999Y-134773017D01*
X87946095Y-134820999D01*
X87967225Y-134842130D01*
X87972768Y-134846430D01*
X87977281Y-134850285D01*
X88011679Y-134882586D01*
X88011680Y-134882586D01*
X88011682Y-134882588D01*
X88029429Y-134892344D01*
X88045959Y-134903202D01*
X88061959Y-134915613D01*
X88084925Y-134925551D01*
X88105251Y-134934347D01*
X88110585Y-134936959D01*
X88151940Y-134959695D01*
X88171562Y-134964733D01*
X88190263Y-134971135D01*
X88208855Y-134979181D01*
X88255470Y-134986563D01*
X88261242Y-134987758D01*
X88306970Y-134999500D01*
X88327231Y-134999500D01*
X88346939Y-135001050D01*
X88366943Y-135004219D01*
X88401464Y-135000956D01*
X88413910Y-134999780D01*
X88419842Y-134999500D01*
X92118147Y-134999500D01*
X92133988Y-135001249D01*
X92134016Y-135000956D01*
X92141902Y-135001700D01*
X92141909Y-135001702D01*
X92211958Y-134999500D01*
X92241856Y-134999500D01*
X92248818Y-134998619D01*
X92254719Y-134998154D01*
X92301889Y-134996673D01*
X92321347Y-134991019D01*
X92340694Y-134987013D01*
X92360797Y-134984474D01*
X92404679Y-134967099D01*
X92410274Y-134965183D01*
X92438816Y-134956891D01*
X92455591Y-134952019D01*
X92455595Y-134952017D01*
X92473026Y-134941708D01*
X92490780Y-134933009D01*
X92509617Y-134925552D01*
X92547786Y-134897818D01*
X92552744Y-134894562D01*
X92593362Y-134870542D01*
X92607685Y-134856218D01*
X92622724Y-134843374D01*
X92624431Y-134842134D01*
X92639107Y-134831472D01*
X92669193Y-134795103D01*
X92673161Y-134790741D01*
X93823902Y-133640000D01*
X132396835Y-133640000D01*
X132415465Y-133876710D01*
X132470894Y-134107592D01*
X132561759Y-134326961D01*
X132685825Y-134529417D01*
X132685826Y-134529419D01*
X132840030Y-134709969D01*
X133020580Y-134864173D01*
X133020584Y-134864176D01*
X133223037Y-134988240D01*
X133442406Y-135079105D01*
X133673289Y-135134535D01*
X133910000Y-135153165D01*
X134146711Y-135134535D01*
X134377594Y-135079105D01*
X134596963Y-134988240D01*
X134799416Y-134864176D01*
X134979969Y-134709969D01*
X135134176Y-134529416D01*
X135258240Y-134326963D01*
X135349105Y-134107594D01*
X135404535Y-133876711D01*
X135423165Y-133640000D01*
X138896835Y-133640000D01*
X138915465Y-133876710D01*
X138970894Y-134107592D01*
X139061759Y-134326961D01*
X139185825Y-134529417D01*
X139185826Y-134529419D01*
X139340030Y-134709969D01*
X139520580Y-134864173D01*
X139520584Y-134864176D01*
X139723037Y-134988240D01*
X139942406Y-135079105D01*
X140173289Y-135134535D01*
X140410000Y-135153165D01*
X140646711Y-135134535D01*
X140877594Y-135079105D01*
X141096963Y-134988240D01*
X141299416Y-134864176D01*
X141479969Y-134709969D01*
X141634176Y-134529416D01*
X141758240Y-134326963D01*
X141849105Y-134107594D01*
X141904535Y-133876711D01*
X141923165Y-133640000D01*
X145096835Y-133640000D01*
X145115465Y-133876710D01*
X145170894Y-134107592D01*
X145261759Y-134326961D01*
X145385825Y-134529417D01*
X145385826Y-134529419D01*
X145540030Y-134709969D01*
X145720580Y-134864173D01*
X145720584Y-134864176D01*
X145923037Y-134988240D01*
X146142406Y-135079105D01*
X146373289Y-135134535D01*
X146610000Y-135153165D01*
X146846711Y-135134535D01*
X147077594Y-135079105D01*
X147296963Y-134988240D01*
X147499416Y-134864176D01*
X147679969Y-134709969D01*
X147834176Y-134529416D01*
X147958240Y-134326963D01*
X148049105Y-134107594D01*
X148104535Y-133876711D01*
X148123165Y-133640000D01*
X151596835Y-133640000D01*
X151615465Y-133876710D01*
X151670894Y-134107592D01*
X151761759Y-134326961D01*
X151885825Y-134529417D01*
X151885826Y-134529419D01*
X152040030Y-134709969D01*
X152220580Y-134864173D01*
X152220584Y-134864176D01*
X152423037Y-134988240D01*
X152642406Y-135079105D01*
X152873289Y-135134535D01*
X153110000Y-135153165D01*
X153346711Y-135134535D01*
X153577594Y-135079105D01*
X153796963Y-134988240D01*
X153999416Y-134864176D01*
X154179969Y-134709969D01*
X154334176Y-134529416D01*
X154458240Y-134326963D01*
X154549105Y-134107594D01*
X154604535Y-133876711D01*
X154623165Y-133640000D01*
X157796835Y-133640000D01*
X157815465Y-133876710D01*
X157870894Y-134107592D01*
X157961759Y-134326961D01*
X158085825Y-134529417D01*
X158085826Y-134529419D01*
X158240030Y-134709969D01*
X158420580Y-134864173D01*
X158420584Y-134864176D01*
X158623037Y-134988240D01*
X158842406Y-135079105D01*
X159073289Y-135134535D01*
X159310000Y-135153165D01*
X159546711Y-135134535D01*
X159777594Y-135079105D01*
X159996963Y-134988240D01*
X160199416Y-134864176D01*
X160379969Y-134709969D01*
X160534176Y-134529416D01*
X160658240Y-134326963D01*
X160749105Y-134107594D01*
X160804535Y-133876711D01*
X160823165Y-133640000D01*
X164296835Y-133640000D01*
X164315465Y-133876710D01*
X164370894Y-134107592D01*
X164461759Y-134326961D01*
X164585825Y-134529417D01*
X164585826Y-134529419D01*
X164740030Y-134709969D01*
X164920580Y-134864173D01*
X164920584Y-134864176D01*
X165123037Y-134988240D01*
X165342406Y-135079105D01*
X165573289Y-135134535D01*
X165810000Y-135153165D01*
X166046711Y-135134535D01*
X166277594Y-135079105D01*
X166496963Y-134988240D01*
X166699416Y-134864176D01*
X166879969Y-134709969D01*
X167034176Y-134529416D01*
X167158240Y-134326963D01*
X167249105Y-134107594D01*
X167304535Y-133876711D01*
X167323165Y-133640000D01*
X167304535Y-133403289D01*
X167249105Y-133172406D01*
X167158240Y-132953037D01*
X167034176Y-132750584D01*
X167034173Y-132750580D01*
X166879969Y-132570030D01*
X166699419Y-132415826D01*
X166699417Y-132415825D01*
X166699416Y-132415824D01*
X166496963Y-132291760D01*
X166406966Y-132254482D01*
X166277592Y-132200894D01*
X166119651Y-132162976D01*
X166046711Y-132145465D01*
X165810000Y-132126835D01*
X165573289Y-132145465D01*
X165342407Y-132200894D01*
X165123038Y-132291759D01*
X164920582Y-132415825D01*
X164920580Y-132415826D01*
X164740030Y-132570030D01*
X164585826Y-132750580D01*
X164585825Y-132750582D01*
X164461759Y-132953038D01*
X164370894Y-133172407D01*
X164315465Y-133403289D01*
X164296835Y-133640000D01*
X160823165Y-133640000D01*
X160804535Y-133403289D01*
X160749105Y-133172406D01*
X160658240Y-132953037D01*
X160534176Y-132750584D01*
X160534173Y-132750580D01*
X160379969Y-132570030D01*
X160199419Y-132415826D01*
X160199417Y-132415825D01*
X160199416Y-132415824D01*
X159996963Y-132291760D01*
X159906966Y-132254482D01*
X159777592Y-132200894D01*
X159619651Y-132162976D01*
X159546711Y-132145465D01*
X159310000Y-132126835D01*
X159073289Y-132145465D01*
X158842407Y-132200894D01*
X158623038Y-132291759D01*
X158420582Y-132415825D01*
X158420580Y-132415826D01*
X158240030Y-132570030D01*
X158085826Y-132750580D01*
X158085825Y-132750582D01*
X157961759Y-132953038D01*
X157870894Y-133172407D01*
X157815465Y-133403289D01*
X157796835Y-133640000D01*
X154623165Y-133640000D01*
X154604535Y-133403289D01*
X154549105Y-133172406D01*
X154458240Y-132953037D01*
X154334176Y-132750584D01*
X154334173Y-132750580D01*
X154179969Y-132570030D01*
X153999419Y-132415826D01*
X153999417Y-132415825D01*
X153999416Y-132415824D01*
X153796963Y-132291760D01*
X153706966Y-132254482D01*
X153577592Y-132200894D01*
X153419651Y-132162976D01*
X153346711Y-132145465D01*
X153110000Y-132126835D01*
X152873289Y-132145465D01*
X152642407Y-132200894D01*
X152423038Y-132291759D01*
X152220582Y-132415825D01*
X152220580Y-132415826D01*
X152040030Y-132570030D01*
X151885826Y-132750580D01*
X151885825Y-132750582D01*
X151761759Y-132953038D01*
X151670894Y-133172407D01*
X151615465Y-133403289D01*
X151596835Y-133640000D01*
X148123165Y-133640000D01*
X148104535Y-133403289D01*
X148049105Y-133172406D01*
X147958240Y-132953037D01*
X147834176Y-132750584D01*
X147834173Y-132750580D01*
X147679969Y-132570030D01*
X147499419Y-132415826D01*
X147499417Y-132415825D01*
X147499416Y-132415824D01*
X147296963Y-132291760D01*
X147206966Y-132254482D01*
X147077592Y-132200894D01*
X146919651Y-132162976D01*
X146846711Y-132145465D01*
X146610000Y-132126835D01*
X146373289Y-132145465D01*
X146142407Y-132200894D01*
X145923038Y-132291759D01*
X145720582Y-132415825D01*
X145720580Y-132415826D01*
X145540030Y-132570030D01*
X145385826Y-132750580D01*
X145385825Y-132750582D01*
X145261759Y-132953038D01*
X145170894Y-133172407D01*
X145115465Y-133403289D01*
X145096835Y-133640000D01*
X141923165Y-133640000D01*
X141904535Y-133403289D01*
X141849105Y-133172406D01*
X141758240Y-132953037D01*
X141634176Y-132750584D01*
X141634173Y-132750580D01*
X141479969Y-132570030D01*
X141299419Y-132415826D01*
X141299417Y-132415825D01*
X141299416Y-132415824D01*
X141096963Y-132291760D01*
X141006966Y-132254482D01*
X140877592Y-132200894D01*
X140719651Y-132162976D01*
X140646711Y-132145465D01*
X140410000Y-132126835D01*
X140173289Y-132145465D01*
X139942407Y-132200894D01*
X139723038Y-132291759D01*
X139520582Y-132415825D01*
X139520580Y-132415826D01*
X139340030Y-132570030D01*
X139185826Y-132750580D01*
X139185825Y-132750582D01*
X139061759Y-132953038D01*
X138970894Y-133172407D01*
X138915465Y-133403289D01*
X138896835Y-133640000D01*
X135423165Y-133640000D01*
X135404535Y-133403289D01*
X135349105Y-133172406D01*
X135258240Y-132953037D01*
X135134176Y-132750584D01*
X135134173Y-132750580D01*
X134979969Y-132570030D01*
X134799419Y-132415826D01*
X134799417Y-132415825D01*
X134799416Y-132415824D01*
X134596963Y-132291760D01*
X134506966Y-132254482D01*
X134377592Y-132200894D01*
X134219651Y-132162976D01*
X134146711Y-132145465D01*
X133910000Y-132126835D01*
X133673289Y-132145465D01*
X133442407Y-132200894D01*
X133223038Y-132291759D01*
X133020582Y-132415825D01*
X133020580Y-132415826D01*
X132840030Y-132570030D01*
X132685826Y-132750580D01*
X132685825Y-132750582D01*
X132561759Y-132953038D01*
X132470894Y-133172407D01*
X132415465Y-133403289D01*
X132396835Y-133640000D01*
X93823902Y-133640000D01*
X95892657Y-131571245D01*
X95905092Y-131561284D01*
X95904905Y-131561057D01*
X95911009Y-131556005D01*
X95911018Y-131556000D01*
X95958999Y-131504904D01*
X95980134Y-131483770D01*
X95984429Y-131478232D01*
X95988271Y-131473731D01*
X96020586Y-131439321D01*
X96030345Y-131421567D01*
X96041197Y-131405046D01*
X96053613Y-131389041D01*
X96072347Y-131345748D01*
X96074961Y-131340412D01*
X96097694Y-131299061D01*
X96097695Y-131299060D01*
X96102733Y-131279435D01*
X96109138Y-131260730D01*
X96117181Y-131242145D01*
X96124561Y-131195547D01*
X96125762Y-131189740D01*
X96137500Y-131144030D01*
X96137500Y-131123775D01*
X96139051Y-131104063D01*
X96142220Y-131084057D01*
X96137875Y-131038086D01*
X96137780Y-131037080D01*
X96137500Y-131031148D01*
X96137500Y-124520593D01*
X96157502Y-124452472D01*
X96174400Y-124431503D01*
X107792999Y-112812903D01*
X107855309Y-112778879D01*
X107882092Y-112776000D01*
X108788884Y-112776000D01*
X108760507Y-112820156D01*
X108720000Y-112958111D01*
X108720000Y-113101889D01*
X108760507Y-113239844D01*
X108788884Y-113284000D01*
X107912001Y-113284000D01*
X107912001Y-113687221D01*
X107918481Y-113758553D01*
X107969633Y-113922706D01*
X108058578Y-114069840D01*
X108058586Y-114069850D01*
X108180149Y-114191413D01*
X108180159Y-114191421D01*
X108327294Y-114280366D01*
X108395946Y-114301759D01*
X108455032Y-114341121D01*
X108483457Y-114406179D01*
X108472197Y-114476277D01*
X108430733Y-114525266D01*
X108375706Y-114563797D01*
X108375697Y-114563804D01*
X108213804Y-114725697D01*
X108213799Y-114725703D01*
X108082477Y-114913250D01*
X107985717Y-115120753D01*
X107985715Y-115120759D01*
X107926457Y-115341913D01*
X107906502Y-115570000D01*
X107926457Y-115798086D01*
X107985715Y-116019240D01*
X107985717Y-116019246D01*
X108082477Y-116226749D01*
X108209334Y-116407920D01*
X108213802Y-116414300D01*
X108375700Y-116576198D01*
X108563251Y-116707523D01*
X108598359Y-116723894D01*
X108602457Y-116725805D01*
X108655742Y-116772722D01*
X108675203Y-116840999D01*
X108654661Y-116908959D01*
X108602457Y-116954195D01*
X108563250Y-116972477D01*
X108375703Y-117103799D01*
X108375697Y-117103804D01*
X108213804Y-117265697D01*
X108213799Y-117265703D01*
X108082477Y-117453250D01*
X107985717Y-117660753D01*
X107985715Y-117660759D01*
X107926457Y-117881913D01*
X107906502Y-118110000D01*
X107926457Y-118338086D01*
X107985715Y-118559240D01*
X107985717Y-118559246D01*
X108040629Y-118677005D01*
X108082477Y-118766749D01*
X108213802Y-118954300D01*
X108375700Y-119116198D01*
X108563251Y-119247523D01*
X108581514Y-119256039D01*
X108602457Y-119265805D01*
X108655742Y-119312722D01*
X108675203Y-119380999D01*
X108654661Y-119448959D01*
X108602457Y-119494195D01*
X108563250Y-119512477D01*
X108375703Y-119643799D01*
X108375697Y-119643804D01*
X108213804Y-119805697D01*
X108213799Y-119805703D01*
X108082477Y-119993250D01*
X107985717Y-120200753D01*
X107985716Y-120200757D01*
X107926457Y-120421913D01*
X107906502Y-120650000D01*
X107926457Y-120878087D01*
X107985716Y-121099243D01*
X108082477Y-121306749D01*
X108213802Y-121494300D01*
X108375700Y-121656198D01*
X108563251Y-121787523D01*
X108581516Y-121796040D01*
X108602457Y-121805805D01*
X108655742Y-121852722D01*
X108675203Y-121920999D01*
X108654661Y-121988959D01*
X108602457Y-122034195D01*
X108563250Y-122052477D01*
X108375703Y-122183799D01*
X108375697Y-122183804D01*
X108213804Y-122345697D01*
X108213799Y-122345703D01*
X108082477Y-122533250D01*
X107985717Y-122740753D01*
X107985715Y-122740759D01*
X107952436Y-122864958D01*
X107926457Y-122961913D01*
X107906502Y-123190000D01*
X107926457Y-123418087D01*
X107935652Y-123452404D01*
X107985715Y-123639240D01*
X107985717Y-123639246D01*
X108082477Y-123846749D01*
X108169439Y-123970944D01*
X108213802Y-124034300D01*
X108375700Y-124196198D01*
X108375703Y-124196200D01*
X108430732Y-124234732D01*
X108475060Y-124290189D01*
X108482369Y-124360808D01*
X108450338Y-124424169D01*
X108395947Y-124458240D01*
X108327293Y-124479633D01*
X108180159Y-124568578D01*
X108180149Y-124568586D01*
X108058586Y-124690149D01*
X108058578Y-124690159D01*
X107969633Y-124837293D01*
X107918481Y-125001446D01*
X107918481Y-125001447D01*
X107912000Y-125072777D01*
X107912000Y-125476000D01*
X108788884Y-125476000D01*
X108760507Y-125520156D01*
X108720000Y-125658111D01*
X108720000Y-125801889D01*
X108760507Y-125939844D01*
X108788884Y-125984000D01*
X107912001Y-125984000D01*
X107912001Y-126387221D01*
X107918481Y-126458553D01*
X107969633Y-126622706D01*
X108058578Y-126769840D01*
X108058586Y-126769850D01*
X108180149Y-126891413D01*
X108180159Y-126891421D01*
X108327294Y-126980366D01*
X108395946Y-127001759D01*
X108455032Y-127041121D01*
X108483457Y-127106179D01*
X108472197Y-127176277D01*
X108430733Y-127225266D01*
X108375706Y-127263797D01*
X108375697Y-127263804D01*
X108213804Y-127425697D01*
X108213799Y-127425703D01*
X108082477Y-127613250D01*
X107985717Y-127820753D01*
X107985715Y-127820759D01*
X107940102Y-127990989D01*
X107926457Y-128041913D01*
X107906502Y-128270000D01*
X107926457Y-128498087D01*
X107931384Y-128516473D01*
X107985715Y-128719240D01*
X107985717Y-128719246D01*
X108016283Y-128784795D01*
X108082477Y-128926749D01*
X108213802Y-129114300D01*
X108375700Y-129276198D01*
X108563251Y-129407523D01*
X108588089Y-129419105D01*
X108602457Y-129425805D01*
X108655742Y-129472722D01*
X108675203Y-129540999D01*
X108654661Y-129608959D01*
X108602457Y-129654195D01*
X108563250Y-129672477D01*
X108375703Y-129803799D01*
X108375697Y-129803804D01*
X108213804Y-129965697D01*
X108213799Y-129965703D01*
X108082477Y-130153250D01*
X107985717Y-130360753D01*
X107985715Y-130360759D01*
X107931384Y-130563524D01*
X107926457Y-130581913D01*
X107906502Y-130810000D01*
X107926457Y-131038087D01*
X107944135Y-131104063D01*
X107985715Y-131259240D01*
X107985717Y-131259246D01*
X108082477Y-131466749D01*
X108155649Y-131571250D01*
X108213802Y-131654300D01*
X108375700Y-131816198D01*
X108563251Y-131947523D01*
X108770757Y-132044284D01*
X108991913Y-132103543D01*
X109220000Y-132123498D01*
X109448087Y-132103543D01*
X109669243Y-132044284D01*
X109876749Y-131947523D01*
X110064300Y-131816198D01*
X110226198Y-131654300D01*
X110357523Y-131466749D01*
X110454284Y-131259243D01*
X110513543Y-131038087D01*
X110533498Y-130810000D01*
X121321807Y-130810000D01*
X121340542Y-131024142D01*
X121372663Y-131144019D01*
X121396177Y-131231774D01*
X121396179Y-131231780D01*
X121487024Y-131426597D01*
X121581332Y-131561284D01*
X121610319Y-131602681D01*
X121762319Y-131754681D01*
X121938403Y-131877976D01*
X122133223Y-131968822D01*
X122340858Y-132024458D01*
X122555000Y-132043193D01*
X122769142Y-132024458D01*
X122976777Y-131968822D01*
X123171597Y-131877976D01*
X123347681Y-131754681D01*
X123499681Y-131602681D01*
X123622976Y-131426597D01*
X123713822Y-131231777D01*
X123769458Y-131024142D01*
X123788193Y-130810000D01*
X123769458Y-130595858D01*
X123713822Y-130388223D01*
X123622976Y-130193404D01*
X123622975Y-130193403D01*
X123622974Y-130193400D01*
X123499685Y-130017323D01*
X123499682Y-130017320D01*
X123448059Y-129965697D01*
X123347681Y-129865319D01*
X123259825Y-129803802D01*
X123171597Y-129742024D01*
X122976780Y-129651179D01*
X122976774Y-129651177D01*
X122889019Y-129627663D01*
X122769142Y-129595542D01*
X122555000Y-129576807D01*
X122340858Y-129595542D01*
X122133225Y-129651177D01*
X122133220Y-129651179D01*
X121938400Y-129742025D01*
X121762323Y-129865314D01*
X121762313Y-129865323D01*
X121610323Y-130017313D01*
X121610314Y-130017323D01*
X121487025Y-130193400D01*
X121396179Y-130388220D01*
X121396178Y-130388223D01*
X121340542Y-130595858D01*
X121321807Y-130810000D01*
X110533498Y-130810000D01*
X110513543Y-130581913D01*
X110454284Y-130360757D01*
X110357523Y-130153251D01*
X110226198Y-129965700D01*
X110064300Y-129803802D01*
X110050301Y-129794000D01*
X110001998Y-129760177D01*
X109876749Y-129672477D01*
X109837543Y-129654195D01*
X109784258Y-129607279D01*
X109764796Y-129539002D01*
X109785337Y-129471042D01*
X109837543Y-129425805D01*
X109851911Y-129419105D01*
X109876749Y-129407523D01*
X110064300Y-129276198D01*
X110226198Y-129114300D01*
X110357523Y-128926749D01*
X110454284Y-128719243D01*
X110513543Y-128498087D01*
X110533498Y-128270000D01*
X118782309Y-128270000D01*
X118801036Y-128484052D01*
X118856648Y-128691603D01*
X118856650Y-128691607D01*
X118947459Y-128886347D01*
X118985340Y-128940447D01*
X119616272Y-128309515D01*
X119629835Y-128395148D01*
X119687359Y-128508045D01*
X119776955Y-128597641D01*
X119889852Y-128655165D01*
X119975482Y-128668727D01*
X119344551Y-129299659D01*
X119344551Y-129299660D01*
X119398650Y-129337540D01*
X119593391Y-129428349D01*
X119593396Y-129428351D01*
X119800947Y-129483963D01*
X120015000Y-129502690D01*
X120229052Y-129483963D01*
X120436603Y-129428351D01*
X120436608Y-129428349D01*
X120631345Y-129337542D01*
X120685447Y-129299659D01*
X120685447Y-129299658D01*
X120054517Y-128668727D01*
X120140148Y-128655165D01*
X120253045Y-128597641D01*
X120342641Y-128508045D01*
X120400165Y-128395148D01*
X120413727Y-128309516D01*
X121044658Y-128940447D01*
X121044659Y-128940447D01*
X121082542Y-128886345D01*
X121173349Y-128691608D01*
X121173351Y-128691603D01*
X121228963Y-128484052D01*
X121247690Y-128270000D01*
X123861807Y-128270000D01*
X123880542Y-128484142D01*
X123893028Y-128530739D01*
X123936177Y-128691774D01*
X123936179Y-128691780D01*
X123979553Y-128784795D01*
X124027024Y-128886597D01*
X124150319Y-129062681D01*
X124302319Y-129214681D01*
X124478403Y-129337976D01*
X124673223Y-129428822D01*
X124880858Y-129484458D01*
X125095000Y-129503193D01*
X125309142Y-129484458D01*
X125516777Y-129428822D01*
X125711597Y-129337976D01*
X125887681Y-129214681D01*
X126039681Y-129062681D01*
X126162976Y-128886597D01*
X126253822Y-128691777D01*
X126309458Y-128484142D01*
X126328193Y-128270000D01*
X126309458Y-128055858D01*
X126289132Y-127980000D01*
X145096835Y-127980000D01*
X145115465Y-128216711D01*
X145118690Y-128230144D01*
X145170894Y-128447592D01*
X145205335Y-128530739D01*
X145261760Y-128666963D01*
X145371076Y-128845350D01*
X145385825Y-128869417D01*
X145385826Y-128869419D01*
X145540030Y-129049969D01*
X145720580Y-129204173D01*
X145720584Y-129204176D01*
X145923037Y-129328240D01*
X146142406Y-129419105D01*
X146373289Y-129474535D01*
X146610000Y-129493165D01*
X146846711Y-129474535D01*
X147077594Y-129419105D01*
X147296963Y-129328240D01*
X147499416Y-129204176D01*
X147679969Y-129049969D01*
X147834176Y-128869416D01*
X147958240Y-128666963D01*
X148049105Y-128447594D01*
X148104535Y-128216711D01*
X148123165Y-127980000D01*
X151596835Y-127980000D01*
X151615465Y-128216711D01*
X151618690Y-128230144D01*
X151670894Y-128447592D01*
X151705335Y-128530739D01*
X151761760Y-128666963D01*
X151871076Y-128845350D01*
X151885825Y-128869417D01*
X151885826Y-128869419D01*
X152040030Y-129049969D01*
X152220580Y-129204173D01*
X152220584Y-129204176D01*
X152423037Y-129328240D01*
X152642406Y-129419105D01*
X152873289Y-129474535D01*
X153110000Y-129493165D01*
X153346711Y-129474535D01*
X153577594Y-129419105D01*
X153796963Y-129328240D01*
X153999416Y-129204176D01*
X154179969Y-129049969D01*
X154334176Y-128869416D01*
X154458240Y-128666963D01*
X154549105Y-128447594D01*
X154604535Y-128216711D01*
X154623165Y-127980000D01*
X154604535Y-127743289D01*
X154549105Y-127512406D01*
X154458240Y-127293037D01*
X154334176Y-127090584D01*
X154334173Y-127090580D01*
X154179969Y-126910030D01*
X153999419Y-126755826D01*
X153999417Y-126755825D01*
X153999416Y-126755824D01*
X153796963Y-126631760D01*
X153718091Y-126599090D01*
X153577592Y-126540894D01*
X153419651Y-126502976D01*
X153346711Y-126485465D01*
X153110000Y-126466835D01*
X152873289Y-126485465D01*
X152642407Y-126540894D01*
X152423038Y-126631759D01*
X152220582Y-126755825D01*
X152220580Y-126755826D01*
X152040030Y-126910030D01*
X151885826Y-127090580D01*
X151885825Y-127090582D01*
X151761759Y-127293038D01*
X151670894Y-127512407D01*
X151637045Y-127653400D01*
X151615465Y-127743289D01*
X151596835Y-127980000D01*
X148123165Y-127980000D01*
X148104535Y-127743289D01*
X148049105Y-127512406D01*
X147958240Y-127293037D01*
X147834176Y-127090584D01*
X147834173Y-127090580D01*
X147679969Y-126910030D01*
X147499419Y-126755826D01*
X147499417Y-126755825D01*
X147499416Y-126755824D01*
X147296963Y-126631760D01*
X147218091Y-126599090D01*
X147077592Y-126540894D01*
X146919651Y-126502976D01*
X146846711Y-126485465D01*
X146610000Y-126466835D01*
X146373289Y-126485465D01*
X146142407Y-126540894D01*
X145923038Y-126631759D01*
X145720582Y-126755825D01*
X145720580Y-126755826D01*
X145540030Y-126910030D01*
X145385826Y-127090580D01*
X145385825Y-127090582D01*
X145261759Y-127293038D01*
X145170894Y-127512407D01*
X145137045Y-127653400D01*
X145115465Y-127743289D01*
X145096835Y-127980000D01*
X126289132Y-127980000D01*
X126253822Y-127848223D01*
X126162976Y-127653404D01*
X126162975Y-127653403D01*
X126162974Y-127653400D01*
X126039685Y-127477323D01*
X126039682Y-127477320D01*
X125988059Y-127425697D01*
X125887681Y-127325319D01*
X125841577Y-127293037D01*
X125711597Y-127202024D01*
X125516780Y-127111179D01*
X125516774Y-127111177D01*
X125429019Y-127087663D01*
X125309142Y-127055542D01*
X125095000Y-127036807D01*
X124880858Y-127055542D01*
X124673225Y-127111177D01*
X124673220Y-127111179D01*
X124478400Y-127202025D01*
X124302323Y-127325314D01*
X124302313Y-127325323D01*
X124150323Y-127477313D01*
X124150314Y-127477323D01*
X124027025Y-127653400D01*
X123936179Y-127848220D01*
X123936177Y-127848225D01*
X123898654Y-127988264D01*
X123880542Y-128055858D01*
X123861807Y-128270000D01*
X121247690Y-128270000D01*
X121228963Y-128055947D01*
X121173351Y-127848396D01*
X121173349Y-127848392D01*
X121082542Y-127653655D01*
X121044658Y-127599552D01*
X121044656Y-127599552D01*
X120413727Y-128230481D01*
X120400165Y-128144852D01*
X120342641Y-128031955D01*
X120253045Y-127942359D01*
X120140148Y-127884835D01*
X120054515Y-127871272D01*
X120685447Y-127240340D01*
X120631347Y-127202459D01*
X120436607Y-127111650D01*
X120436603Y-127111648D01*
X120229052Y-127056036D01*
X120015000Y-127037309D01*
X119800947Y-127056036D01*
X119593396Y-127111648D01*
X119593392Y-127111650D01*
X119398651Y-127202459D01*
X119344552Y-127240339D01*
X119344552Y-127240340D01*
X119975484Y-127871272D01*
X119889852Y-127884835D01*
X119776955Y-127942359D01*
X119687359Y-128031955D01*
X119629835Y-128144852D01*
X119616272Y-128230484D01*
X118985340Y-127599552D01*
X118985339Y-127599552D01*
X118947459Y-127653651D01*
X118856650Y-127848392D01*
X118856648Y-127848396D01*
X118801036Y-128055947D01*
X118782309Y-128270000D01*
X110533498Y-128270000D01*
X110513543Y-128041913D01*
X110454284Y-127820757D01*
X110357523Y-127613251D01*
X110226198Y-127425700D01*
X110064300Y-127263802D01*
X110030793Y-127240340D01*
X110009267Y-127225267D01*
X109964939Y-127169810D01*
X109957630Y-127099190D01*
X109989661Y-127035830D01*
X110044054Y-127001759D01*
X110112703Y-126980367D01*
X110112704Y-126980367D01*
X110259840Y-126891421D01*
X110259850Y-126891413D01*
X110381413Y-126769850D01*
X110381421Y-126769840D01*
X110470366Y-126622706D01*
X110521518Y-126458553D01*
X110521518Y-126458552D01*
X110528000Y-126387222D01*
X110528000Y-125984000D01*
X109651116Y-125984000D01*
X109679493Y-125939844D01*
X109720000Y-125801889D01*
X109720000Y-125658111D01*
X109679493Y-125520156D01*
X109651116Y-125476000D01*
X110527999Y-125476000D01*
X110527999Y-125072778D01*
X110521518Y-125001446D01*
X110470366Y-124837293D01*
X110381421Y-124690159D01*
X110381413Y-124690149D01*
X110259850Y-124568586D01*
X110259840Y-124568578D01*
X110112706Y-124479633D01*
X110044052Y-124458240D01*
X109984967Y-124418877D01*
X109956542Y-124353819D01*
X109967802Y-124283721D01*
X110009266Y-124234733D01*
X110064300Y-124196198D01*
X110226198Y-124034300D01*
X110357523Y-123846749D01*
X110454284Y-123639243D01*
X110496953Y-123480000D01*
X145096835Y-123480000D01*
X145115465Y-123716710D01*
X145170894Y-123947592D01*
X145223443Y-124074456D01*
X145261760Y-124166963D01*
X145337273Y-124290189D01*
X145385825Y-124369417D01*
X145385826Y-124369419D01*
X145540030Y-124549969D01*
X145704172Y-124690159D01*
X145720584Y-124704176D01*
X145923037Y-124828240D01*
X146142406Y-124919105D01*
X146373289Y-124974535D01*
X146610000Y-124993165D01*
X146846711Y-124974535D01*
X147077594Y-124919105D01*
X147296963Y-124828240D01*
X147499416Y-124704176D01*
X147679969Y-124549969D01*
X147834176Y-124369416D01*
X147958240Y-124166963D01*
X148049105Y-123947594D01*
X148104535Y-123716711D01*
X148123165Y-123480000D01*
X151596835Y-123480000D01*
X151615465Y-123716710D01*
X151670894Y-123947592D01*
X151723443Y-124074456D01*
X151761760Y-124166963D01*
X151837273Y-124290189D01*
X151885825Y-124369417D01*
X151885826Y-124369419D01*
X152040030Y-124549969D01*
X152204172Y-124690159D01*
X152220584Y-124704176D01*
X152423037Y-124828240D01*
X152642406Y-124919105D01*
X152873289Y-124974535D01*
X153110000Y-124993165D01*
X153346711Y-124974535D01*
X153577594Y-124919105D01*
X153796963Y-124828240D01*
X153999416Y-124704176D01*
X154179969Y-124549969D01*
X154334176Y-124369416D01*
X154458240Y-124166963D01*
X154549105Y-123947594D01*
X154604535Y-123716711D01*
X154623165Y-123480000D01*
X154604535Y-123243289D01*
X154549105Y-123012406D01*
X154458240Y-122793037D01*
X154334176Y-122590584D01*
X154285209Y-122533251D01*
X154179969Y-122410030D01*
X153999419Y-122255826D01*
X153999417Y-122255825D01*
X153999416Y-122255824D01*
X153796963Y-122131760D01*
X153605554Y-122052476D01*
X153577592Y-122040894D01*
X153394924Y-121997040D01*
X153346711Y-121985465D01*
X153110000Y-121966835D01*
X152873289Y-121985465D01*
X152642407Y-122040894D01*
X152423038Y-122131759D01*
X152220582Y-122255825D01*
X152220580Y-122255826D01*
X152040030Y-122410030D01*
X151885826Y-122590580D01*
X151885825Y-122590582D01*
X151761759Y-122793038D01*
X151670894Y-123012407D01*
X151615465Y-123243289D01*
X151596835Y-123480000D01*
X148123165Y-123480000D01*
X148104535Y-123243289D01*
X148049105Y-123012406D01*
X147958240Y-122793037D01*
X147834176Y-122590584D01*
X147785209Y-122533251D01*
X147679969Y-122410030D01*
X147499419Y-122255826D01*
X147499417Y-122255825D01*
X147499416Y-122255824D01*
X147296963Y-122131760D01*
X147105554Y-122052476D01*
X147077592Y-122040894D01*
X146894924Y-121997040D01*
X146846711Y-121985465D01*
X146610000Y-121966835D01*
X146373289Y-121985465D01*
X146142407Y-122040894D01*
X145923038Y-122131759D01*
X145720582Y-122255825D01*
X145720580Y-122255826D01*
X145540030Y-122410030D01*
X145385826Y-122590580D01*
X145385825Y-122590582D01*
X145261759Y-122793038D01*
X145170894Y-123012407D01*
X145115465Y-123243289D01*
X145096835Y-123480000D01*
X110496953Y-123480000D01*
X110513543Y-123418087D01*
X110533498Y-123190000D01*
X110513543Y-122961913D01*
X110454284Y-122740757D01*
X110357523Y-122533251D01*
X110226198Y-122345700D01*
X110064300Y-122183802D01*
X109876749Y-122052477D01*
X109837543Y-122034195D01*
X109784258Y-121987279D01*
X109764796Y-121919002D01*
X109785337Y-121851042D01*
X109837543Y-121805805D01*
X109839997Y-121804660D01*
X109876749Y-121787523D01*
X110064300Y-121656198D01*
X110226198Y-121494300D01*
X110357523Y-121306749D01*
X110454284Y-121099243D01*
X110513543Y-120878087D01*
X110533498Y-120650000D01*
X110513543Y-120421913D01*
X110454284Y-120200757D01*
X110357523Y-119993251D01*
X110226198Y-119805700D01*
X110064300Y-119643802D01*
X109876749Y-119512477D01*
X109837543Y-119494195D01*
X109784258Y-119447279D01*
X109764796Y-119379002D01*
X109785337Y-119311042D01*
X109837543Y-119265805D01*
X109839997Y-119264660D01*
X109876749Y-119247523D01*
X110064300Y-119116198D01*
X110226198Y-118954300D01*
X110336181Y-118797229D01*
X110391638Y-118752901D01*
X110439394Y-118743500D01*
X115486147Y-118743500D01*
X115501988Y-118745249D01*
X115502016Y-118744956D01*
X115509902Y-118745700D01*
X115509909Y-118745702D01*
X115579958Y-118743500D01*
X115609856Y-118743500D01*
X115616818Y-118742619D01*
X115622719Y-118742154D01*
X115669889Y-118740673D01*
X115689347Y-118735019D01*
X115708694Y-118731013D01*
X115728797Y-118728474D01*
X115772679Y-118711099D01*
X115778274Y-118709183D01*
X115806816Y-118700891D01*
X115823591Y-118696019D01*
X115823595Y-118696017D01*
X115841026Y-118685708D01*
X115858780Y-118677009D01*
X115877617Y-118669552D01*
X115915786Y-118641818D01*
X115920744Y-118638562D01*
X115961362Y-118614542D01*
X115975685Y-118600218D01*
X115990724Y-118587374D01*
X116007107Y-118575472D01*
X116037193Y-118539103D01*
X116041161Y-118534741D01*
X117735902Y-116840000D01*
X119591693Y-116840000D01*
X119610885Y-117059371D01*
X119622791Y-117103804D01*
X119667879Y-117272073D01*
X119667881Y-117272079D01*
X119753877Y-117456498D01*
X119760944Y-117471654D01*
X119887251Y-117652038D01*
X119887254Y-117652042D01*
X120042957Y-117807745D01*
X120042961Y-117807748D01*
X120042962Y-117807749D01*
X120223346Y-117934056D01*
X120422924Y-118027120D01*
X120635629Y-118084115D01*
X120855000Y-118103307D01*
X121074371Y-118084115D01*
X121287076Y-118027120D01*
X121486654Y-117934056D01*
X121667038Y-117807749D01*
X121822749Y-117652038D01*
X121949056Y-117471654D01*
X122042120Y-117272076D01*
X122099115Y-117059371D01*
X122118307Y-116840000D01*
X122991693Y-116840000D01*
X123010885Y-117059371D01*
X123022791Y-117103804D01*
X123067879Y-117272073D01*
X123067881Y-117272079D01*
X123153877Y-117456498D01*
X123160944Y-117471654D01*
X123287251Y-117652038D01*
X123287254Y-117652042D01*
X123442957Y-117807745D01*
X123442961Y-117807748D01*
X123442962Y-117807749D01*
X123623346Y-117934056D01*
X123822924Y-118027120D01*
X124035629Y-118084115D01*
X124255000Y-118103307D01*
X124474371Y-118084115D01*
X124687076Y-118027120D01*
X124886654Y-117934056D01*
X125067038Y-117807749D01*
X125222749Y-117652038D01*
X125349056Y-117471654D01*
X125442120Y-117272076D01*
X125499115Y-117059371D01*
X125518307Y-116840000D01*
X125499115Y-116620629D01*
X125442120Y-116407924D01*
X125349056Y-116208347D01*
X125222749Y-116027962D01*
X125067038Y-115872251D01*
X124886654Y-115745944D01*
X124886650Y-115745942D01*
X124687079Y-115652881D01*
X124687073Y-115652879D01*
X124597178Y-115628791D01*
X124474371Y-115595885D01*
X124255000Y-115576693D01*
X124035629Y-115595885D01*
X123822926Y-115652879D01*
X123822920Y-115652881D01*
X123623346Y-115745944D01*
X123442965Y-115872248D01*
X123442959Y-115872253D01*
X123287253Y-116027959D01*
X123287248Y-116027965D01*
X123160944Y-116208346D01*
X123067881Y-116407920D01*
X123067879Y-116407926D01*
X123066171Y-116414302D01*
X123010885Y-116620629D01*
X122991693Y-116840000D01*
X122118307Y-116840000D01*
X122099115Y-116620629D01*
X122042120Y-116407924D01*
X121949056Y-116208347D01*
X121822749Y-116027962D01*
X121667038Y-115872251D01*
X121486654Y-115745944D01*
X121486650Y-115745942D01*
X121287079Y-115652881D01*
X121287073Y-115652879D01*
X121197178Y-115628791D01*
X121074371Y-115595885D01*
X120855000Y-115576693D01*
X120635629Y-115595885D01*
X120422926Y-115652879D01*
X120422920Y-115652881D01*
X120223346Y-115745944D01*
X120042965Y-115872248D01*
X120042959Y-115872253D01*
X119887253Y-116027959D01*
X119887248Y-116027965D01*
X119760944Y-116208346D01*
X119667881Y-116407920D01*
X119667879Y-116407926D01*
X119666171Y-116414302D01*
X119610885Y-116620629D01*
X119591693Y-116840000D01*
X117735902Y-116840000D01*
X124974904Y-109601000D01*
X126983917Y-109601000D01*
X127958314Y-109601000D01*
X127942359Y-109616955D01*
X127884835Y-109729852D01*
X127865014Y-109855000D01*
X127884835Y-109980148D01*
X127942359Y-110093045D01*
X127958314Y-110109000D01*
X126983918Y-110109000D01*
X127036186Y-110304068D01*
X127036188Y-110304073D01*
X127132912Y-110511498D01*
X127264184Y-110698974D01*
X127264189Y-110698980D01*
X127426019Y-110860810D01*
X127426025Y-110860815D01*
X127613501Y-110992087D01*
X127820926Y-111088811D01*
X127820931Y-111088813D01*
X128016000Y-111141081D01*
X128016000Y-110166686D01*
X128031955Y-110182641D01*
X128144852Y-110240165D01*
X128238519Y-110255000D01*
X128301481Y-110255000D01*
X128395148Y-110240165D01*
X128508045Y-110182641D01*
X128524000Y-110166686D01*
X128524000Y-111141081D01*
X128719068Y-111088813D01*
X128719073Y-111088811D01*
X128926498Y-110992087D01*
X129113974Y-110860815D01*
X129113980Y-110860810D01*
X129275810Y-110698980D01*
X129275815Y-110698974D01*
X129407087Y-110511498D01*
X129503811Y-110304073D01*
X129503813Y-110304068D01*
X129556082Y-110109000D01*
X128581686Y-110109000D01*
X128597641Y-110093045D01*
X128655165Y-109980148D01*
X128674986Y-109855000D01*
X128655165Y-109729852D01*
X128597641Y-109616955D01*
X128581686Y-109601000D01*
X129556082Y-109601000D01*
X129503813Y-109405931D01*
X129503811Y-109405926D01*
X129407087Y-109198501D01*
X129275815Y-109011025D01*
X129275810Y-109011019D01*
X129113980Y-108849189D01*
X129113974Y-108849184D01*
X128926498Y-108717912D01*
X128719073Y-108621188D01*
X128719071Y-108621187D01*
X128524000Y-108568917D01*
X128524000Y-109543314D01*
X128508045Y-109527359D01*
X128395148Y-109469835D01*
X128301481Y-109455000D01*
X128238519Y-109455000D01*
X128144852Y-109469835D01*
X128031955Y-109527359D01*
X128016000Y-109543314D01*
X128016000Y-108568917D01*
X128015999Y-108568917D01*
X127820928Y-108621187D01*
X127820926Y-108621188D01*
X127613501Y-108717912D01*
X127426025Y-108849184D01*
X127426019Y-108849189D01*
X127264189Y-109011019D01*
X127264184Y-109011025D01*
X127132912Y-109198501D01*
X127036188Y-109405926D01*
X127036186Y-109405931D01*
X126983917Y-109601000D01*
X124974904Y-109601000D01*
X125045499Y-109530405D01*
X125107811Y-109496379D01*
X125134594Y-109493500D01*
X125190487Y-109493500D01*
X125377288Y-109453794D01*
X125551752Y-109376118D01*
X125706253Y-109263866D01*
X125800495Y-109159200D01*
X125834034Y-109121951D01*
X125834035Y-109121949D01*
X125834040Y-109121944D01*
X125929527Y-108956556D01*
X125988542Y-108774928D01*
X126008504Y-108585000D01*
X125988542Y-108395072D01*
X125929527Y-108213444D01*
X125834040Y-108048056D01*
X125834038Y-108048054D01*
X125834034Y-108048048D01*
X125706255Y-107906135D01*
X125551752Y-107793882D01*
X125377288Y-107716206D01*
X125190487Y-107676500D01*
X124999513Y-107676500D01*
X124812711Y-107716206D01*
X124638247Y-107793882D01*
X124483744Y-107906135D01*
X124355965Y-108048048D01*
X124355958Y-108048058D01*
X124260476Y-108213438D01*
X124260473Y-108213445D01*
X124201457Y-108395072D01*
X124184092Y-108560292D01*
X124157079Y-108625949D01*
X124147877Y-108636216D01*
X123368530Y-109415563D01*
X123345148Y-109428330D01*
X123339318Y-109443306D01*
X123328633Y-109455460D01*
X115344500Y-117439595D01*
X115282188Y-117473621D01*
X115255405Y-117476500D01*
X110439394Y-117476500D01*
X110371273Y-117456498D01*
X110336181Y-117422771D01*
X110230665Y-117272079D01*
X110226198Y-117265700D01*
X110064300Y-117103802D01*
X109876749Y-116972477D01*
X109837543Y-116954195D01*
X109784258Y-116907279D01*
X109764796Y-116839002D01*
X109785337Y-116771042D01*
X109837543Y-116725805D01*
X109839997Y-116724660D01*
X109876749Y-116707523D01*
X110064300Y-116576198D01*
X110226198Y-116414300D01*
X110336181Y-116257229D01*
X110391638Y-116212901D01*
X110439394Y-116203500D01*
X115486147Y-116203500D01*
X115501988Y-116205249D01*
X115502016Y-116204956D01*
X115509902Y-116205700D01*
X115509909Y-116205702D01*
X115579958Y-116203500D01*
X115609856Y-116203500D01*
X115616818Y-116202619D01*
X115622719Y-116202154D01*
X115669889Y-116200673D01*
X115689347Y-116195019D01*
X115708694Y-116191013D01*
X115728797Y-116188474D01*
X115772679Y-116171099D01*
X115778274Y-116169183D01*
X115806816Y-116160891D01*
X115823591Y-116156019D01*
X115823595Y-116156017D01*
X115841026Y-116145708D01*
X115858780Y-116137009D01*
X115877617Y-116129552D01*
X115915786Y-116101818D01*
X115920744Y-116098562D01*
X115961362Y-116074542D01*
X115975685Y-116060218D01*
X115990724Y-116047374D01*
X116007107Y-116035472D01*
X116037193Y-115999103D01*
X116041161Y-115994741D01*
X122505500Y-109530405D01*
X122567812Y-109496379D01*
X122594595Y-109493500D01*
X122650487Y-109493500D01*
X122837288Y-109453794D01*
X123011752Y-109376118D01*
X123165479Y-109264428D01*
X123171555Y-109262260D01*
X123185795Y-109242161D01*
X123294040Y-109121944D01*
X123389527Y-108956556D01*
X123448542Y-108774928D01*
X123468504Y-108585000D01*
X123448542Y-108395072D01*
X123389527Y-108213444D01*
X123294040Y-108048056D01*
X123294038Y-108048054D01*
X123294034Y-108048048D01*
X123166255Y-107906135D01*
X123011752Y-107793882D01*
X122837288Y-107716206D01*
X122650487Y-107676500D01*
X122459513Y-107676500D01*
X122272711Y-107716206D01*
X122098247Y-107793882D01*
X121943744Y-107906135D01*
X121815965Y-108048048D01*
X121815958Y-108048058D01*
X121720476Y-108213438D01*
X121720473Y-108213445D01*
X121661457Y-108395072D01*
X121644092Y-108560293D01*
X121617079Y-108625950D01*
X121607877Y-108636217D01*
X115344500Y-114899595D01*
X115282188Y-114933621D01*
X115255405Y-114936500D01*
X110439394Y-114936500D01*
X110371273Y-114916498D01*
X110336181Y-114882771D01*
X110226200Y-114725703D01*
X110226195Y-114725697D01*
X110064302Y-114563804D01*
X110064296Y-114563799D01*
X110009267Y-114525267D01*
X109964939Y-114469810D01*
X109957630Y-114399190D01*
X109989661Y-114335830D01*
X110044054Y-114301759D01*
X110112703Y-114280367D01*
X110112704Y-114280367D01*
X110259840Y-114191421D01*
X110259850Y-114191413D01*
X110381413Y-114069850D01*
X110381421Y-114069840D01*
X110470366Y-113922706D01*
X110521518Y-113758553D01*
X110521518Y-113758552D01*
X110528000Y-113687222D01*
X110528000Y-113284000D01*
X109651116Y-113284000D01*
X109679493Y-113239844D01*
X109720000Y-113101889D01*
X109720000Y-112958111D01*
X109679493Y-112820156D01*
X109651116Y-112776000D01*
X110527999Y-112776000D01*
X110527999Y-112372778D01*
X110521518Y-112301446D01*
X110470366Y-112137293D01*
X110381421Y-111990159D01*
X110381413Y-111990149D01*
X110259850Y-111868586D01*
X110259840Y-111868578D01*
X110112706Y-111779633D01*
X110044052Y-111758240D01*
X109984967Y-111718877D01*
X109956542Y-111653819D01*
X109967802Y-111583721D01*
X110009266Y-111534733D01*
X110064300Y-111496198D01*
X110226198Y-111334300D01*
X110357523Y-111146749D01*
X110454284Y-110939243D01*
X110513543Y-110718087D01*
X110533498Y-110490000D01*
X110513543Y-110261913D01*
X110454284Y-110040757D01*
X110357523Y-109833251D01*
X110226198Y-109645700D01*
X110064300Y-109483802D01*
X109876749Y-109352477D01*
X109837543Y-109334195D01*
X109784258Y-109287279D01*
X109764796Y-109219002D01*
X109785337Y-109151042D01*
X109837543Y-109105805D01*
X109839997Y-109104660D01*
X109876749Y-109087523D01*
X110064300Y-108956198D01*
X110226198Y-108794300D01*
X110357523Y-108606749D01*
X110454284Y-108399243D01*
X110513543Y-108178087D01*
X110533498Y-107950000D01*
X110513543Y-107721913D01*
X110454284Y-107500757D01*
X110357523Y-107293251D01*
X110226198Y-107105700D01*
X110064300Y-106943802D01*
X110062303Y-106942404D01*
X110001998Y-106900177D01*
X109876749Y-106812477D01*
X109837543Y-106794195D01*
X109784258Y-106747279D01*
X109764796Y-106679002D01*
X109785337Y-106611042D01*
X109837543Y-106565805D01*
X109848591Y-106560653D01*
X109876749Y-106547523D01*
X110064300Y-106416198D01*
X110226198Y-106254300D01*
X110357523Y-106066749D01*
X110454284Y-105859243D01*
X110513543Y-105638087D01*
X110533498Y-105410000D01*
X110513543Y-105181913D01*
X110454284Y-104960757D01*
X110357523Y-104753251D01*
X110226198Y-104565700D01*
X110064300Y-104403802D01*
X109876749Y-104272477D01*
X109837543Y-104254195D01*
X109784258Y-104207279D01*
X109764796Y-104139002D01*
X109785337Y-104071042D01*
X109837543Y-104025805D01*
X109839997Y-104024660D01*
X109876749Y-104007523D01*
X110064300Y-103876198D01*
X110226198Y-103714300D01*
X110336181Y-103557229D01*
X110391638Y-103512901D01*
X110439394Y-103503500D01*
X113985406Y-103503500D01*
X114053527Y-103523502D01*
X114074501Y-103540405D01*
X117439595Y-106905499D01*
X117473621Y-106967811D01*
X117476500Y-106994594D01*
X117476500Y-108635606D01*
X117456498Y-108703727D01*
X117422771Y-108738819D01*
X117265703Y-108848799D01*
X117265697Y-108848804D01*
X117103804Y-109010697D01*
X117103799Y-109010703D01*
X116972477Y-109198250D01*
X116875717Y-109405753D01*
X116875715Y-109405759D01*
X116842316Y-109530405D01*
X116816457Y-109626913D01*
X116796502Y-109855000D01*
X116816457Y-110083087D01*
X116843133Y-110182641D01*
X116875715Y-110304240D01*
X116875717Y-110304246D01*
X116944894Y-110452597D01*
X116972477Y-110511749D01*
X117103802Y-110699300D01*
X117265700Y-110861198D01*
X117453251Y-110992523D01*
X117660757Y-111089284D01*
X117881913Y-111148543D01*
X118110000Y-111168498D01*
X118338087Y-111148543D01*
X118559243Y-111089284D01*
X118766749Y-110992523D01*
X118954300Y-110861198D01*
X119116198Y-110699300D01*
X119247523Y-110511749D01*
X119344284Y-110304243D01*
X119403543Y-110083087D01*
X119423498Y-109855000D01*
X119403543Y-109626913D01*
X119344284Y-109405757D01*
X119247523Y-109198251D01*
X119116198Y-109010700D01*
X118954300Y-108848802D01*
X118954296Y-108848799D01*
X118797229Y-108738819D01*
X118752901Y-108683362D01*
X118743500Y-108635606D01*
X118743500Y-106763854D01*
X118745249Y-106748012D01*
X118744956Y-106747985D01*
X118745700Y-106740099D01*
X118745702Y-106740092D01*
X118743500Y-106670028D01*
X118743500Y-106640144D01*
X118742620Y-106633182D01*
X118742156Y-106627293D01*
X118740674Y-106580111D01*
X118735020Y-106560652D01*
X118731012Y-106541297D01*
X118728474Y-106521203D01*
X118711103Y-106477329D01*
X118709189Y-106471740D01*
X118696019Y-106426407D01*
X118689981Y-106416198D01*
X118685703Y-106408964D01*
X118677005Y-106391209D01*
X118669552Y-106372383D01*
X118641818Y-106334210D01*
X118638558Y-106329247D01*
X118614542Y-106288638D01*
X118600214Y-106274310D01*
X118587384Y-106259289D01*
X118575472Y-106242893D01*
X118575469Y-106242891D01*
X118575469Y-106242890D01*
X118539107Y-106212808D01*
X118534726Y-106208822D01*
X114807244Y-102481339D01*
X114797279Y-102468901D01*
X114797052Y-102469090D01*
X114792001Y-102462984D01*
X114792000Y-102462982D01*
X114740921Y-102415016D01*
X114719777Y-102393871D01*
X114719772Y-102393866D01*
X114714225Y-102389563D01*
X114709717Y-102385712D01*
X114675325Y-102353417D01*
X114675319Y-102353413D01*
X114657563Y-102343651D01*
X114641047Y-102332802D01*
X114625041Y-102320386D01*
X114594289Y-102307078D01*
X114581740Y-102301648D01*
X114576408Y-102299036D01*
X114535061Y-102276305D01*
X114515436Y-102271266D01*
X114496736Y-102264864D01*
X114478145Y-102256819D01*
X114478143Y-102256818D01*
X114478142Y-102256818D01*
X114431542Y-102249437D01*
X114425729Y-102248233D01*
X114380030Y-102236500D01*
X114359776Y-102236500D01*
X114340066Y-102234949D01*
X114320057Y-102231780D01*
X114320056Y-102231780D01*
X114273083Y-102236220D01*
X114267150Y-102236500D01*
X110439394Y-102236500D01*
X110371273Y-102216498D01*
X110336181Y-102182771D01*
X110226200Y-102025703D01*
X110226195Y-102025697D01*
X110064302Y-101863804D01*
X110064296Y-101863799D01*
X110009267Y-101825267D01*
X109964939Y-101769810D01*
X109957630Y-101699190D01*
X109989661Y-101635830D01*
X110044054Y-101601759D01*
X110112703Y-101580367D01*
X110112704Y-101580367D01*
X110259840Y-101491421D01*
X110259850Y-101491413D01*
X110381413Y-101369850D01*
X110381421Y-101369840D01*
X110470366Y-101222706D01*
X110521518Y-101058553D01*
X110521518Y-101058552D01*
X110528000Y-100987222D01*
X110528000Y-100584000D01*
X109651116Y-100584000D01*
X109679493Y-100539844D01*
X109720000Y-100401889D01*
X109720000Y-100258111D01*
X109679493Y-100120156D01*
X109651116Y-100076000D01*
X110527999Y-100076000D01*
X110527999Y-99672778D01*
X110521518Y-99601446D01*
X110470366Y-99437293D01*
X110381421Y-99290159D01*
X110381413Y-99290149D01*
X110259850Y-99168586D01*
X110259840Y-99168578D01*
X110112706Y-99079633D01*
X110049700Y-99060000D01*
X118466496Y-99060000D01*
X118486457Y-99249927D01*
X118499530Y-99290159D01*
X118545473Y-99431556D01*
X118545476Y-99431561D01*
X118640958Y-99596941D01*
X118640965Y-99596951D01*
X118768744Y-99738864D01*
X118768747Y-99738866D01*
X118923248Y-99851118D01*
X119097712Y-99928794D01*
X119284513Y-99968500D01*
X119340406Y-99968500D01*
X119408527Y-99988502D01*
X119429501Y-100005405D01*
X121249595Y-101825499D01*
X121283621Y-101887811D01*
X121286500Y-101914594D01*
X121286500Y-102802474D01*
X121266498Y-102870595D01*
X121254137Y-102886784D01*
X121180957Y-102968059D01*
X121085476Y-103133438D01*
X121085473Y-103133445D01*
X121026457Y-103315072D01*
X121006496Y-103505000D01*
X121026457Y-103694927D01*
X121030468Y-103707270D01*
X121085473Y-103876556D01*
X121085476Y-103876561D01*
X121180958Y-104041941D01*
X121180965Y-104041951D01*
X121308744Y-104183864D01*
X121308747Y-104183866D01*
X121463248Y-104296118D01*
X121637712Y-104373794D01*
X121824513Y-104413500D01*
X122015487Y-104413500D01*
X122202288Y-104373794D01*
X122376752Y-104296118D01*
X122531253Y-104183866D01*
X122625495Y-104079200D01*
X122659034Y-104041951D01*
X122659035Y-104041949D01*
X122659040Y-104041944D01*
X122754527Y-103876556D01*
X122813542Y-103694928D01*
X122833504Y-103505000D01*
X122813542Y-103315072D01*
X122754527Y-103133444D01*
X122659040Y-102968056D01*
X122585863Y-102886784D01*
X122555146Y-102822776D01*
X122553500Y-102802474D01*
X122553500Y-101683849D01*
X122555249Y-101668012D01*
X122554955Y-101667985D01*
X122555701Y-101660092D01*
X122554938Y-101635830D01*
X122553500Y-101590059D01*
X122553500Y-101560144D01*
X122552620Y-101553185D01*
X122552155Y-101547280D01*
X122550673Y-101500110D01*
X122545022Y-101480663D01*
X122541012Y-101461300D01*
X122538474Y-101441203D01*
X122521100Y-101397323D01*
X122519184Y-101391725D01*
X122506018Y-101346406D01*
X122495700Y-101328961D01*
X122487005Y-101311209D01*
X122479553Y-101292385D01*
X122479550Y-101292379D01*
X122451818Y-101254210D01*
X122448562Y-101249253D01*
X122424542Y-101208637D01*
X122424540Y-101208635D01*
X122424540Y-101208634D01*
X122410218Y-101194312D01*
X122397377Y-101179279D01*
X122388652Y-101167270D01*
X122385472Y-101162893D01*
X122349108Y-101132810D01*
X122344736Y-101128831D01*
X120327121Y-99111216D01*
X120293095Y-99048904D01*
X120290908Y-99035306D01*
X120273542Y-98870072D01*
X120214527Y-98688444D01*
X120119040Y-98523056D01*
X120119038Y-98523054D01*
X120119034Y-98523048D01*
X119991255Y-98381135D01*
X119836752Y-98268882D01*
X119662288Y-98191206D01*
X119475487Y-98151500D01*
X119284513Y-98151500D01*
X119097711Y-98191206D01*
X118923247Y-98268882D01*
X118768744Y-98381135D01*
X118640965Y-98523048D01*
X118640958Y-98523058D01*
X118545476Y-98688438D01*
X118545473Y-98688445D01*
X118486457Y-98870072D01*
X118466496Y-99060000D01*
X110049700Y-99060000D01*
X110044052Y-99058240D01*
X109984967Y-99018877D01*
X109956542Y-98953819D01*
X109967802Y-98883721D01*
X110009266Y-98834733D01*
X110064300Y-98796198D01*
X110226198Y-98634300D01*
X110357523Y-98446749D01*
X110454284Y-98239243D01*
X110513543Y-98018087D01*
X110533498Y-97790000D01*
X110513543Y-97561913D01*
X110454284Y-97340757D01*
X110357523Y-97133251D01*
X110226198Y-96945700D01*
X110064300Y-96783802D01*
X109876749Y-96652477D01*
X109837543Y-96634195D01*
X109784258Y-96587279D01*
X109764796Y-96519002D01*
X109785337Y-96451042D01*
X109837543Y-96405805D01*
X109839997Y-96404660D01*
X109876749Y-96387523D01*
X110064300Y-96256198D01*
X110226198Y-96094300D01*
X110357523Y-95906749D01*
X110454284Y-95699243D01*
X110513543Y-95478087D01*
X110533498Y-95250000D01*
X110513543Y-95021913D01*
X110468456Y-94853649D01*
X115506500Y-94853649D01*
X115513009Y-94914196D01*
X115513011Y-94914204D01*
X115564110Y-95051202D01*
X115564112Y-95051207D01*
X115651738Y-95168261D01*
X115768792Y-95255887D01*
X115768794Y-95255888D01*
X115768796Y-95255889D01*
X115822600Y-95275957D01*
X115905795Y-95306988D01*
X115905803Y-95306990D01*
X115966350Y-95313499D01*
X115966355Y-95313499D01*
X115966362Y-95313500D01*
X115966368Y-95313500D01*
X117763632Y-95313500D01*
X117763638Y-95313500D01*
X117763645Y-95313499D01*
X117763649Y-95313499D01*
X117824196Y-95306990D01*
X117824199Y-95306989D01*
X117824201Y-95306989D01*
X117961204Y-95255889D01*
X117998003Y-95228342D01*
X118078261Y-95168261D01*
X118165886Y-95051208D01*
X118165885Y-95051208D01*
X118165889Y-95051204D01*
X118209999Y-94932939D01*
X118252545Y-94876107D01*
X118319066Y-94851296D01*
X118388440Y-94866388D01*
X118420753Y-94891635D01*
X118481414Y-94957530D01*
X118481762Y-94957908D01*
X118513882Y-94982908D01*
X118659424Y-95096189D01*
X118857426Y-95203342D01*
X118857427Y-95203342D01*
X118857428Y-95203343D01*
X118930251Y-95228343D01*
X119070365Y-95276444D01*
X119292431Y-95313500D01*
X119292435Y-95313500D01*
X119517565Y-95313500D01*
X119517569Y-95313500D01*
X119739635Y-95276444D01*
X119952574Y-95203342D01*
X120150576Y-95096189D01*
X120328240Y-94957906D01*
X120480722Y-94792268D01*
X120480927Y-94791955D01*
X120553184Y-94681356D01*
X120569518Y-94656354D01*
X120623520Y-94610268D01*
X120693868Y-94600692D01*
X120758225Y-94630669D01*
X120780480Y-94656353D01*
X120796816Y-94681356D01*
X120869275Y-94792265D01*
X120869279Y-94792270D01*
X121021762Y-94957908D01*
X121053882Y-94982908D01*
X121199424Y-95096189D01*
X121397426Y-95203342D01*
X121397427Y-95203342D01*
X121397428Y-95203343D01*
X121470251Y-95228343D01*
X121610365Y-95276444D01*
X121832431Y-95313500D01*
X121832435Y-95313500D01*
X122057565Y-95313500D01*
X122057569Y-95313500D01*
X122279635Y-95276444D01*
X122492574Y-95203342D01*
X122690576Y-95096189D01*
X122868240Y-94957906D01*
X123020722Y-94792268D01*
X123020927Y-94791955D01*
X123093184Y-94681356D01*
X123109518Y-94656354D01*
X123163520Y-94610268D01*
X123233868Y-94600692D01*
X123298225Y-94630669D01*
X123320480Y-94656353D01*
X123336816Y-94681356D01*
X123409275Y-94792265D01*
X123409279Y-94792270D01*
X123561762Y-94957908D01*
X123593882Y-94982908D01*
X123739424Y-95096189D01*
X123937426Y-95203342D01*
X123937427Y-95203342D01*
X123937428Y-95203343D01*
X124010251Y-95228343D01*
X124150365Y-95276444D01*
X124372431Y-95313500D01*
X124372435Y-95313500D01*
X124597565Y-95313500D01*
X124597569Y-95313500D01*
X124819635Y-95276444D01*
X125032574Y-95203342D01*
X125230576Y-95096189D01*
X125408240Y-94957906D01*
X125560722Y-94792268D01*
X125560927Y-94791955D01*
X125633184Y-94681356D01*
X125649816Y-94655898D01*
X125703819Y-94609810D01*
X125774167Y-94600235D01*
X125838524Y-94630212D01*
X125860782Y-94655898D01*
X125949674Y-94791958D01*
X126102097Y-94957534D01*
X126279698Y-95095767D01*
X126279699Y-95095768D01*
X126477628Y-95202882D01*
X126477630Y-95202883D01*
X126690483Y-95275955D01*
X126690492Y-95275957D01*
X126771000Y-95289391D01*
X126771000Y-94388674D01*
X126882685Y-94439680D01*
X126989237Y-94455000D01*
X127060763Y-94455000D01*
X127167315Y-94439680D01*
X127279000Y-94388674D01*
X127279000Y-95289390D01*
X127359507Y-95275957D01*
X127359516Y-95275955D01*
X127572369Y-95202883D01*
X127572371Y-95202882D01*
X127770300Y-95095768D01*
X127770301Y-95095767D01*
X127947902Y-94957534D01*
X128100327Y-94791955D01*
X128189217Y-94655899D01*
X128243220Y-94609810D01*
X128313568Y-94600235D01*
X128377925Y-94630212D01*
X128400183Y-94655898D01*
X128489279Y-94792270D01*
X128641762Y-94957908D01*
X128673882Y-94982908D01*
X128819424Y-95096189D01*
X129017426Y-95203342D01*
X129017427Y-95203342D01*
X129017428Y-95203343D01*
X129090251Y-95228343D01*
X129230365Y-95276444D01*
X129452431Y-95313500D01*
X129452435Y-95313500D01*
X129677565Y-95313500D01*
X129677569Y-95313500D01*
X129899635Y-95276444D01*
X130112574Y-95203342D01*
X130310576Y-95096189D01*
X130488240Y-94957906D01*
X130561250Y-94878597D01*
X144692000Y-94878597D01*
X144698505Y-94939093D01*
X144749555Y-95075964D01*
X144749555Y-95075965D01*
X144837095Y-95192904D01*
X144954034Y-95280444D01*
X145090906Y-95331494D01*
X145151402Y-95337999D01*
X145151415Y-95338000D01*
X145796000Y-95338000D01*
X145796000Y-94413674D01*
X145907685Y-94464680D01*
X146014237Y-94480000D01*
X146085763Y-94480000D01*
X146192315Y-94464680D01*
X146304000Y-94413674D01*
X146304000Y-95338000D01*
X146948585Y-95338000D01*
X146948597Y-95337999D01*
X147009093Y-95331494D01*
X147145964Y-95280444D01*
X147145965Y-95280444D01*
X147262904Y-95192904D01*
X147350444Y-95075965D01*
X147394618Y-94957530D01*
X147437165Y-94900694D01*
X147503685Y-94875883D01*
X147573059Y-94890974D01*
X147605372Y-94916222D01*
X147666760Y-94982906D01*
X147666762Y-94982908D01*
X147716876Y-95021913D01*
X147844424Y-95121189D01*
X148042426Y-95228342D01*
X148042427Y-95228342D01*
X148042428Y-95228343D01*
X148154227Y-95266723D01*
X148255365Y-95301444D01*
X148477431Y-95338500D01*
X148477435Y-95338500D01*
X148702565Y-95338500D01*
X148702569Y-95338500D01*
X148924635Y-95301444D01*
X149137574Y-95228342D01*
X149335576Y-95121189D01*
X149513240Y-94982906D01*
X149665722Y-94817268D01*
X149754518Y-94681354D01*
X149808520Y-94635268D01*
X149878868Y-94625692D01*
X149943225Y-94655669D01*
X149965480Y-94681353D01*
X149998607Y-94732058D01*
X150054275Y-94817265D01*
X150054279Y-94817270D01*
X150145374Y-94916224D01*
X150183747Y-94957908D01*
X150206762Y-94982908D01*
X150256876Y-95021913D01*
X150384424Y-95121189D01*
X150582426Y-95228342D01*
X150582427Y-95228342D01*
X150582428Y-95228343D01*
X150694227Y-95266723D01*
X150795365Y-95301444D01*
X151017431Y-95338500D01*
X151017435Y-95338500D01*
X151242565Y-95338500D01*
X151242569Y-95338500D01*
X151464635Y-95301444D01*
X151677574Y-95228342D01*
X151875576Y-95121189D01*
X152053240Y-94982906D01*
X152205722Y-94817268D01*
X152294518Y-94681354D01*
X152348520Y-94635268D01*
X152418868Y-94625692D01*
X152483225Y-94655669D01*
X152505480Y-94681353D01*
X152538607Y-94732058D01*
X152594275Y-94817265D01*
X152594279Y-94817270D01*
X152685374Y-94916224D01*
X152723747Y-94957908D01*
X152746762Y-94982908D01*
X152796876Y-95021913D01*
X152924424Y-95121189D01*
X153122426Y-95228342D01*
X153122427Y-95228342D01*
X153122428Y-95228343D01*
X153234227Y-95266723D01*
X153335365Y-95301444D01*
X153557431Y-95338500D01*
X153557435Y-95338500D01*
X153782565Y-95338500D01*
X153782569Y-95338500D01*
X154004635Y-95301444D01*
X154217574Y-95228342D01*
X154415576Y-95121189D01*
X154593240Y-94982906D01*
X154745722Y-94817268D01*
X154868860Y-94628791D01*
X154959296Y-94422616D01*
X155014564Y-94204368D01*
X155033156Y-93980000D01*
X155014564Y-93755632D01*
X155007060Y-93726000D01*
X154959297Y-93537387D01*
X154959296Y-93537386D01*
X154959296Y-93537384D01*
X154868860Y-93331209D01*
X154852525Y-93306206D01*
X154745724Y-93142734D01*
X154745720Y-93142729D01*
X154593237Y-92977091D01*
X154473679Y-92884035D01*
X154415576Y-92838811D01*
X154217574Y-92731658D01*
X154217572Y-92731657D01*
X154217571Y-92731656D01*
X154004639Y-92658557D01*
X154004630Y-92658555D01*
X153960476Y-92651187D01*
X153782569Y-92621500D01*
X153557431Y-92621500D01*
X153409211Y-92646233D01*
X153335369Y-92658555D01*
X153335360Y-92658557D01*
X153122428Y-92731656D01*
X153122426Y-92731658D01*
X152924426Y-92838810D01*
X152924424Y-92838811D01*
X152746762Y-92977091D01*
X152594279Y-93142729D01*
X152505483Y-93278643D01*
X152451479Y-93324731D01*
X152381131Y-93334306D01*
X152316774Y-93304329D01*
X152294517Y-93278643D01*
X152216507Y-93159240D01*
X152205722Y-93142732D01*
X152205721Y-93142731D01*
X152205720Y-93142729D01*
X152053237Y-92977091D01*
X151933679Y-92884035D01*
X151875576Y-92838811D01*
X151677574Y-92731658D01*
X151677572Y-92731657D01*
X151677571Y-92731656D01*
X151464639Y-92658557D01*
X151464630Y-92658555D01*
X151420476Y-92651187D01*
X151242569Y-92621500D01*
X151017431Y-92621500D01*
X150869211Y-92646233D01*
X150795369Y-92658555D01*
X150795360Y-92658557D01*
X150582428Y-92731656D01*
X150582426Y-92731658D01*
X150384426Y-92838810D01*
X150384424Y-92838811D01*
X150206762Y-92977091D01*
X150054279Y-93142729D01*
X149965483Y-93278643D01*
X149911479Y-93324731D01*
X149841131Y-93334306D01*
X149776774Y-93304329D01*
X149754517Y-93278643D01*
X149676507Y-93159240D01*
X149665722Y-93142732D01*
X149665721Y-93142731D01*
X149665720Y-93142729D01*
X149513237Y-92977091D01*
X149393679Y-92884035D01*
X149335576Y-92838811D01*
X149137574Y-92731658D01*
X149137572Y-92731657D01*
X149137571Y-92731656D01*
X148924639Y-92658557D01*
X148924630Y-92658555D01*
X148880476Y-92651187D01*
X148702569Y-92621500D01*
X148477431Y-92621500D01*
X148329211Y-92646233D01*
X148255369Y-92658555D01*
X148255360Y-92658557D01*
X148042428Y-92731656D01*
X148042426Y-92731658D01*
X147844426Y-92838810D01*
X147844424Y-92838811D01*
X147666759Y-92977094D01*
X147605374Y-93043775D01*
X147544521Y-93080346D01*
X147473557Y-93078211D01*
X147415012Y-93038049D01*
X147394618Y-93002470D01*
X147350443Y-92884033D01*
X147262904Y-92767095D01*
X147145965Y-92679555D01*
X147009093Y-92628505D01*
X146948597Y-92622000D01*
X146304000Y-92622000D01*
X146304000Y-93546325D01*
X146192315Y-93495320D01*
X146085763Y-93480000D01*
X146014237Y-93480000D01*
X145907685Y-93495320D01*
X145796000Y-93546325D01*
X145796000Y-92622000D01*
X145151402Y-92622000D01*
X145090906Y-92628505D01*
X144954035Y-92679555D01*
X144954034Y-92679555D01*
X144837095Y-92767095D01*
X144749555Y-92884034D01*
X144749555Y-92884035D01*
X144698505Y-93020906D01*
X144692000Y-93081402D01*
X144692000Y-93726000D01*
X145618884Y-93726000D01*
X145590507Y-93770156D01*
X145550000Y-93908111D01*
X145550000Y-94051889D01*
X145590507Y-94189844D01*
X145618884Y-94234000D01*
X144692000Y-94234000D01*
X144692000Y-94878597D01*
X130561250Y-94878597D01*
X130640722Y-94792268D01*
X130640927Y-94791955D01*
X130713184Y-94681356D01*
X130763860Y-94603791D01*
X130854296Y-94397616D01*
X130909564Y-94179368D01*
X130928156Y-93955000D01*
X130909564Y-93730632D01*
X130864910Y-93554296D01*
X130854297Y-93512387D01*
X130854296Y-93512386D01*
X130854296Y-93512384D01*
X130763860Y-93306209D01*
X130746500Y-93279637D01*
X130640724Y-93117734D01*
X130640720Y-93117729D01*
X130511254Y-92977094D01*
X130488240Y-92952094D01*
X130488239Y-92952093D01*
X130488237Y-92952091D01*
X130368367Y-92858792D01*
X130310576Y-92813811D01*
X130112574Y-92706658D01*
X130112572Y-92706657D01*
X130112571Y-92706656D01*
X129899639Y-92633557D01*
X129899630Y-92633555D01*
X129830383Y-92622000D01*
X129677569Y-92596500D01*
X129452431Y-92596500D01*
X129307971Y-92620606D01*
X129230369Y-92633555D01*
X129230360Y-92633557D01*
X129017428Y-92706656D01*
X129017426Y-92706658D01*
X128819426Y-92813810D01*
X128819424Y-92813811D01*
X128641762Y-92952091D01*
X128489279Y-93117729D01*
X128400183Y-93254101D01*
X128346179Y-93300189D01*
X128275831Y-93309764D01*
X128211474Y-93279786D01*
X128189217Y-93254100D01*
X128100327Y-93118044D01*
X127947902Y-92952465D01*
X127770301Y-92814232D01*
X127770300Y-92814231D01*
X127572371Y-92707117D01*
X127572369Y-92707116D01*
X127359512Y-92634043D01*
X127359501Y-92634040D01*
X127279000Y-92620606D01*
X127279000Y-93521325D01*
X127167315Y-93470320D01*
X127060763Y-93455000D01*
X126989237Y-93455000D01*
X126882685Y-93470320D01*
X126771000Y-93521325D01*
X126771000Y-92620607D01*
X126770999Y-92620606D01*
X126690498Y-92634040D01*
X126690487Y-92634043D01*
X126477630Y-92707116D01*
X126477628Y-92707117D01*
X126279699Y-92814231D01*
X126279698Y-92814232D01*
X126102097Y-92952465D01*
X125949670Y-93118045D01*
X125860780Y-93254101D01*
X125806776Y-93300189D01*
X125736428Y-93309764D01*
X125672071Y-93279786D01*
X125649816Y-93254101D01*
X125610884Y-93194511D01*
X125560724Y-93117734D01*
X125560720Y-93117729D01*
X125431254Y-92977094D01*
X125408240Y-92952094D01*
X125408239Y-92952093D01*
X125408237Y-92952091D01*
X125288367Y-92858792D01*
X125230576Y-92813811D01*
X125032574Y-92706658D01*
X125032572Y-92706657D01*
X125032571Y-92706656D01*
X124819639Y-92633557D01*
X124819630Y-92633555D01*
X124750383Y-92622000D01*
X124597569Y-92596500D01*
X124372431Y-92596500D01*
X124227971Y-92620606D01*
X124150369Y-92633555D01*
X124150360Y-92633557D01*
X123937428Y-92706656D01*
X123937426Y-92706658D01*
X123739426Y-92813810D01*
X123739424Y-92813811D01*
X123561762Y-92952091D01*
X123409279Y-93117729D01*
X123320483Y-93253643D01*
X123266479Y-93299731D01*
X123196131Y-93309306D01*
X123131774Y-93279329D01*
X123109517Y-93253643D01*
X123020720Y-93117729D01*
X122891254Y-92977094D01*
X122868240Y-92952094D01*
X122868239Y-92952093D01*
X122868237Y-92952091D01*
X122748367Y-92858792D01*
X122690576Y-92813811D01*
X122492574Y-92706658D01*
X122492572Y-92706657D01*
X122492571Y-92706656D01*
X122279639Y-92633557D01*
X122279630Y-92633555D01*
X122210383Y-92622000D01*
X122057569Y-92596500D01*
X121832431Y-92596500D01*
X121687971Y-92620606D01*
X121610369Y-92633555D01*
X121610360Y-92633557D01*
X121397428Y-92706656D01*
X121397426Y-92706658D01*
X121199426Y-92813810D01*
X121199424Y-92813811D01*
X121021762Y-92952091D01*
X120869279Y-93117729D01*
X120780483Y-93253643D01*
X120726479Y-93299731D01*
X120656131Y-93309306D01*
X120591774Y-93279329D01*
X120569517Y-93253643D01*
X120480720Y-93117729D01*
X120351254Y-92977094D01*
X120328240Y-92952094D01*
X120328239Y-92952093D01*
X120328237Y-92952091D01*
X120208367Y-92858792D01*
X120150576Y-92813811D01*
X119952574Y-92706658D01*
X119952572Y-92706657D01*
X119952571Y-92706656D01*
X119739639Y-92633557D01*
X119739630Y-92633555D01*
X119670383Y-92622000D01*
X119517569Y-92596500D01*
X119292431Y-92596500D01*
X119147971Y-92620606D01*
X119070369Y-92633555D01*
X119070360Y-92633557D01*
X118857428Y-92706656D01*
X118857426Y-92706658D01*
X118659426Y-92813810D01*
X118659424Y-92813811D01*
X118481762Y-92952091D01*
X118420754Y-93018363D01*
X118359901Y-93054933D01*
X118288936Y-93052798D01*
X118230391Y-93012636D01*
X118209999Y-92977057D01*
X118165889Y-92858797D01*
X118165887Y-92858792D01*
X118078261Y-92741738D01*
X117961207Y-92654112D01*
X117961202Y-92654110D01*
X117824204Y-92603011D01*
X117824196Y-92603009D01*
X117763649Y-92596500D01*
X117763638Y-92596500D01*
X115966362Y-92596500D01*
X115966350Y-92596500D01*
X115905803Y-92603009D01*
X115905795Y-92603011D01*
X115768797Y-92654110D01*
X115768792Y-92654112D01*
X115651738Y-92741738D01*
X115564112Y-92858792D01*
X115564110Y-92858797D01*
X115513011Y-92995795D01*
X115513009Y-92995803D01*
X115506500Y-93056350D01*
X115506500Y-94853649D01*
X110468456Y-94853649D01*
X110454284Y-94800757D01*
X110357523Y-94593251D01*
X110226198Y-94405700D01*
X110064300Y-94243802D01*
X110050301Y-94234000D01*
X109972279Y-94179368D01*
X109876749Y-94112477D01*
X109837543Y-94094195D01*
X109784258Y-94047279D01*
X109764796Y-93979002D01*
X109785337Y-93911042D01*
X109837543Y-93865805D01*
X109839997Y-93864660D01*
X109876749Y-93847523D01*
X110064300Y-93716198D01*
X110226198Y-93554300D01*
X110357523Y-93366749D01*
X110454284Y-93159243D01*
X110513543Y-92938087D01*
X110533498Y-92710000D01*
X110513543Y-92481913D01*
X110454284Y-92260757D01*
X110357523Y-92053251D01*
X110226198Y-91865700D01*
X110064300Y-91703802D01*
X109876749Y-91572477D01*
X109837543Y-91554195D01*
X109784258Y-91507279D01*
X109764796Y-91439002D01*
X109785337Y-91371042D01*
X109837543Y-91325805D01*
X109839997Y-91324660D01*
X109876749Y-91307523D01*
X110064300Y-91176198D01*
X110226198Y-91014300D01*
X110357523Y-90826749D01*
X110454284Y-90619243D01*
X110513543Y-90398087D01*
X110533498Y-90170000D01*
X110513543Y-89941913D01*
X110454284Y-89720757D01*
X110357523Y-89513251D01*
X110226198Y-89325700D01*
X110064300Y-89163802D01*
X110064293Y-89163797D01*
X110009267Y-89125267D01*
X109964939Y-89069810D01*
X109957630Y-88999190D01*
X109989661Y-88935830D01*
X110044054Y-88901759D01*
X110112703Y-88880367D01*
X110112704Y-88880367D01*
X110259840Y-88791421D01*
X110259850Y-88791413D01*
X110381413Y-88669850D01*
X110381421Y-88669840D01*
X110470366Y-88522706D01*
X110521518Y-88358553D01*
X110521518Y-88358552D01*
X110528000Y-88287222D01*
X110528000Y-87884000D01*
X109651116Y-87884000D01*
X109679493Y-87839844D01*
X109720000Y-87701889D01*
X109720000Y-87558111D01*
X109679493Y-87420156D01*
X109651116Y-87376000D01*
X110527999Y-87376000D01*
X110527999Y-86972778D01*
X110521518Y-86901446D01*
X110470366Y-86737293D01*
X110381421Y-86590159D01*
X110381413Y-86590149D01*
X110300924Y-86509660D01*
X114704500Y-86509660D01*
X114704501Y-87490339D01*
X114710913Y-87571834D01*
X114761701Y-87761377D01*
X114850788Y-87936219D01*
X114850793Y-87936228D01*
X114974279Y-88088720D01*
X115126771Y-88212206D01*
X115126776Y-88212209D01*
X115126779Y-88212211D01*
X115301621Y-88301298D01*
X115491164Y-88352086D01*
X115562644Y-88357711D01*
X115572660Y-88358500D01*
X115572662Y-88358499D01*
X115572663Y-88358500D01*
X116712999Y-88358499D01*
X117853339Y-88358499D01*
X117902236Y-88354651D01*
X117934836Y-88352086D01*
X118124379Y-88301298D01*
X118299221Y-88212211D01*
X118299225Y-88212207D01*
X118299228Y-88212206D01*
X118451720Y-88088720D01*
X118575206Y-87936228D01*
X118575207Y-87936225D01*
X118575211Y-87936221D01*
X118664298Y-87761379D01*
X118715086Y-87571836D01*
X118721500Y-87490337D01*
X118721499Y-86509664D01*
X118715086Y-86428164D01*
X118664298Y-86238621D01*
X118575211Y-86063779D01*
X118575209Y-86063776D01*
X118575206Y-86063771D01*
X118451720Y-85911279D01*
X118299228Y-85787793D01*
X118299219Y-85787788D01*
X118124377Y-85698701D01*
X118027628Y-85672777D01*
X117975114Y-85658706D01*
X117914492Y-85621755D01*
X117883471Y-85557895D01*
X117891899Y-85487400D01*
X117937102Y-85432653D01*
X117975113Y-85415293D01*
X118124379Y-85375298D01*
X118299221Y-85286211D01*
X118299225Y-85286207D01*
X118299228Y-85286206D01*
X118451720Y-85162720D01*
X118575206Y-85010228D01*
X118575207Y-85010225D01*
X118575211Y-85010221D01*
X118664298Y-84835379D01*
X118715086Y-84645836D01*
X118721500Y-84564337D01*
X118721499Y-83583664D01*
X118715086Y-83502164D01*
X118664298Y-83312621D01*
X118575211Y-83137779D01*
X118575209Y-83137776D01*
X118575206Y-83137771D01*
X118451720Y-82985279D01*
X118299228Y-82861793D01*
X118299219Y-82861788D01*
X118124377Y-82772701D01*
X117991147Y-82737002D01*
X117934836Y-82721914D01*
X117872582Y-82717014D01*
X117853340Y-82715500D01*
X117853337Y-82715500D01*
X116713000Y-82715500D01*
X115572661Y-82715501D01*
X115491165Y-82721913D01*
X115301622Y-82772701D01*
X115126780Y-82861788D01*
X115126771Y-82861793D01*
X114974279Y-82985279D01*
X114850793Y-83137771D01*
X114850788Y-83137780D01*
X114761701Y-83312622D01*
X114725258Y-83448632D01*
X114710914Y-83502164D01*
X114706662Y-83556195D01*
X114704500Y-83583660D01*
X114704501Y-84564339D01*
X114710913Y-84645834D01*
X114761701Y-84835377D01*
X114850788Y-85010219D01*
X114850793Y-85010228D01*
X114974279Y-85162720D01*
X115126771Y-85286206D01*
X115126776Y-85286209D01*
X115126779Y-85286211D01*
X115301621Y-85375298D01*
X115442451Y-85413033D01*
X115450884Y-85415293D01*
X115511507Y-85452245D01*
X115542528Y-85516105D01*
X115534100Y-85586600D01*
X115488897Y-85641347D01*
X115450884Y-85658707D01*
X115301622Y-85698701D01*
X115126780Y-85787788D01*
X115126771Y-85787793D01*
X114974279Y-85911279D01*
X114850793Y-86063771D01*
X114850788Y-86063780D01*
X114761701Y-86238622D01*
X114723918Y-86379633D01*
X114710914Y-86428164D01*
X114707733Y-86468586D01*
X114704500Y-86509660D01*
X110300924Y-86509660D01*
X110259850Y-86468586D01*
X110259840Y-86468578D01*
X110112706Y-86379633D01*
X110044052Y-86358240D01*
X109984967Y-86318877D01*
X109956542Y-86253819D01*
X109967802Y-86183721D01*
X110009266Y-86134733D01*
X110064300Y-86096198D01*
X110226198Y-85934300D01*
X110357523Y-85746749D01*
X110454284Y-85539243D01*
X110513543Y-85318087D01*
X110533498Y-85090000D01*
X110513543Y-84861913D01*
X110454284Y-84640757D01*
X110357523Y-84433251D01*
X110226198Y-84245700D01*
X110064300Y-84083802D01*
X109876749Y-83952477D01*
X109837543Y-83934195D01*
X109784258Y-83887279D01*
X109764796Y-83819002D01*
X109785337Y-83751042D01*
X109837543Y-83705805D01*
X109839997Y-83704660D01*
X109876749Y-83687523D01*
X110064300Y-83556198D01*
X110226198Y-83394300D01*
X110357523Y-83206749D01*
X110454284Y-82999243D01*
X110513543Y-82778087D01*
X110533498Y-82550000D01*
X110513543Y-82321913D01*
X110454284Y-82100757D01*
X110406646Y-81998597D01*
X114705000Y-81998597D01*
X114711505Y-82059093D01*
X114762555Y-82195964D01*
X114762555Y-82195965D01*
X114850095Y-82312904D01*
X114967034Y-82400444D01*
X115103906Y-82451494D01*
X115164402Y-82457999D01*
X115164415Y-82458000D01*
X116459000Y-82458000D01*
X116459000Y-81533674D01*
X116570685Y-81584680D01*
X116677237Y-81600000D01*
X116748763Y-81600000D01*
X116855315Y-81584680D01*
X116967000Y-81533674D01*
X116967000Y-82458000D01*
X118261585Y-82458000D01*
X118261597Y-82457999D01*
X118322093Y-82451494D01*
X118458964Y-82400444D01*
X118458965Y-82400444D01*
X118575904Y-82312904D01*
X118663444Y-82195965D01*
X118663444Y-82195964D01*
X118714494Y-82059093D01*
X118720999Y-81998597D01*
X118721000Y-81998585D01*
X118721000Y-81354000D01*
X117144116Y-81354000D01*
X117172493Y-81309844D01*
X117213000Y-81171889D01*
X117213000Y-81028111D01*
X117172493Y-80890156D01*
X117144116Y-80846000D01*
X118721000Y-80846000D01*
X118721000Y-80201414D01*
X118720999Y-80201402D01*
X118714494Y-80140906D01*
X118663444Y-80004035D01*
X118663444Y-80004034D01*
X118575904Y-79887095D01*
X118458965Y-79799555D01*
X118322093Y-79748505D01*
X118261597Y-79742000D01*
X116967000Y-79742000D01*
X116967000Y-80666325D01*
X116855315Y-80615320D01*
X116748763Y-80600000D01*
X116677237Y-80600000D01*
X116570685Y-80615320D01*
X116459000Y-80666325D01*
X116459000Y-79742000D01*
X115164402Y-79742000D01*
X115103906Y-79748505D01*
X114967035Y-79799555D01*
X114967034Y-79799555D01*
X114850095Y-79887095D01*
X114762555Y-80004034D01*
X114762555Y-80004035D01*
X114711505Y-80140906D01*
X114705000Y-80201402D01*
X114705000Y-80846000D01*
X116281884Y-80846000D01*
X116253507Y-80890156D01*
X116213000Y-81028111D01*
X116213000Y-81171889D01*
X116253507Y-81309844D01*
X116281884Y-81354000D01*
X114705000Y-81354000D01*
X114705000Y-81998597D01*
X110406646Y-81998597D01*
X110357523Y-81893251D01*
X110226198Y-81705700D01*
X110064300Y-81543802D01*
X110037379Y-81524952D01*
X109876749Y-81412477D01*
X109669246Y-81315717D01*
X109669240Y-81315715D01*
X109575771Y-81290670D01*
X109448087Y-81256457D01*
X109220000Y-81236502D01*
X108991913Y-81256457D01*
X108770759Y-81315715D01*
X108770753Y-81315717D01*
X108563250Y-81412477D01*
X108375703Y-81543799D01*
X108375697Y-81543804D01*
X108213804Y-81705697D01*
X108213799Y-81705703D01*
X108082477Y-81893250D01*
X107985717Y-82100753D01*
X107985716Y-82100757D01*
X107926457Y-82321913D01*
X107906502Y-82550000D01*
X107920981Y-82715501D01*
X107926457Y-82778086D01*
X107985715Y-82999240D01*
X107985717Y-82999246D01*
X108082477Y-83206749D01*
X108156609Y-83312621D01*
X108213802Y-83394300D01*
X108375700Y-83556198D01*
X108563251Y-83687523D01*
X108598359Y-83703894D01*
X108602457Y-83705805D01*
X108655742Y-83752722D01*
X108675203Y-83820999D01*
X108654661Y-83888959D01*
X108602457Y-83934195D01*
X108563250Y-83952477D01*
X108375703Y-84083799D01*
X108375697Y-84083804D01*
X108213804Y-84245697D01*
X108213799Y-84245703D01*
X108082477Y-84433250D01*
X107985717Y-84640753D01*
X107985715Y-84640759D01*
X107933567Y-84835377D01*
X107926457Y-84861913D01*
X107906502Y-85090000D01*
X107926457Y-85318087D01*
X107953979Y-85420798D01*
X107985715Y-85539240D01*
X107985717Y-85539246D01*
X108060072Y-85698701D01*
X108082477Y-85746749D01*
X108213802Y-85934300D01*
X108375700Y-86096198D01*
X108375703Y-86096200D01*
X108430732Y-86134732D01*
X108475060Y-86190189D01*
X108482369Y-86260808D01*
X108450338Y-86324169D01*
X108395947Y-86358240D01*
X108327293Y-86379633D01*
X108180159Y-86468578D01*
X108180149Y-86468586D01*
X108058586Y-86590149D01*
X108058578Y-86590159D01*
X107969633Y-86737293D01*
X107918481Y-86901446D01*
X107918481Y-86901447D01*
X107912000Y-86972777D01*
X107912000Y-87376000D01*
X108788884Y-87376000D01*
X108760507Y-87420156D01*
X108720000Y-87558111D01*
X108720000Y-87701889D01*
X108760507Y-87839844D01*
X108788884Y-87884000D01*
X107912001Y-87884000D01*
X107912001Y-88287221D01*
X107918481Y-88358553D01*
X107969633Y-88522706D01*
X108058578Y-88669840D01*
X108058586Y-88669850D01*
X108180149Y-88791413D01*
X108180159Y-88791421D01*
X108327294Y-88880366D01*
X108395946Y-88901759D01*
X108455032Y-88941121D01*
X108483457Y-89006179D01*
X108472197Y-89076277D01*
X108430733Y-89125266D01*
X108375706Y-89163797D01*
X108375697Y-89163804D01*
X108213804Y-89325697D01*
X108213799Y-89325703D01*
X108082477Y-89513250D01*
X107985717Y-89720753D01*
X107985715Y-89720759D01*
X107983939Y-89727387D01*
X107926457Y-89941913D01*
X107926456Y-89941916D01*
X107926456Y-89941919D01*
X107911987Y-90107289D01*
X107886124Y-90173407D01*
X107828620Y-90215047D01*
X107757733Y-90218987D01*
X107697372Y-90185402D01*
X102373883Y-84861913D01*
X97037463Y-79525493D01*
X97034880Y-79522750D01*
X96993273Y-79475785D01*
X96993270Y-79475783D01*
X96993271Y-79475783D01*
X96941655Y-79440154D01*
X96938590Y-79437899D01*
X96920146Y-79423449D01*
X96889226Y-79399225D01*
X96889222Y-79399223D01*
X96879919Y-79395035D01*
X96860069Y-79383840D01*
X96851675Y-79378046D01*
X96828705Y-79369334D01*
X96793043Y-79355809D01*
X96789528Y-79354353D01*
X96732332Y-79328612D01*
X96732330Y-79328611D01*
X96732329Y-79328611D01*
X96722286Y-79326770D01*
X96700336Y-79320650D01*
X96690801Y-79317035D01*
X96690800Y-79317034D01*
X96690798Y-79317034D01*
X96690794Y-79317033D01*
X96638362Y-79310667D01*
X96628537Y-79309473D01*
X96624786Y-79308902D01*
X96583760Y-79301385D01*
X96563094Y-79297598D01*
X96563093Y-79297598D01*
X96500488Y-79301385D01*
X96496685Y-79301500D01*
X87653302Y-79301500D01*
X87649502Y-79301385D01*
X87638953Y-79300747D01*
X87586904Y-79297598D01*
X87525227Y-79308901D01*
X87521465Y-79309474D01*
X87459201Y-79317034D01*
X87449663Y-79320651D01*
X87427706Y-79326772D01*
X87417674Y-79328610D01*
X87417668Y-79328612D01*
X87360492Y-79354345D01*
X87356977Y-79355801D01*
X87298324Y-79378046D01*
X87298319Y-79378048D01*
X87289921Y-79383845D01*
X87270072Y-79395040D01*
X87260777Y-79399223D01*
X87260773Y-79399225D01*
X87211409Y-79437899D01*
X87208346Y-79440153D01*
X87156727Y-79475784D01*
X87156723Y-79475788D01*
X87115142Y-79522722D01*
X87112534Y-79525493D01*
X85483435Y-81154595D01*
X85421122Y-81188620D01*
X85394339Y-81191500D01*
X84191350Y-81191500D01*
X84130803Y-81198009D01*
X84130795Y-81198011D01*
X83993797Y-81249110D01*
X83993792Y-81249112D01*
X83876738Y-81336738D01*
X83789112Y-81453792D01*
X83789110Y-81453797D01*
X83738011Y-81590795D01*
X83738009Y-81590803D01*
X83731500Y-81651350D01*
X83731500Y-83448649D01*
X83738009Y-83509196D01*
X83738011Y-83509204D01*
X83789110Y-83646202D01*
X83789112Y-83646207D01*
X83876738Y-83763261D01*
X83993792Y-83850887D01*
X83993796Y-83850889D01*
X84109312Y-83893975D01*
X84166148Y-83936522D01*
X84190958Y-84003042D01*
X84175866Y-84072416D01*
X84157981Y-84097367D01*
X84014674Y-84253041D01*
X83891580Y-84441451D01*
X83801179Y-84647543D01*
X83801176Y-84647550D01*
X83753455Y-84835999D01*
X83753456Y-84836000D01*
X84658884Y-84836000D01*
X84630507Y-84880156D01*
X84590000Y-85018111D01*
X84590000Y-85161889D01*
X84630507Y-85299844D01*
X84658884Y-85344000D01*
X83753455Y-85344000D01*
X83801176Y-85532449D01*
X83801179Y-85532456D01*
X83891580Y-85738548D01*
X84014674Y-85926958D01*
X84167097Y-86092534D01*
X84344698Y-86230767D01*
X84344704Y-86230771D01*
X84378207Y-86248902D01*
X84428597Y-86298915D01*
X84443949Y-86368232D01*
X84419388Y-86434845D01*
X84378207Y-86470528D01*
X84344430Y-86488807D01*
X84344424Y-86488811D01*
X84166762Y-86627091D01*
X84014279Y-86792729D01*
X84014275Y-86792734D01*
X83891141Y-86981206D01*
X83800703Y-87187386D01*
X83800702Y-87187387D01*
X83745437Y-87405624D01*
X83745436Y-87405630D01*
X83745436Y-87405632D01*
X83726844Y-87630000D01*
X83744232Y-87839844D01*
X83745437Y-87854375D01*
X83800702Y-88072612D01*
X83800703Y-88072613D01*
X83800704Y-88072616D01*
X83861936Y-88212211D01*
X83891141Y-88278793D01*
X84014275Y-88467265D01*
X84014279Y-88467270D01*
X84166762Y-88632908D01*
X84214212Y-88669840D01*
X84344424Y-88771189D01*
X84377680Y-88789186D01*
X84428071Y-88839200D01*
X84443423Y-88908516D01*
X84418862Y-88975129D01*
X84377680Y-89010813D01*
X84344426Y-89028810D01*
X84344424Y-89028811D01*
X84166762Y-89167091D01*
X84014279Y-89332729D01*
X84014275Y-89332734D01*
X83891141Y-89521206D01*
X83800703Y-89727386D01*
X83800702Y-89727387D01*
X83745437Y-89945624D01*
X83745436Y-89945630D01*
X83745436Y-89945632D01*
X83726844Y-90170000D01*
X83745437Y-90394375D01*
X83800702Y-90612612D01*
X83800703Y-90612613D01*
X83891141Y-90818793D01*
X84014275Y-91007265D01*
X84014279Y-91007270D01*
X84166762Y-91172908D01*
X84170992Y-91176200D01*
X84344424Y-91311189D01*
X84377680Y-91329186D01*
X84428071Y-91379200D01*
X84443423Y-91448516D01*
X84418862Y-91515129D01*
X84377680Y-91550813D01*
X84344426Y-91568810D01*
X84344424Y-91568811D01*
X84166762Y-91707091D01*
X84014279Y-91872729D01*
X84014275Y-91872734D01*
X83891141Y-92061206D01*
X83800703Y-92267386D01*
X83800702Y-92267387D01*
X83745437Y-92485624D01*
X83745436Y-92485630D01*
X83745436Y-92485632D01*
X83726844Y-92710000D01*
X83741265Y-92884035D01*
X83745437Y-92934375D01*
X83800702Y-93152612D01*
X83800703Y-93152613D01*
X83800704Y-93152616D01*
X83865234Y-93299731D01*
X83891141Y-93358793D01*
X84014275Y-93547265D01*
X84014279Y-93547270D01*
X84166762Y-93712908D01*
X84189534Y-93730632D01*
X84344424Y-93851189D01*
X84377680Y-93869186D01*
X84428071Y-93919200D01*
X84443423Y-93988516D01*
X84418862Y-94055129D01*
X84377680Y-94090813D01*
X84344426Y-94108810D01*
X84344424Y-94108811D01*
X84166762Y-94247091D01*
X84014279Y-94412729D01*
X84014275Y-94412734D01*
X83891141Y-94601206D01*
X83800703Y-94807386D01*
X83800702Y-94807387D01*
X83745437Y-95025624D01*
X83745436Y-95025630D01*
X83745436Y-95025632D01*
X83726844Y-95250000D01*
X83734177Y-95338500D01*
X83745437Y-95474375D01*
X83800702Y-95692612D01*
X83800703Y-95692613D01*
X83891141Y-95898793D01*
X84014275Y-96087265D01*
X84014279Y-96087270D01*
X84166762Y-96252908D01*
X84170992Y-96256200D01*
X84344424Y-96391189D01*
X84377680Y-96409186D01*
X84428071Y-96459200D01*
X84443423Y-96528516D01*
X84418862Y-96595129D01*
X84377680Y-96630813D01*
X84344426Y-96648810D01*
X84344424Y-96648811D01*
X84166762Y-96787091D01*
X84014279Y-96952729D01*
X84014275Y-96952734D01*
X83891141Y-97141206D01*
X83800703Y-97347386D01*
X83800702Y-97347387D01*
X83745437Y-97565624D01*
X83726844Y-97790000D01*
X83745437Y-98014375D01*
X83800702Y-98232612D01*
X83800703Y-98232613D01*
X83891141Y-98438793D01*
X84014275Y-98627265D01*
X84014279Y-98627270D01*
X84166762Y-98792908D01*
X84170992Y-98796200D01*
X84344424Y-98931189D01*
X84377680Y-98949186D01*
X84428071Y-98999200D01*
X84443423Y-99068516D01*
X84418862Y-99135129D01*
X84377680Y-99170813D01*
X84344426Y-99188810D01*
X84344424Y-99188811D01*
X84166762Y-99327091D01*
X84014279Y-99492729D01*
X84014275Y-99492734D01*
X83891141Y-99681206D01*
X83800703Y-99887386D01*
X83800702Y-99887387D01*
X83745437Y-100105624D01*
X83745436Y-100105630D01*
X83745436Y-100105632D01*
X83726844Y-100330000D01*
X83744232Y-100539844D01*
X83745437Y-100554375D01*
X83800702Y-100772612D01*
X83800703Y-100772613D01*
X83891141Y-100978793D01*
X84014275Y-101167265D01*
X84014279Y-101167270D01*
X84166762Y-101332908D01*
X84214212Y-101369840D01*
X84344424Y-101471189D01*
X84377680Y-101489186D01*
X84428071Y-101539200D01*
X84443423Y-101608516D01*
X84418862Y-101675129D01*
X84377680Y-101710813D01*
X84344426Y-101728810D01*
X84344424Y-101728811D01*
X84166762Y-101867091D01*
X84014279Y-102032729D01*
X84014275Y-102032734D01*
X83891141Y-102221206D01*
X83800703Y-102427386D01*
X83800702Y-102427387D01*
X83745437Y-102645624D01*
X83745436Y-102645630D01*
X83745436Y-102645632D01*
X83730757Y-102822776D01*
X83726844Y-102870000D01*
X83745437Y-103094375D01*
X83800702Y-103312612D01*
X83800703Y-103312613D01*
X83800704Y-103312616D01*
X83891140Y-103518791D01*
X83891141Y-103518793D01*
X84014275Y-103707265D01*
X84014279Y-103707270D01*
X84166762Y-103872908D01*
X84221331Y-103915381D01*
X84344424Y-104011189D01*
X84377680Y-104029186D01*
X84428071Y-104079200D01*
X84443423Y-104148516D01*
X84418862Y-104215129D01*
X84377680Y-104250813D01*
X84344426Y-104268810D01*
X84344424Y-104268811D01*
X84166762Y-104407091D01*
X84014279Y-104572729D01*
X84014275Y-104572734D01*
X83891141Y-104761206D01*
X83800703Y-104967386D01*
X83800702Y-104967387D01*
X83745437Y-105185624D01*
X83726844Y-105410000D01*
X83745437Y-105634375D01*
X83800702Y-105852612D01*
X83800703Y-105852613D01*
X83891141Y-106058793D01*
X84014275Y-106247265D01*
X84014279Y-106247270D01*
X84166762Y-106412908D01*
X84170992Y-106416200D01*
X84344424Y-106551189D01*
X84377680Y-106569186D01*
X84428071Y-106619200D01*
X84443423Y-106688516D01*
X84418862Y-106755129D01*
X84377680Y-106790813D01*
X84344426Y-106808810D01*
X84344424Y-106808811D01*
X84166762Y-106947091D01*
X84014279Y-107112729D01*
X84014275Y-107112734D01*
X83891141Y-107301206D01*
X83800703Y-107507386D01*
X83800702Y-107507387D01*
X83745437Y-107725624D01*
X83745436Y-107725630D01*
X83745436Y-107725632D01*
X83726844Y-107950000D01*
X83734969Y-108048058D01*
X83745437Y-108174375D01*
X83800702Y-108392612D01*
X83800703Y-108392613D01*
X83800704Y-108392616D01*
X83878036Y-108568917D01*
X83891141Y-108598793D01*
X84014275Y-108787265D01*
X84014279Y-108787270D01*
X84166762Y-108952908D01*
X84221331Y-108995381D01*
X84344424Y-109091189D01*
X84377680Y-109109186D01*
X84428071Y-109159200D01*
X84443423Y-109228516D01*
X84418862Y-109295129D01*
X84377680Y-109330813D01*
X84344426Y-109348810D01*
X84344424Y-109348811D01*
X84166762Y-109487091D01*
X84014279Y-109652729D01*
X84014275Y-109652734D01*
X83891141Y-109841206D01*
X83800703Y-110047386D01*
X83800702Y-110047387D01*
X83745437Y-110265624D01*
X83745436Y-110265630D01*
X83745436Y-110265632D01*
X83726844Y-110490000D01*
X83744187Y-110699300D01*
X83745437Y-110714375D01*
X83800702Y-110932612D01*
X83800703Y-110932613D01*
X83800704Y-110932616D01*
X83891140Y-111138791D01*
X83891141Y-111138793D01*
X84014275Y-111327265D01*
X84014279Y-111327270D01*
X84166762Y-111492908D01*
X84170992Y-111496200D01*
X84344424Y-111631189D01*
X84542426Y-111738342D01*
X84542427Y-111738342D01*
X84542428Y-111738343D01*
X84654227Y-111776723D01*
X84755365Y-111811444D01*
X84977431Y-111848500D01*
X84977435Y-111848500D01*
X85202565Y-111848500D01*
X85202569Y-111848500D01*
X85424635Y-111811444D01*
X85637574Y-111738342D01*
X85835576Y-111631189D01*
X86013240Y-111492906D01*
X86165722Y-111327268D01*
X86288860Y-111138791D01*
X86379296Y-110932616D01*
X86434564Y-110714368D01*
X86453156Y-110490000D01*
X86434564Y-110265632D01*
X86379296Y-110047384D01*
X86288860Y-109841209D01*
X86216107Y-109729852D01*
X86165724Y-109652734D01*
X86165720Y-109652729D01*
X86049570Y-109526559D01*
X86013240Y-109487094D01*
X86013239Y-109487093D01*
X86013237Y-109487091D01*
X85908963Y-109405931D01*
X85835576Y-109348811D01*
X85802319Y-109330813D01*
X85751929Y-109280802D01*
X85736576Y-109211485D01*
X85761136Y-109144872D01*
X85802320Y-109109186D01*
X85835576Y-109091189D01*
X86013240Y-108952906D01*
X86165722Y-108787268D01*
X86288860Y-108598791D01*
X86379296Y-108392616D01*
X86434564Y-108174368D01*
X86453156Y-107950000D01*
X86434564Y-107725632D01*
X86379296Y-107507384D01*
X86288860Y-107301209D01*
X86282140Y-107290924D01*
X86165724Y-107112734D01*
X86165720Y-107112729D01*
X86049570Y-106986559D01*
X86013240Y-106947094D01*
X86013239Y-106947093D01*
X86013237Y-106947091D01*
X85931382Y-106883381D01*
X85835576Y-106808811D01*
X85802319Y-106790813D01*
X85751929Y-106740802D01*
X85736576Y-106671485D01*
X85761136Y-106604872D01*
X85802320Y-106569186D01*
X85835576Y-106551189D01*
X86013240Y-106412906D01*
X86165722Y-106247268D01*
X86288860Y-106058791D01*
X86379296Y-105852616D01*
X86434564Y-105634368D01*
X86453156Y-105410000D01*
X86434564Y-105185632D01*
X86379296Y-104967384D01*
X86288860Y-104761209D01*
X86282140Y-104750924D01*
X86165724Y-104572734D01*
X86165720Y-104572729D01*
X86013237Y-104407091D01*
X85931382Y-104343381D01*
X85835576Y-104268811D01*
X85802319Y-104250813D01*
X85751929Y-104200802D01*
X85736576Y-104131485D01*
X85761136Y-104064872D01*
X85802320Y-104029186D01*
X85835576Y-104011189D01*
X86013240Y-103872906D01*
X86165722Y-103707268D01*
X86288860Y-103518791D01*
X86379296Y-103312616D01*
X86434564Y-103094368D01*
X86453156Y-102870000D01*
X86434564Y-102645632D01*
X86390468Y-102471501D01*
X86379297Y-102427387D01*
X86379296Y-102427386D01*
X86379296Y-102427384D01*
X86288860Y-102221209D01*
X86263747Y-102182771D01*
X86165724Y-102032734D01*
X86165720Y-102032729D01*
X86049570Y-101906559D01*
X86013240Y-101867094D01*
X86013239Y-101867093D01*
X86013237Y-101867091D01*
X85931382Y-101803381D01*
X85835576Y-101728811D01*
X85802319Y-101710813D01*
X85751929Y-101660802D01*
X85736576Y-101591485D01*
X85761136Y-101524872D01*
X85802320Y-101489186D01*
X85835576Y-101471189D01*
X86013240Y-101332906D01*
X86165722Y-101167268D01*
X86288860Y-100978791D01*
X86379296Y-100772616D01*
X86434564Y-100554368D01*
X86453156Y-100330000D01*
X86434564Y-100105632D01*
X86404903Y-99988502D01*
X86379297Y-99887387D01*
X86379296Y-99887386D01*
X86379296Y-99887384D01*
X86288860Y-99681209D01*
X86236749Y-99601447D01*
X86165724Y-99492734D01*
X86165720Y-99492729D01*
X86013237Y-99327091D01*
X85914097Y-99249927D01*
X85835576Y-99188811D01*
X85802319Y-99170813D01*
X85751929Y-99120802D01*
X85736576Y-99051485D01*
X85761136Y-98984872D01*
X85802320Y-98949186D01*
X85835576Y-98931189D01*
X86013240Y-98792906D01*
X86165722Y-98627268D01*
X86288860Y-98438791D01*
X86379296Y-98232616D01*
X86434564Y-98014368D01*
X86453156Y-97790000D01*
X86434564Y-97565632D01*
X86379296Y-97347384D01*
X86288860Y-97141209D01*
X86282140Y-97130924D01*
X86165724Y-96952734D01*
X86165720Y-96952729D01*
X86013237Y-96787091D01*
X85931382Y-96723381D01*
X85835576Y-96648811D01*
X85802319Y-96630813D01*
X85751929Y-96580802D01*
X85736576Y-96511485D01*
X85761136Y-96444872D01*
X85802320Y-96409186D01*
X85835576Y-96391189D01*
X86013240Y-96252906D01*
X86165722Y-96087268D01*
X86288860Y-95898791D01*
X86379296Y-95692616D01*
X86434564Y-95474368D01*
X86453156Y-95250000D01*
X86434564Y-95025632D01*
X86417414Y-94957908D01*
X86379297Y-94807387D01*
X86379296Y-94807386D01*
X86379296Y-94807384D01*
X86288860Y-94601209D01*
X86282140Y-94590924D01*
X86165724Y-94412734D01*
X86165720Y-94412729D01*
X86013237Y-94247091D01*
X85907566Y-94164844D01*
X85835576Y-94108811D01*
X85802319Y-94090813D01*
X85751929Y-94040802D01*
X85736576Y-93971485D01*
X85761136Y-93904872D01*
X85802320Y-93869186D01*
X85835576Y-93851189D01*
X86013240Y-93712906D01*
X86165722Y-93547268D01*
X86288860Y-93358791D01*
X86379296Y-93152616D01*
X86434564Y-92934368D01*
X86453156Y-92710000D01*
X86434564Y-92485632D01*
X86379296Y-92267384D01*
X86288860Y-92061209D01*
X86282140Y-92050924D01*
X86165724Y-91872734D01*
X86165720Y-91872729D01*
X86013237Y-91707091D01*
X85931382Y-91643381D01*
X85835576Y-91568811D01*
X85802319Y-91550813D01*
X85751929Y-91500802D01*
X85736576Y-91431485D01*
X85761136Y-91364872D01*
X85802320Y-91329186D01*
X85835576Y-91311189D01*
X86013240Y-91172906D01*
X86165722Y-91007268D01*
X86288860Y-90818791D01*
X86379296Y-90612616D01*
X86434564Y-90394368D01*
X86453156Y-90170000D01*
X86434564Y-89945632D01*
X86379296Y-89727384D01*
X86288860Y-89521209D01*
X86282140Y-89510924D01*
X86165724Y-89332734D01*
X86165720Y-89332729D01*
X86013237Y-89167091D01*
X85931382Y-89103381D01*
X85835576Y-89028811D01*
X85802319Y-89010813D01*
X85751929Y-88960802D01*
X85736576Y-88891485D01*
X85761136Y-88824872D01*
X85802320Y-88789186D01*
X85835576Y-88771189D01*
X86013240Y-88632906D01*
X86165722Y-88467268D01*
X86288860Y-88278791D01*
X86379296Y-88072616D01*
X86434564Y-87854368D01*
X86453156Y-87630000D01*
X86434564Y-87405632D01*
X86379296Y-87187384D01*
X86288860Y-86981209D01*
X86236749Y-86901447D01*
X86165724Y-86792734D01*
X86165720Y-86792729D01*
X86013237Y-86627091D01*
X85931382Y-86563381D01*
X85835576Y-86488811D01*
X85801792Y-86470528D01*
X85751402Y-86420516D01*
X85736050Y-86351199D01*
X85760610Y-86284586D01*
X85801793Y-86248901D01*
X85835300Y-86230767D01*
X85835301Y-86230767D01*
X86012902Y-86092534D01*
X86165325Y-85926958D01*
X86288419Y-85738548D01*
X86378820Y-85532456D01*
X86378823Y-85532449D01*
X86426544Y-85344000D01*
X85521116Y-85344000D01*
X85549493Y-85299844D01*
X85590000Y-85161889D01*
X85590000Y-85018111D01*
X85549493Y-84880156D01*
X85521116Y-84836000D01*
X86426544Y-84836000D01*
X86426544Y-84835999D01*
X86378823Y-84647550D01*
X86378820Y-84647543D01*
X86288419Y-84441451D01*
X86165325Y-84253041D01*
X86022018Y-84097367D01*
X85990598Y-84033702D01*
X85998585Y-83963156D01*
X86043444Y-83908127D01*
X86070679Y-83893977D01*
X86186204Y-83850889D01*
X86303261Y-83763261D01*
X86390889Y-83646204D01*
X86441989Y-83509201D01*
X86442746Y-83502165D01*
X86448499Y-83448649D01*
X86448500Y-83448632D01*
X86448500Y-82245660D01*
X86468502Y-82177539D01*
X86485405Y-82156565D01*
X87886566Y-80755405D01*
X87948878Y-80721379D01*
X87975661Y-80718500D01*
X96174340Y-80718500D01*
X96242461Y-80738502D01*
X96263435Y-80755405D01*
X107890018Y-92381988D01*
X107924044Y-92444300D01*
X107926443Y-92482062D01*
X107915862Y-92603011D01*
X107906795Y-92706656D01*
X107906502Y-92710000D01*
X107926457Y-92938087D01*
X107953242Y-93038049D01*
X107985715Y-93159240D01*
X107985717Y-93159246D01*
X108082477Y-93366749D01*
X108208879Y-93547270D01*
X108213802Y-93554300D01*
X108375700Y-93716198D01*
X108563251Y-93847523D01*
X108598359Y-93863894D01*
X108602457Y-93865805D01*
X108655742Y-93912722D01*
X108675203Y-93980999D01*
X108654661Y-94048959D01*
X108602457Y-94094195D01*
X108563250Y-94112477D01*
X108375703Y-94243799D01*
X108375697Y-94243804D01*
X108213804Y-94405697D01*
X108213799Y-94405703D01*
X108082477Y-94593250D01*
X107985717Y-94800753D01*
X107985715Y-94800759D01*
X107926457Y-95021913D01*
X107906502Y-95250000D01*
X107926457Y-95478086D01*
X107985715Y-95699240D01*
X107985717Y-95699246D01*
X108082477Y-95906749D01*
X108208879Y-96087270D01*
X108213802Y-96094300D01*
X108375700Y-96256198D01*
X108563251Y-96387523D01*
X108598359Y-96403894D01*
X108602457Y-96405805D01*
X108655742Y-96452722D01*
X108675203Y-96520999D01*
X108654661Y-96588959D01*
X108602457Y-96634195D01*
X108563250Y-96652477D01*
X108375703Y-96783799D01*
X108375697Y-96783804D01*
X108213804Y-96945697D01*
X108213799Y-96945703D01*
X108082477Y-97133250D01*
X107985717Y-97340753D01*
X107985715Y-97340759D01*
X107926457Y-97561913D01*
X107906502Y-97790000D01*
X107926457Y-98018086D01*
X107985715Y-98239240D01*
X107985717Y-98239246D01*
X108082477Y-98446749D01*
X108208879Y-98627270D01*
X108213802Y-98634300D01*
X108375700Y-98796198D01*
X108375703Y-98796200D01*
X108430732Y-98834732D01*
X108475060Y-98890189D01*
X108482369Y-98960808D01*
X108450338Y-99024169D01*
X108395947Y-99058240D01*
X108327293Y-99079633D01*
X108180159Y-99168578D01*
X108180149Y-99168586D01*
X108058586Y-99290149D01*
X108058578Y-99290159D01*
X107969633Y-99437293D01*
X107918481Y-99601446D01*
X107918481Y-99601447D01*
X107912000Y-99672777D01*
X107912000Y-100076000D01*
X108788884Y-100076000D01*
X108760507Y-100120156D01*
X108720000Y-100258111D01*
X108720000Y-100401889D01*
X108760507Y-100539844D01*
X108788884Y-100584000D01*
X107912001Y-100584000D01*
X107912001Y-100987221D01*
X107918481Y-101058553D01*
X107969633Y-101222706D01*
X108058578Y-101369840D01*
X108058586Y-101369850D01*
X108180149Y-101491413D01*
X108180159Y-101491421D01*
X108327294Y-101580366D01*
X108395946Y-101601759D01*
X108455032Y-101641121D01*
X108483457Y-101706179D01*
X108472197Y-101776277D01*
X108430733Y-101825266D01*
X108375706Y-101863797D01*
X108375697Y-101863804D01*
X108213804Y-102025697D01*
X108213799Y-102025703D01*
X108082477Y-102213250D01*
X107985717Y-102420753D01*
X107985715Y-102420759D01*
X107972765Y-102469090D01*
X107926457Y-102641913D01*
X107906502Y-102870000D01*
X107926457Y-103098087D01*
X107935931Y-103133444D01*
X107985715Y-103319240D01*
X107985717Y-103319246D01*
X108082477Y-103526749D01*
X108208879Y-103707270D01*
X108213802Y-103714300D01*
X108375700Y-103876198D01*
X108563251Y-104007523D01*
X108598359Y-104023894D01*
X108602457Y-104025805D01*
X108655742Y-104072722D01*
X108675203Y-104140999D01*
X108654661Y-104208959D01*
X108602457Y-104254195D01*
X108563250Y-104272477D01*
X108375703Y-104403799D01*
X108375697Y-104403804D01*
X108213804Y-104565697D01*
X108213799Y-104565703D01*
X108082477Y-104753250D01*
X107985717Y-104960753D01*
X107985715Y-104960759D01*
X107926457Y-105181913D01*
X107906502Y-105410000D01*
X107926457Y-105638086D01*
X107985715Y-105859240D01*
X107985717Y-105859246D01*
X108082477Y-106066749D01*
X108208879Y-106247270D01*
X108213802Y-106254300D01*
X108375700Y-106416198D01*
X108563251Y-106547523D01*
X108591409Y-106560653D01*
X108602457Y-106565805D01*
X108655742Y-106612722D01*
X108675203Y-106680999D01*
X108654661Y-106748959D01*
X108602457Y-106794195D01*
X108563250Y-106812477D01*
X108375703Y-106943799D01*
X108375697Y-106943804D01*
X108213804Y-107105697D01*
X108213799Y-107105703D01*
X108082477Y-107293250D01*
X107985717Y-107500753D01*
X107985715Y-107500759D01*
X107926457Y-107721913D01*
X107906502Y-107950000D01*
X107926457Y-108178090D01*
X107943459Y-108241541D01*
X107941769Y-108312518D01*
X107910847Y-108363247D01*
X93591336Y-122682757D01*
X93578901Y-122692721D01*
X93579089Y-122692948D01*
X93572980Y-122698001D01*
X93525016Y-122749078D01*
X93503866Y-122770227D01*
X93499560Y-122775777D01*
X93495714Y-122780279D01*
X93463417Y-122814674D01*
X93463411Y-122814683D01*
X93453651Y-122832435D01*
X93442803Y-122848950D01*
X93430386Y-122864958D01*
X93411645Y-122908264D01*
X93409034Y-122913594D01*
X93386305Y-122954939D01*
X93386303Y-122954944D01*
X93381267Y-122974559D01*
X93374864Y-122993262D01*
X93366819Y-123011852D01*
X93359437Y-123058456D01*
X93358233Y-123064268D01*
X93346500Y-123109968D01*
X93346500Y-123130223D01*
X93344949Y-123149933D01*
X93341780Y-123169942D01*
X93341780Y-123169943D01*
X93346220Y-123216917D01*
X93346500Y-123222850D01*
X93346500Y-130495403D01*
X93326498Y-130563524D01*
X93309595Y-130584499D01*
X92966588Y-130927505D01*
X92904276Y-130961530D01*
X92833460Y-130956465D01*
X92776625Y-130913918D01*
X92751814Y-130847398D01*
X92751972Y-130827431D01*
X92753498Y-130810000D01*
X92733543Y-130581913D01*
X92674284Y-130360757D01*
X92577523Y-130153251D01*
X92446198Y-129965700D01*
X92284300Y-129803802D01*
X92270301Y-129794000D01*
X92221998Y-129760177D01*
X92096749Y-129672477D01*
X92057543Y-129654195D01*
X92004258Y-129607279D01*
X91984796Y-129539002D01*
X92005337Y-129471042D01*
X92057543Y-129425805D01*
X92071911Y-129419105D01*
X92096749Y-129407523D01*
X92284300Y-129276198D01*
X92446198Y-129114300D01*
X92577523Y-128926749D01*
X92674284Y-128719243D01*
X92733543Y-128498087D01*
X92753498Y-128270000D01*
X92733543Y-128041913D01*
X92674284Y-127820757D01*
X92577523Y-127613251D01*
X92446198Y-127425700D01*
X92284300Y-127263802D01*
X92250793Y-127240340D01*
X92229267Y-127225267D01*
X92184939Y-127169810D01*
X92177630Y-127099190D01*
X92209661Y-127035830D01*
X92264054Y-127001759D01*
X92332703Y-126980367D01*
X92332704Y-126980367D01*
X92479840Y-126891421D01*
X92479850Y-126891413D01*
X92601413Y-126769850D01*
X92601421Y-126769840D01*
X92690366Y-126622706D01*
X92741518Y-126458553D01*
X92741518Y-126458552D01*
X92748000Y-126387222D01*
X92748000Y-125984000D01*
X91871116Y-125984000D01*
X91899493Y-125939844D01*
X91940000Y-125801889D01*
X91940000Y-125658111D01*
X91899493Y-125520156D01*
X91871116Y-125476000D01*
X92747999Y-125476000D01*
X92747999Y-125072778D01*
X92741518Y-125001446D01*
X92690366Y-124837293D01*
X92601421Y-124690159D01*
X92601413Y-124690149D01*
X92479850Y-124568586D01*
X92479840Y-124568578D01*
X92332706Y-124479633D01*
X92264052Y-124458240D01*
X92204967Y-124418877D01*
X92176542Y-124353819D01*
X92187802Y-124283721D01*
X92229266Y-124234733D01*
X92284300Y-124196198D01*
X92446198Y-124034300D01*
X92577523Y-123846749D01*
X92674284Y-123639243D01*
X92733543Y-123418087D01*
X92753498Y-123190000D01*
X92733543Y-122961913D01*
X92674284Y-122740757D01*
X92577523Y-122533251D01*
X92446198Y-122345700D01*
X92284300Y-122183802D01*
X92096749Y-122052477D01*
X92096750Y-122052477D01*
X92096748Y-122052476D01*
X92078481Y-122043958D01*
X92025197Y-121997040D01*
X92005737Y-121928763D01*
X92026280Y-121860803D01*
X92078485Y-121815569D01*
X92138626Y-121787525D01*
X92138627Y-121787525D01*
X92138631Y-121787522D01*
X92326181Y-121656198D01*
X92488079Y-121494300D01*
X92619404Y-121306749D01*
X92716165Y-121099243D01*
X92775424Y-120878087D01*
X92795379Y-120650000D01*
X92775424Y-120421913D01*
X92716165Y-120200757D01*
X92619404Y-119993251D01*
X92488079Y-119805700D01*
X92326181Y-119643802D01*
X92138630Y-119512477D01*
X92078483Y-119484430D01*
X92025198Y-119437513D01*
X92005737Y-119369235D01*
X92026279Y-119301276D01*
X92078483Y-119256040D01*
X92096749Y-119247523D01*
X92284300Y-119116198D01*
X92446198Y-118954300D01*
X92577523Y-118766749D01*
X92674284Y-118559243D01*
X92733543Y-118338087D01*
X92753498Y-118110000D01*
X92733543Y-117881913D01*
X92674284Y-117660757D01*
X92577523Y-117453251D01*
X92446198Y-117265700D01*
X92284300Y-117103802D01*
X92096749Y-116972477D01*
X92057543Y-116954195D01*
X92004258Y-116907279D01*
X91984796Y-116839002D01*
X92005337Y-116771042D01*
X92057543Y-116725805D01*
X92059997Y-116724660D01*
X92096749Y-116707523D01*
X92284300Y-116576198D01*
X92446198Y-116414300D01*
X92577523Y-116226749D01*
X92674284Y-116019243D01*
X92733543Y-115798087D01*
X92753498Y-115570000D01*
X92733543Y-115341913D01*
X92674284Y-115120757D01*
X92577523Y-114913251D01*
X92446198Y-114725700D01*
X92284300Y-114563802D01*
X92284293Y-114563797D01*
X92229267Y-114525267D01*
X92184939Y-114469810D01*
X92177630Y-114399190D01*
X92209661Y-114335830D01*
X92264054Y-114301759D01*
X92332703Y-114280367D01*
X92332704Y-114280367D01*
X92479840Y-114191421D01*
X92479850Y-114191413D01*
X92601413Y-114069850D01*
X92601421Y-114069840D01*
X92690366Y-113922706D01*
X92741518Y-113758553D01*
X92741518Y-113758552D01*
X92748000Y-113687222D01*
X92748000Y-113284000D01*
X91871116Y-113284000D01*
X91899493Y-113239844D01*
X91940000Y-113101889D01*
X91940000Y-112958111D01*
X91899493Y-112820156D01*
X91871116Y-112776000D01*
X92747999Y-112776000D01*
X92747999Y-112372778D01*
X92741518Y-112301446D01*
X92690366Y-112137293D01*
X92601421Y-111990159D01*
X92601413Y-111990149D01*
X92479850Y-111868586D01*
X92479840Y-111868578D01*
X92332706Y-111779633D01*
X92264052Y-111758240D01*
X92204967Y-111718877D01*
X92176542Y-111653819D01*
X92187802Y-111583721D01*
X92229266Y-111534733D01*
X92284300Y-111496198D01*
X92446198Y-111334300D01*
X92577523Y-111146749D01*
X92674284Y-110939243D01*
X92733543Y-110718087D01*
X92753498Y-110490000D01*
X92733543Y-110261913D01*
X92674284Y-110040757D01*
X92577523Y-109833251D01*
X92446198Y-109645700D01*
X92284300Y-109483802D01*
X92096749Y-109352477D01*
X92057543Y-109334195D01*
X92004258Y-109287279D01*
X91984796Y-109219002D01*
X92005337Y-109151042D01*
X92057543Y-109105805D01*
X92059997Y-109104660D01*
X92096749Y-109087523D01*
X92284300Y-108956198D01*
X92446198Y-108794300D01*
X92577523Y-108606749D01*
X92674284Y-108399243D01*
X92733543Y-108178087D01*
X92753498Y-107950000D01*
X92733543Y-107721913D01*
X92674284Y-107500757D01*
X92577523Y-107293251D01*
X92446198Y-107105700D01*
X92284300Y-106943802D01*
X92282303Y-106942404D01*
X92221998Y-106900177D01*
X92096749Y-106812477D01*
X92057543Y-106794195D01*
X92004258Y-106747279D01*
X91984796Y-106679002D01*
X92005337Y-106611042D01*
X92057543Y-106565805D01*
X92068591Y-106560653D01*
X92096749Y-106547523D01*
X92284300Y-106416198D01*
X92446198Y-106254300D01*
X92577523Y-106066749D01*
X92674284Y-105859243D01*
X92733543Y-105638087D01*
X92753498Y-105410000D01*
X92733543Y-105181913D01*
X92674284Y-104960757D01*
X92577523Y-104753251D01*
X92446198Y-104565700D01*
X92284300Y-104403802D01*
X92096749Y-104272477D01*
X92057543Y-104254195D01*
X92004258Y-104207279D01*
X91984796Y-104139002D01*
X92005337Y-104071042D01*
X92057543Y-104025805D01*
X92059997Y-104024660D01*
X92096749Y-104007523D01*
X92284300Y-103876198D01*
X92446198Y-103714300D01*
X92577523Y-103526749D01*
X92674284Y-103319243D01*
X92733543Y-103098087D01*
X92753498Y-102870000D01*
X92733543Y-102641913D01*
X92674284Y-102420757D01*
X92577523Y-102213251D01*
X92446198Y-102025700D01*
X92284300Y-101863802D01*
X92284293Y-101863797D01*
X92229267Y-101825267D01*
X92184939Y-101769810D01*
X92177630Y-101699190D01*
X92209661Y-101635830D01*
X92264054Y-101601759D01*
X92332703Y-101580367D01*
X92332704Y-101580367D01*
X92479840Y-101491421D01*
X92479850Y-101491413D01*
X92601413Y-101369850D01*
X92601421Y-101369840D01*
X92690366Y-101222706D01*
X92741518Y-101058553D01*
X92741518Y-101058552D01*
X92748000Y-100987222D01*
X92748000Y-100584000D01*
X91871116Y-100584000D01*
X91899493Y-100539844D01*
X91940000Y-100401889D01*
X91940000Y-100258111D01*
X91899493Y-100120156D01*
X91871116Y-100076000D01*
X92747999Y-100076000D01*
X92747999Y-99672778D01*
X92741518Y-99601446D01*
X92690366Y-99437293D01*
X92601421Y-99290159D01*
X92601413Y-99290149D01*
X92479850Y-99168586D01*
X92479840Y-99168578D01*
X92332706Y-99079633D01*
X92264052Y-99058240D01*
X92204967Y-99018877D01*
X92176542Y-98953819D01*
X92187802Y-98883721D01*
X92229266Y-98834733D01*
X92284300Y-98796198D01*
X92446198Y-98634300D01*
X92577523Y-98446749D01*
X92674284Y-98239243D01*
X92733543Y-98018087D01*
X92753498Y-97790000D01*
X92733543Y-97561913D01*
X92674284Y-97340757D01*
X92577523Y-97133251D01*
X92446198Y-96945700D01*
X92284300Y-96783802D01*
X92096749Y-96652477D01*
X92057543Y-96634195D01*
X92004258Y-96587279D01*
X91984796Y-96519002D01*
X92005337Y-96451042D01*
X92057543Y-96405805D01*
X92059997Y-96404660D01*
X92096749Y-96387523D01*
X92284300Y-96256198D01*
X92446198Y-96094300D01*
X92577523Y-95906749D01*
X92674284Y-95699243D01*
X92733543Y-95478087D01*
X92753498Y-95250000D01*
X92733543Y-95021913D01*
X92674284Y-94800757D01*
X92577523Y-94593251D01*
X92446198Y-94405700D01*
X92284300Y-94243802D01*
X92270301Y-94234000D01*
X92192279Y-94179368D01*
X92096749Y-94112477D01*
X92057543Y-94094195D01*
X92004258Y-94047279D01*
X91984796Y-93979002D01*
X92005337Y-93911042D01*
X92057543Y-93865805D01*
X92059997Y-93864660D01*
X92096749Y-93847523D01*
X92284300Y-93716198D01*
X92446198Y-93554300D01*
X92577523Y-93366749D01*
X92674284Y-93159243D01*
X92733543Y-92938087D01*
X92753498Y-92710000D01*
X92733543Y-92481913D01*
X92674284Y-92260757D01*
X92577523Y-92053251D01*
X92446198Y-91865700D01*
X92284300Y-91703802D01*
X92096749Y-91572477D01*
X92057543Y-91554195D01*
X92004258Y-91507279D01*
X91984796Y-91439002D01*
X92005337Y-91371042D01*
X92057543Y-91325805D01*
X92059997Y-91324660D01*
X92096749Y-91307523D01*
X92284300Y-91176198D01*
X92446198Y-91014300D01*
X92577523Y-90826749D01*
X92674284Y-90619243D01*
X92733543Y-90398087D01*
X92753498Y-90170000D01*
X92733543Y-89941913D01*
X92674284Y-89720757D01*
X92577523Y-89513251D01*
X92446198Y-89325700D01*
X92284300Y-89163802D01*
X92284293Y-89163797D01*
X92229267Y-89125267D01*
X92184939Y-89069810D01*
X92177630Y-88999190D01*
X92209661Y-88935830D01*
X92264054Y-88901759D01*
X92332703Y-88880367D01*
X92332704Y-88880367D01*
X92479840Y-88791421D01*
X92479850Y-88791413D01*
X92601413Y-88669850D01*
X92601421Y-88669840D01*
X92690366Y-88522706D01*
X92741518Y-88358553D01*
X92741518Y-88358552D01*
X92748000Y-88287222D01*
X92748000Y-87884000D01*
X91871116Y-87884000D01*
X91899493Y-87839844D01*
X91940000Y-87701889D01*
X91940000Y-87558111D01*
X91899493Y-87420156D01*
X91871116Y-87376000D01*
X92747999Y-87376000D01*
X92747999Y-86972778D01*
X92741518Y-86901446D01*
X92690366Y-86737293D01*
X92601421Y-86590159D01*
X92601413Y-86590149D01*
X92479850Y-86468586D01*
X92479840Y-86468578D01*
X92332706Y-86379633D01*
X92264052Y-86358240D01*
X92204967Y-86318877D01*
X92176542Y-86253819D01*
X92187802Y-86183721D01*
X92229266Y-86134733D01*
X92284300Y-86096198D01*
X92446198Y-85934300D01*
X92577523Y-85746749D01*
X92674284Y-85539243D01*
X92733543Y-85318087D01*
X92753498Y-85090000D01*
X92733543Y-84861913D01*
X92674284Y-84640757D01*
X92577523Y-84433251D01*
X92446198Y-84245700D01*
X92284300Y-84083802D01*
X92096749Y-83952477D01*
X92057543Y-83934195D01*
X92004258Y-83887279D01*
X91984796Y-83819002D01*
X92005337Y-83751042D01*
X92057543Y-83705805D01*
X92059997Y-83704660D01*
X92096749Y-83687523D01*
X92284300Y-83556198D01*
X92446198Y-83394300D01*
X92577523Y-83206749D01*
X92674284Y-82999243D01*
X92733543Y-82778087D01*
X92753498Y-82550000D01*
X92733543Y-82321913D01*
X92674284Y-82100757D01*
X92577523Y-81893251D01*
X92446198Y-81705700D01*
X92284300Y-81543802D01*
X92257379Y-81524952D01*
X92096749Y-81412477D01*
X91889246Y-81315717D01*
X91889240Y-81315715D01*
X91795771Y-81290670D01*
X91668087Y-81256457D01*
X91440000Y-81236502D01*
X91211913Y-81256457D01*
X90990759Y-81315715D01*
X90990753Y-81315717D01*
X90783250Y-81412477D01*
X90595703Y-81543799D01*
X90595697Y-81543804D01*
X90433804Y-81705697D01*
X90433799Y-81705703D01*
X90302477Y-81893250D01*
X90205717Y-82100753D01*
X90205716Y-82100757D01*
X90146457Y-82321913D01*
X90126502Y-82550000D01*
X90140981Y-82715501D01*
X90146457Y-82778086D01*
X90205715Y-82999240D01*
X90205717Y-82999246D01*
X90302477Y-83206749D01*
X90376609Y-83312621D01*
X90433802Y-83394300D01*
X90595700Y-83556198D01*
X90783251Y-83687523D01*
X90818359Y-83703894D01*
X90822457Y-83705805D01*
X90875742Y-83752722D01*
X90895203Y-83820999D01*
X90874661Y-83888959D01*
X90822457Y-83934195D01*
X90783250Y-83952477D01*
X90595703Y-84083799D01*
X90595697Y-84083804D01*
X90433804Y-84245697D01*
X90433799Y-84245703D01*
X90302477Y-84433250D01*
X90205717Y-84640753D01*
X90205715Y-84640759D01*
X90153567Y-84835377D01*
X90146457Y-84861913D01*
X90126502Y-85090000D01*
X90146457Y-85318087D01*
X90173979Y-85420798D01*
X90205715Y-85539240D01*
X90205717Y-85539246D01*
X90280072Y-85698701D01*
X90302477Y-85746749D01*
X90433802Y-85934300D01*
X90595700Y-86096198D01*
X90595703Y-86096200D01*
X90650732Y-86134732D01*
X90695060Y-86190189D01*
X90702369Y-86260808D01*
X90670338Y-86324169D01*
X90615947Y-86358240D01*
X90547293Y-86379633D01*
X90400159Y-86468578D01*
X90400149Y-86468586D01*
X90278586Y-86590149D01*
X90278578Y-86590159D01*
X90189633Y-86737293D01*
X90138481Y-86901446D01*
X90138481Y-86901447D01*
X90132000Y-86972777D01*
X90132000Y-87376000D01*
X91008884Y-87376000D01*
X90980507Y-87420156D01*
X90940000Y-87558111D01*
X90940000Y-87701889D01*
X90980507Y-87839844D01*
X91008884Y-87884000D01*
X90132001Y-87884000D01*
X90132001Y-88287221D01*
X90138481Y-88358553D01*
X90189633Y-88522706D01*
X90278578Y-88669840D01*
X90278586Y-88669850D01*
X90400149Y-88791413D01*
X90400159Y-88791421D01*
X90547294Y-88880366D01*
X90615946Y-88901759D01*
X90675032Y-88941121D01*
X90703457Y-89006179D01*
X90692197Y-89076277D01*
X90650733Y-89125266D01*
X90595706Y-89163797D01*
X90595697Y-89163804D01*
X90433804Y-89325697D01*
X90433799Y-89325703D01*
X90302477Y-89513250D01*
X90205717Y-89720753D01*
X90205715Y-89720759D01*
X90203939Y-89727387D01*
X90146457Y-89941913D01*
X90126502Y-90170000D01*
X90127849Y-90185402D01*
X90146457Y-90398086D01*
X90205715Y-90619240D01*
X90205717Y-90619246D01*
X90302477Y-90826749D01*
X90428879Y-91007270D01*
X90433802Y-91014300D01*
X90595700Y-91176198D01*
X90783251Y-91307523D01*
X90818359Y-91323894D01*
X90822457Y-91325805D01*
X90875742Y-91372722D01*
X90895203Y-91440999D01*
X90874661Y-91508959D01*
X90822457Y-91554195D01*
X90783250Y-91572477D01*
X90595703Y-91703799D01*
X90595697Y-91703804D01*
X90433804Y-91865697D01*
X90433799Y-91865703D01*
X90302477Y-92053250D01*
X90205717Y-92260753D01*
X90205715Y-92260759D01*
X90203939Y-92267387D01*
X90146457Y-92481913D01*
X90126502Y-92710000D01*
X90146457Y-92938087D01*
X90173242Y-93038049D01*
X90205715Y-93159240D01*
X90205717Y-93159246D01*
X90302477Y-93366749D01*
X90428879Y-93547270D01*
X90433802Y-93554300D01*
X90595700Y-93716198D01*
X90783251Y-93847523D01*
X90818359Y-93863894D01*
X90822457Y-93865805D01*
X90875742Y-93912722D01*
X90895203Y-93980999D01*
X90874661Y-94048959D01*
X90822457Y-94094195D01*
X90783250Y-94112477D01*
X90595703Y-94243799D01*
X90595697Y-94243804D01*
X90433804Y-94405697D01*
X90433799Y-94405703D01*
X90302477Y-94593250D01*
X90205717Y-94800753D01*
X90205715Y-94800759D01*
X90146457Y-95021913D01*
X90126502Y-95250000D01*
X90146457Y-95478086D01*
X90205715Y-95699240D01*
X90205717Y-95699246D01*
X90302477Y-95906749D01*
X90428879Y-96087270D01*
X90433802Y-96094300D01*
X90595700Y-96256198D01*
X90783251Y-96387523D01*
X90818359Y-96403894D01*
X90822457Y-96405805D01*
X90875742Y-96452722D01*
X90895203Y-96520999D01*
X90874661Y-96588959D01*
X90822457Y-96634195D01*
X90783250Y-96652477D01*
X90595703Y-96783799D01*
X90595697Y-96783804D01*
X90433804Y-96945697D01*
X90433799Y-96945703D01*
X90302477Y-97133250D01*
X90205717Y-97340753D01*
X90205715Y-97340759D01*
X90146457Y-97561913D01*
X90126502Y-97790000D01*
X90146457Y-98018086D01*
X90205715Y-98239240D01*
X90205717Y-98239246D01*
X90302477Y-98446749D01*
X90428879Y-98627270D01*
X90433802Y-98634300D01*
X90595700Y-98796198D01*
X90595703Y-98796200D01*
X90650732Y-98834732D01*
X90695060Y-98890189D01*
X90702369Y-98960808D01*
X90670338Y-99024169D01*
X90615947Y-99058240D01*
X90547293Y-99079633D01*
X90400159Y-99168578D01*
X90400149Y-99168586D01*
X90278586Y-99290149D01*
X90278578Y-99290159D01*
X90189633Y-99437293D01*
X90138481Y-99601446D01*
X90138481Y-99601447D01*
X90132000Y-99672777D01*
X90132000Y-100076000D01*
X91008884Y-100076000D01*
X90980507Y-100120156D01*
X90940000Y-100258111D01*
X90940000Y-100401889D01*
X90980507Y-100539844D01*
X91008884Y-100584000D01*
X90132001Y-100584000D01*
X90132001Y-100987221D01*
X90138481Y-101058553D01*
X90189633Y-101222706D01*
X90278578Y-101369840D01*
X90278586Y-101369850D01*
X90400149Y-101491413D01*
X90400159Y-101491421D01*
X90547294Y-101580366D01*
X90615946Y-101601759D01*
X90675032Y-101641121D01*
X90703457Y-101706179D01*
X90692197Y-101776277D01*
X90650733Y-101825266D01*
X90595706Y-101863797D01*
X90595697Y-101863804D01*
X90433804Y-102025697D01*
X90433799Y-102025703D01*
X90302477Y-102213250D01*
X90205717Y-102420753D01*
X90205715Y-102420759D01*
X90192765Y-102469090D01*
X90146457Y-102641913D01*
X90126502Y-102870000D01*
X90146457Y-103098087D01*
X90155931Y-103133444D01*
X90205715Y-103319240D01*
X90205717Y-103319246D01*
X90302477Y-103526749D01*
X90428879Y-103707270D01*
X90433802Y-103714300D01*
X90595700Y-103876198D01*
X90783251Y-104007523D01*
X90818359Y-104023894D01*
X90822457Y-104025805D01*
X90875742Y-104072722D01*
X90895203Y-104140999D01*
X90874661Y-104208959D01*
X90822457Y-104254195D01*
X90783250Y-104272477D01*
X90595703Y-104403799D01*
X90595697Y-104403804D01*
X90433804Y-104565697D01*
X90433799Y-104565703D01*
X90302477Y-104753250D01*
X90205717Y-104960753D01*
X90205715Y-104960759D01*
X90146457Y-105181913D01*
X90126502Y-105410000D01*
X90146457Y-105638086D01*
X90205715Y-105859240D01*
X90205717Y-105859246D01*
X90302477Y-106066749D01*
X90428879Y-106247270D01*
X90433802Y-106254300D01*
X90595700Y-106416198D01*
X90783251Y-106547523D01*
X90811409Y-106560653D01*
X90822457Y-106565805D01*
X90875742Y-106612722D01*
X90895203Y-106680999D01*
X90874661Y-106748959D01*
X90822457Y-106794195D01*
X90783250Y-106812477D01*
X90595703Y-106943799D01*
X90595697Y-106943804D01*
X90433804Y-107105697D01*
X90433799Y-107105703D01*
X90302477Y-107293250D01*
X90205717Y-107500753D01*
X90205715Y-107500759D01*
X90203939Y-107507387D01*
X90146457Y-107721913D01*
X90126502Y-107950000D01*
X90146457Y-108178087D01*
X90155931Y-108213444D01*
X90205715Y-108399240D01*
X90205717Y-108399246D01*
X90302477Y-108606749D01*
X90428879Y-108787270D01*
X90433802Y-108794300D01*
X90595700Y-108956198D01*
X90783251Y-109087523D01*
X90818359Y-109103894D01*
X90822457Y-109105805D01*
X90875742Y-109152722D01*
X90895203Y-109220999D01*
X90874661Y-109288959D01*
X90822457Y-109334195D01*
X90783250Y-109352477D01*
X90595703Y-109483799D01*
X90595697Y-109483804D01*
X90433804Y-109645697D01*
X90433799Y-109645703D01*
X90302477Y-109833250D01*
X90205717Y-110040753D01*
X90205715Y-110040759D01*
X90146457Y-110261913D01*
X90126502Y-110490000D01*
X90146457Y-110718086D01*
X90205715Y-110939240D01*
X90205717Y-110939246D01*
X90302477Y-111146749D01*
X90428879Y-111327270D01*
X90433802Y-111334300D01*
X90595700Y-111496198D01*
X90595703Y-111496200D01*
X90650732Y-111534732D01*
X90695060Y-111590189D01*
X90702369Y-111660808D01*
X90670338Y-111724169D01*
X90615947Y-111758240D01*
X90547293Y-111779633D01*
X90400159Y-111868578D01*
X90400149Y-111868586D01*
X90278586Y-111990149D01*
X90278578Y-111990159D01*
X90189633Y-112137293D01*
X90138481Y-112301446D01*
X90138481Y-112301447D01*
X90132000Y-112372777D01*
X90132000Y-112776000D01*
X91008884Y-112776000D01*
X90980507Y-112820156D01*
X90940000Y-112958111D01*
X90940000Y-113101889D01*
X90980507Y-113239844D01*
X91008884Y-113284000D01*
X90132001Y-113284000D01*
X90132001Y-113687221D01*
X90138481Y-113758553D01*
X90189633Y-113922706D01*
X90278578Y-114069840D01*
X90278586Y-114069850D01*
X90400149Y-114191413D01*
X90400159Y-114191421D01*
X90547294Y-114280366D01*
X90615946Y-114301759D01*
X90675032Y-114341121D01*
X90703457Y-114406179D01*
X90692197Y-114476277D01*
X90650733Y-114525266D01*
X90595706Y-114563797D01*
X90595697Y-114563804D01*
X90433804Y-114725697D01*
X90433799Y-114725703D01*
X90302477Y-114913250D01*
X90205717Y-115120753D01*
X90205715Y-115120759D01*
X90146457Y-115341913D01*
X90126502Y-115570000D01*
X90146457Y-115798086D01*
X90205715Y-116019240D01*
X90205717Y-116019246D01*
X90302477Y-116226749D01*
X90429334Y-116407920D01*
X90433802Y-116414300D01*
X90595700Y-116576198D01*
X90783251Y-116707523D01*
X90818359Y-116723894D01*
X90822457Y-116725805D01*
X90875742Y-116772722D01*
X90895203Y-116840999D01*
X90874661Y-116908959D01*
X90822457Y-116954195D01*
X90783250Y-116972477D01*
X90595703Y-117103799D01*
X90595697Y-117103804D01*
X90433804Y-117265697D01*
X90433799Y-117265703D01*
X90302477Y-117453250D01*
X90205717Y-117660753D01*
X90205715Y-117660759D01*
X90146457Y-117881913D01*
X90126502Y-118110000D01*
X90146457Y-118338086D01*
X90205715Y-118559240D01*
X90205717Y-118559246D01*
X90260629Y-118677005D01*
X90302477Y-118766749D01*
X90433802Y-118954300D01*
X90595700Y-119116198D01*
X90783251Y-119247523D01*
X90801514Y-119256039D01*
X90843396Y-119275569D01*
X90896682Y-119322486D01*
X90916143Y-119390763D01*
X90895602Y-119458723D01*
X90843400Y-119503957D01*
X90825134Y-119512474D01*
X90637584Y-119643799D01*
X90637578Y-119643804D01*
X90475685Y-119805697D01*
X90475680Y-119805703D01*
X90344358Y-119993250D01*
X90247598Y-120200753D01*
X90247597Y-120200757D01*
X90188338Y-120421913D01*
X90168383Y-120650000D01*
X90188338Y-120878087D01*
X90247597Y-121099243D01*
X90344358Y-121306749D01*
X90475683Y-121494300D01*
X90637581Y-121656198D01*
X90637584Y-121656200D01*
X90825133Y-121787524D01*
X90843396Y-121796040D01*
X90896682Y-121842957D01*
X90916143Y-121911234D01*
X90895601Y-121979194D01*
X90843398Y-122024429D01*
X90783252Y-122052475D01*
X90595703Y-122183799D01*
X90595697Y-122183804D01*
X90433804Y-122345697D01*
X90433799Y-122345703D01*
X90302477Y-122533250D01*
X90205717Y-122740753D01*
X90205715Y-122740759D01*
X90172436Y-122864958D01*
X90146457Y-122961913D01*
X90126502Y-123190000D01*
X90146457Y-123418087D01*
X90155652Y-123452404D01*
X90205715Y-123639240D01*
X90205717Y-123639246D01*
X90302477Y-123846749D01*
X90389439Y-123970944D01*
X90433802Y-124034300D01*
X90595700Y-124196198D01*
X90595703Y-124196200D01*
X90650732Y-124234732D01*
X90695060Y-124290189D01*
X90702369Y-124360808D01*
X90670338Y-124424169D01*
X90615947Y-124458240D01*
X90547293Y-124479633D01*
X90400159Y-124568578D01*
X90400149Y-124568586D01*
X90278586Y-124690149D01*
X90278578Y-124690159D01*
X90189633Y-124837293D01*
X90138481Y-125001446D01*
X90138481Y-125001447D01*
X90132000Y-125072777D01*
X90132000Y-125476000D01*
X91008884Y-125476000D01*
X90980507Y-125520156D01*
X90940000Y-125658111D01*
X90940000Y-125801889D01*
X90980507Y-125939844D01*
X91008884Y-125984000D01*
X90132001Y-125984000D01*
X90132001Y-126387221D01*
X90138481Y-126458553D01*
X90189633Y-126622706D01*
X90278578Y-126769840D01*
X90278586Y-126769850D01*
X90400149Y-126891413D01*
X90400159Y-126891421D01*
X90547294Y-126980366D01*
X90615946Y-127001759D01*
X90675032Y-127041121D01*
X90703457Y-127106179D01*
X90692197Y-127176277D01*
X90650733Y-127225266D01*
X90595706Y-127263797D01*
X90595697Y-127263804D01*
X90433804Y-127425697D01*
X90433799Y-127425703D01*
X90302477Y-127613250D01*
X90205717Y-127820753D01*
X90205715Y-127820759D01*
X90160102Y-127990989D01*
X90146457Y-128041913D01*
X90126502Y-128270000D01*
X90146457Y-128498087D01*
X90151384Y-128516473D01*
X90205715Y-128719240D01*
X90205717Y-128719246D01*
X90236283Y-128784795D01*
X90302477Y-128926749D01*
X90433802Y-129114300D01*
X90595700Y-129276198D01*
X90783251Y-129407523D01*
X90808089Y-129419105D01*
X90822457Y-129425805D01*
X90875742Y-129472722D01*
X90895203Y-129540999D01*
X90874661Y-129608959D01*
X90822457Y-129654195D01*
X90783250Y-129672477D01*
X90595703Y-129803799D01*
X90595697Y-129803804D01*
X90433804Y-129965697D01*
X90433799Y-129965703D01*
X90302477Y-130153250D01*
X90205717Y-130360753D01*
X90205715Y-130360759D01*
X90151384Y-130563524D01*
X90146457Y-130581913D01*
X90126502Y-130810000D01*
X90146457Y-131038087D01*
X90164135Y-131104063D01*
X90205715Y-131259240D01*
X90205717Y-131259246D01*
X90302477Y-131466749D01*
X90375649Y-131571250D01*
X90433802Y-131654300D01*
X90595700Y-131816198D01*
X90783251Y-131947523D01*
X90990757Y-132044284D01*
X91211913Y-132103543D01*
X91440000Y-132123498D01*
X91457425Y-132121973D01*
X91527028Y-132135959D01*
X91578022Y-132185357D01*
X91594215Y-132254482D01*
X91570465Y-132321389D01*
X91557505Y-132336588D01*
X91214500Y-132679595D01*
X91152188Y-132713620D01*
X91125404Y-132716500D01*
X89214595Y-132716500D01*
X89146474Y-132696498D01*
X89125500Y-132679595D01*
X87030405Y-130584500D01*
X86996379Y-130522188D01*
X86993500Y-130495405D01*
X86993500Y-128353855D01*
X86995249Y-128338014D01*
X86994956Y-128337987D01*
X86995701Y-128330094D01*
X86995702Y-128330091D01*
X86993500Y-128260041D01*
X86993500Y-128230144D01*
X86992619Y-128223178D01*
X86992155Y-128217282D01*
X86990673Y-128170110D01*
X86985022Y-128150663D01*
X86981012Y-128131300D01*
X86978474Y-128111203D01*
X86961099Y-128067320D01*
X86959179Y-128061711D01*
X86946018Y-128016407D01*
X86935705Y-127998969D01*
X86927010Y-127981222D01*
X86919552Y-127962383D01*
X86891821Y-127924215D01*
X86888562Y-127919255D01*
X86864541Y-127878635D01*
X86850218Y-127864312D01*
X86837377Y-127849279D01*
X86825471Y-127832892D01*
X86818029Y-127826735D01*
X86789108Y-127802810D01*
X86784736Y-127798831D01*
X85597244Y-126611339D01*
X85587279Y-126598901D01*
X85587052Y-126599090D01*
X85582001Y-126592984D01*
X85582000Y-126592982D01*
X85530921Y-126545016D01*
X85520431Y-126534526D01*
X85509777Y-126523871D01*
X85509772Y-126523866D01*
X85504225Y-126519563D01*
X85499717Y-126515712D01*
X85465325Y-126483417D01*
X85465319Y-126483413D01*
X85447563Y-126473651D01*
X85431047Y-126462802D01*
X85415041Y-126450386D01*
X85384289Y-126437078D01*
X85371740Y-126431648D01*
X85366408Y-126429036D01*
X85325061Y-126406305D01*
X85305436Y-126401266D01*
X85286736Y-126394864D01*
X85268145Y-126386819D01*
X85268143Y-126386818D01*
X85268142Y-126386818D01*
X85221542Y-126379437D01*
X85215729Y-126378233D01*
X85170030Y-126366500D01*
X85149776Y-126366500D01*
X85130066Y-126364949D01*
X85110057Y-126361780D01*
X85110056Y-126361780D01*
X85063083Y-126366220D01*
X85057150Y-126366500D01*
X80093853Y-126366500D01*
X80078011Y-126364750D01*
X80077984Y-126365044D01*
X80070092Y-126364298D01*
X80070091Y-126364298D01*
X80000042Y-126366500D01*
X79970144Y-126366500D01*
X79970140Y-126366500D01*
X79970130Y-126366501D01*
X79963179Y-126367379D01*
X79957267Y-126367844D01*
X79910112Y-126369326D01*
X79910110Y-126369327D01*
X79890655Y-126374978D01*
X79871302Y-126378986D01*
X79851210Y-126381524D01*
X79851202Y-126381526D01*
X79807336Y-126398893D01*
X79801721Y-126400816D01*
X79756407Y-126413982D01*
X79756402Y-126413984D01*
X79738963Y-126424297D01*
X79721218Y-126432990D01*
X79702380Y-126440449D01*
X79688704Y-126450386D01*
X79664212Y-126468180D01*
X79659261Y-126471433D01*
X79618640Y-126495455D01*
X79604307Y-126509787D01*
X79589281Y-126522620D01*
X79572895Y-126534526D01*
X79572894Y-126534526D01*
X79542818Y-126570880D01*
X79538823Y-126575271D01*
X78351336Y-127762757D01*
X78338901Y-127772721D01*
X78339089Y-127772948D01*
X78332980Y-127778001D01*
X78285016Y-127829078D01*
X78263866Y-127850227D01*
X78259560Y-127855777D01*
X78255714Y-127860279D01*
X78223417Y-127894674D01*
X78223411Y-127894683D01*
X78213651Y-127912435D01*
X78202803Y-127928950D01*
X78190386Y-127944958D01*
X78171645Y-127988264D01*
X78169034Y-127993594D01*
X78146305Y-128034939D01*
X78146303Y-128034944D01*
X78141267Y-128054559D01*
X78134864Y-128073262D01*
X78126819Y-128091852D01*
X78119437Y-128138456D01*
X78118233Y-128144268D01*
X78106500Y-128189968D01*
X78106500Y-128210223D01*
X78104949Y-128229933D01*
X78101780Y-128249942D01*
X78101780Y-128249943D01*
X76200000Y-128249943D01*
X76200000Y-78202251D01*
X76200161Y-78197755D01*
X76219714Y-77924355D01*
X76222272Y-77906566D01*
X76279098Y-77645338D01*
X76284157Y-77628107D01*
X76377591Y-77377601D01*
X76385050Y-77361268D01*
X76513178Y-77126620D01*
X76522891Y-77111506D01*
X76683108Y-76897482D01*
X76694868Y-76883911D01*
X76883911Y-76694868D01*
X76897482Y-76683108D01*
X77111506Y-76522891D01*
X77126620Y-76513178D01*
X77361268Y-76385050D01*
X77377601Y-76377591D01*
X77628107Y-76284157D01*
X77645338Y-76279098D01*
X77906566Y-76222272D01*
X77924349Y-76219714D01*
X78042267Y-76211281D01*
X78197756Y-76200161D01*
X78202252Y-76200000D01*
X166907748Y-76200000D01*
X166912244Y-76200161D01*
G37*
%TD.AperFunction*%
%TD*%
M02*
