%TF.GenerationSoftware,KiCad,Pcbnew,7.0.8*%
%TF.CreationDate,2023-12-13T08:54:22+01:00*%
%TF.ProjectId,MicroPython_DemoBoard,4d696372-6f50-4797-9468-6f6e5f44656d,rev?*%
%TF.SameCoordinates,Original*%
%TF.FileFunction,Copper,L1,Top*%
%TF.FilePolarity,Positive*%
%FSLAX46Y46*%
G04 Gerber Fmt 4.6, Leading zero omitted, Abs format (unit mm)*
G04 Created by KiCad (PCBNEW 7.0.8) date 2023-12-13 08:54:22*
%MOMM*%
%LPD*%
G01*
G04 APERTURE LIST*
G04 Aperture macros list*
%AMRoundRect*
0 Rectangle with rounded corners*
0 $1 Rounding radius*
0 $2 $3 $4 $5 $6 $7 $8 $9 X,Y pos of 4 corners*
0 Add a 4 corners polygon primitive as box body*
4,1,4,$2,$3,$4,$5,$6,$7,$8,$9,$2,$3,0*
0 Add four circle primitives for the rounded corners*
1,1,$1+$1,$2,$3*
1,1,$1+$1,$4,$5*
1,1,$1+$1,$6,$7*
1,1,$1+$1,$8,$9*
0 Add four rect primitives between the rounded corners*
20,1,$1+$1,$2,$3,$4,$5,0*
20,1,$1+$1,$4,$5,$6,$7,0*
20,1,$1+$1,$6,$7,$8,$9,0*
20,1,$1+$1,$8,$9,$2,$3,0*%
G04 Aperture macros list end*
%TA.AperFunction,ComponentPad*%
%ADD10C,2.000000*%
%TD*%
%TA.AperFunction,ComponentPad*%
%ADD11R,1.700000X1.700000*%
%TD*%
%TA.AperFunction,ComponentPad*%
%ADD12O,1.700000X1.700000*%
%TD*%
%TA.AperFunction,ComponentPad*%
%ADD13C,1.440000*%
%TD*%
%TA.AperFunction,ComponentPad*%
%ADD14C,1.600000*%
%TD*%
%TA.AperFunction,ComponentPad*%
%ADD15O,1.600000X1.600000*%
%TD*%
%TA.AperFunction,ComponentPad*%
%ADD16C,1.500000*%
%TD*%
%TA.AperFunction,ComponentPad*%
%ADD17R,2.000000X2.000000*%
%TD*%
%TA.AperFunction,ComponentPad*%
%ADD18R,1.800000X1.800000*%
%TD*%
%TA.AperFunction,ComponentPad*%
%ADD19C,1.800000*%
%TD*%
%TA.AperFunction,ComponentPad*%
%ADD20RoundRect,0.200000X-0.600000X-0.600000X0.600000X-0.600000X0.600000X0.600000X-0.600000X0.600000X0*%
%TD*%
%TA.AperFunction,ComponentPad*%
%ADD21R,3.000000X1.700000*%
%TD*%
%TA.AperFunction,ComponentPad*%
%ADD22RoundRect,0.425000X-1.075000X-0.425000X1.075000X-0.425000X1.075000X0.425000X-1.075000X0.425000X0*%
%TD*%
%TA.AperFunction,ViaPad*%
%ADD23C,0.800000*%
%TD*%
%TA.AperFunction,Conductor*%
%ADD24C,0.250000*%
%TD*%
%TA.AperFunction,Conductor*%
%ADD25C,0.400000*%
%TD*%
G04 APERTURE END LIST*
D10*
%TO.P,SW3,1,A*%
%TO.N,+3.3V*%
X146610000Y-133640000D03*
X153110000Y-133640000D03*
%TO.P,SW3,2,B*%
%TO.N,/Center*%
X146610000Y-138140000D03*
X153110000Y-138140000D03*
%TD*%
D11*
%TO.P,J3,1,Pin_1*%
%TO.N,GND*%
X146050000Y-93980000D03*
D12*
%TO.P,J3,2,Pin_2*%
%TO.N,+3.3V*%
X148590000Y-93980000D03*
%TO.P,J3,3,Pin_3*%
%TO.N,/I2C SCL*%
X151130000Y-93980000D03*
%TO.P,J3,4,Pin_4*%
%TO.N,/I2C SDA*%
X153670000Y-93980000D03*
%TD*%
D10*
%TO.P,SW6,1,A*%
%TO.N,GND*%
X89610000Y-147030000D03*
X83110000Y-147030000D03*
%TO.P,SW6,2,B*%
%TO.N,Net-(A1-RUN)*%
X89610000Y-142530000D03*
X83110000Y-142530000D03*
%TD*%
%TO.P,SW1,1,A*%
%TO.N,+3.3V*%
X133910000Y-133640000D03*
X140410000Y-133640000D03*
%TO.P,SW1,2,B*%
%TO.N,/Left*%
X133910000Y-138140000D03*
X140410000Y-138140000D03*
%TD*%
D13*
%TO.P,RV1,1,1*%
%TO.N,GND*%
X120015000Y-128270000D03*
%TO.P,RV1,2,2*%
%TO.N,Net-(A1-GP26)*%
X122555000Y-130810000D03*
%TO.P,RV1,3,3*%
%TO.N,+3.3V*%
X125095000Y-128270000D03*
%TD*%
D14*
%TO.P,R2,1*%
%TO.N,Net-(A1-GP27)*%
X118110000Y-109855000D03*
D15*
%TO.P,R2,2*%
%TO.N,GND*%
X128270000Y-109855000D03*
%TD*%
D16*
%TO.P,R1,1*%
%TO.N,+3.3V*%
X124255000Y-116840000D03*
%TO.P,R1,2*%
%TO.N,Net-(A1-GP27)*%
X120855000Y-116840000D03*
%TD*%
D10*
%TO.P,SW5,1,A*%
%TO.N,+3.3V*%
X159310000Y-133640000D03*
X165810000Y-133640000D03*
%TO.P,SW5,2,B*%
%TO.N,/Right*%
X159310000Y-138140000D03*
X165810000Y-138140000D03*
%TD*%
D17*
%TO.P,BZ1,1,-*%
%TO.N,Net-(A1-GP10)*%
X97030000Y-142240000D03*
D10*
%TO.P,BZ1,2,+*%
%TO.N,GND*%
X103630000Y-142240000D03*
%TD*%
D18*
%TO.P,D1,1,K*%
%TO.N,Net-(D1-K)*%
X81275000Y-129794000D03*
D19*
%TO.P,D1,2,A*%
%TO.N,Net-(A1-GP22)*%
X83815000Y-129794000D03*
%TD*%
D10*
%TO.P,SW4,1,A*%
%TO.N,+3.3V*%
X146610000Y-143800000D03*
X153110000Y-143800000D03*
%TO.P,SW4,2,B*%
%TO.N,/Down*%
X146610000Y-148300000D03*
X153110000Y-148300000D03*
%TD*%
D11*
%TO.P,J2,1,Pin_1*%
%TO.N,/SPI RX*%
X116865000Y-93955000D03*
D12*
%TO.P,J2,2,Pin_2*%
%TO.N,/SPI CS*%
X119405000Y-93955000D03*
%TO.P,J2,3,Pin_3*%
%TO.N,/SPI TX*%
X121945000Y-93955000D03*
%TO.P,J2,4,Pin_4*%
%TO.N,/SPI CLK*%
X124485000Y-93955000D03*
%TO.P,J2,5,Pin_5*%
%TO.N,GND*%
X127025000Y-93955000D03*
%TO.P,J2,6,Pin_6*%
%TO.N,+3.3V*%
X129565000Y-93955000D03*
%TD*%
D11*
%TO.P,J4,1,Pin_1*%
%TO.N,+3.3V*%
X85090000Y-82550000D03*
D12*
%TO.P,J4,2,Pin_2*%
%TO.N,GND*%
X85090000Y-85090000D03*
%TO.P,J4,3,Pin_3*%
%TO.N,Net-(A1-GP0)*%
X85090000Y-87630000D03*
%TO.P,J4,4,Pin_4*%
%TO.N,Net-(A1-GP1)*%
X85090000Y-90170000D03*
%TO.P,J4,5,Pin_5*%
%TO.N,Net-(A1-GP2)*%
X85090000Y-92710000D03*
%TO.P,J4,6,Pin_6*%
%TO.N,Net-(A1-GP3)*%
X85090000Y-95250000D03*
%TO.P,J4,7,Pin_7*%
%TO.N,Net-(A1-GP4)*%
X85090000Y-97790000D03*
%TO.P,J4,8,Pin_8*%
%TO.N,Net-(A1-GP5)*%
X85090000Y-100330000D03*
%TO.P,J4,9,Pin_9*%
%TO.N,Net-(A1-GP6)*%
X85090000Y-102870000D03*
%TO.P,J4,10,Pin_10*%
%TO.N,Net-(A1-GP7)*%
X85090000Y-105410000D03*
%TO.P,J4,11,Pin_11*%
%TO.N,Net-(A1-GP8)*%
X85090000Y-107950000D03*
%TO.P,J4,12,Pin_12*%
%TO.N,Net-(A1-GP9)*%
X85090000Y-110490000D03*
%TD*%
D14*
%TO.P,A1,1,GP0*%
%TO.N,Net-(A1-GP0)*%
X91440000Y-82550000D03*
%TO.P,A1,2,GP1*%
%TO.N,Net-(A1-GP1)*%
X91440000Y-85090000D03*
D20*
%TO.P,A1,3,GND*%
%TO.N,GND*%
X91440000Y-87630000D03*
D14*
%TO.P,A1,4,GP2*%
%TO.N,Net-(A1-GP2)*%
X91440000Y-90170000D03*
%TO.P,A1,5,GP3*%
%TO.N,Net-(A1-GP3)*%
X91440000Y-92710000D03*
%TO.P,A1,6,GP4*%
%TO.N,Net-(A1-GP4)*%
X91440000Y-95250000D03*
%TO.P,A1,7,GP5*%
%TO.N,Net-(A1-GP5)*%
X91440000Y-97790000D03*
D20*
%TO.P,A1,8,GND*%
%TO.N,GND*%
X91440000Y-100330000D03*
D14*
%TO.P,A1,9,GP6*%
%TO.N,Net-(A1-GP6)*%
X91440000Y-102870000D03*
%TO.P,A1,10,GP7*%
%TO.N,Net-(A1-GP7)*%
X91440000Y-105410000D03*
%TO.P,A1,11,GP8*%
%TO.N,Net-(A1-GP8)*%
X91440000Y-107950000D03*
%TO.P,A1,12,GP9*%
%TO.N,Net-(A1-GP9)*%
X91440000Y-110490000D03*
D20*
%TO.P,A1,13,GND*%
%TO.N,GND*%
X91440000Y-113030000D03*
D14*
%TO.P,A1,14,GP10*%
%TO.N,Net-(A1-GP10)*%
X91440000Y-115570000D03*
%TO.P,A1,15,GP11*%
%TO.N,/Up*%
X91440000Y-118110000D03*
%TO.P,A1,16,GP12*%
%TO.N,/Left*%
X91481881Y-120650000D03*
%TO.P,A1,17,GP13*%
%TO.N,/Right*%
X91440000Y-123190000D03*
D20*
%TO.P,A1,18,GND*%
%TO.N,GND*%
X91440000Y-125730000D03*
D14*
%TO.P,A1,19,GP14*%
%TO.N,/Down*%
X91440000Y-128270000D03*
%TO.P,A1,20,GP15*%
%TO.N,/Center*%
X91440000Y-130810000D03*
%TO.P,A1,21,GP16*%
%TO.N,/SPI RX*%
X109220000Y-130810000D03*
%TO.P,A1,22,GP17*%
%TO.N,/SPI CS*%
X109220000Y-128270000D03*
D20*
%TO.P,A1,23,GND*%
%TO.N,GND*%
X109220000Y-125730000D03*
D14*
%TO.P,A1,24,GP18*%
%TO.N,/SPI CLK*%
X109220000Y-123190000D03*
%TO.P,A1,25,GP19*%
%TO.N,/SPI TX*%
X109220000Y-120650000D03*
%TO.P,A1,26,GP20*%
%TO.N,/I2C SDA*%
X109220000Y-118110000D03*
%TO.P,A1,27,GP21*%
%TO.N,/I2C SCL*%
X109220000Y-115570000D03*
D20*
%TO.P,A1,28,GND*%
%TO.N,GND*%
X109220000Y-113030000D03*
D14*
%TO.P,A1,29,GP22*%
%TO.N,Net-(A1-GP22)*%
X109220000Y-110490000D03*
%TO.P,A1,30,RUN*%
%TO.N,Net-(A1-RUN)*%
X109220000Y-107950000D03*
%TO.P,A1,31,GP26*%
%TO.N,Net-(A1-GP26)*%
X109220000Y-105410000D03*
%TO.P,A1,32,GP27*%
%TO.N,Net-(A1-GP27)*%
X109220000Y-102870000D03*
D20*
%TO.P,A1,33,AGND*%
%TO.N,GND*%
X109220000Y-100330000D03*
D14*
%TO.P,A1,34,GP28*%
%TO.N,Net-(A1-GP28)*%
X109220000Y-97790000D03*
%TO.P,A1,35,ADC_VREF*%
%TO.N,unconnected-(A1-ADC_VREF-Pad35)*%
X109220000Y-95250000D03*
%TO.P,A1,36,3V3_OUT*%
%TO.N,+3.3V*%
X109220000Y-92710000D03*
%TO.P,A1,37,3V3_EN*%
%TO.N,unconnected-(A1-3V3_EN-Pad37)*%
X109220000Y-90170000D03*
D20*
%TO.P,A1,38,GND*%
%TO.N,GND*%
X109220000Y-87630000D03*
D14*
%TO.P,A1,39,VSYS*%
%TO.N,unconnected-(A1-VSYS-Pad39)*%
X109220000Y-85090000D03*
%TO.P,A1,40,VBUS*%
%TO.N,+5V*%
X109220000Y-82550000D03*
%TD*%
D21*
%TO.P,J1,1,Pin_1*%
%TO.N,GND*%
X116713000Y-81100000D03*
D22*
%TO.P,J1,2,Pin_2*%
%TO.N,Net-(A1-GP28)*%
X116713000Y-84074000D03*
%TO.P,J1,3,Pin_3*%
%TO.N,+5V*%
X116713000Y-87000000D03*
%TD*%
D14*
%TO.P,R3,1*%
%TO.N,Net-(D1-K)*%
X81026000Y-137668000D03*
D15*
%TO.P,R3,2*%
%TO.N,GND*%
X91186000Y-137668000D03*
%TD*%
D10*
%TO.P,SW2,1,A*%
%TO.N,+3.3V*%
X146610000Y-123480000D03*
X153110000Y-123480000D03*
%TO.P,SW2,2,B*%
%TO.N,/Up*%
X146610000Y-127980000D03*
X153110000Y-127980000D03*
%TD*%
D23*
%TO.N,/I2C SDA*%
X125095000Y-108585000D03*
%TO.N,/SPI CS*%
X121920000Y-103505000D03*
X119380000Y-99060000D03*
%TO.N,/I2C SCL*%
X122555000Y-108585000D03*
%TD*%
D24*
%TO.N,/Center*%
X154305000Y-149860000D02*
X156210000Y-147955000D01*
X114300000Y-149860000D02*
X154305000Y-149860000D01*
X95250000Y-130810000D02*
X114300000Y-149860000D01*
X156210000Y-141240000D02*
X156210000Y-147955000D01*
X91440000Y-130810000D02*
X95250000Y-130810000D01*
X153110000Y-138140000D02*
X156210000Y-141240000D01*
%TO.N,/Down*%
X114645000Y-148300000D02*
X94615000Y-128270000D01*
X146610000Y-148300000D02*
X114645000Y-148300000D01*
X94615000Y-128270000D02*
X91440000Y-128270000D01*
D25*
%TO.N,+3.3V*%
X132105000Y-96495000D02*
X129565000Y-93955000D01*
D24*
%TO.N,/Up*%
X109220000Y-135890000D02*
X91440000Y-118110000D01*
X133350000Y-130175000D02*
X127635000Y-135890000D01*
X144415000Y-130175000D02*
X133350000Y-130175000D01*
X127635000Y-135890000D02*
X109220000Y-135890000D01*
X146610000Y-127980000D02*
X144415000Y-130175000D01*
%TO.N,/Left*%
X108971881Y-138140000D02*
X91481881Y-120650000D01*
X133910000Y-138140000D02*
X108971881Y-138140000D01*
%TO.N,/Up*%
X92075000Y-118110000D02*
X91440000Y-118110000D01*
D25*
%TO.N,+3.3V*%
X141820000Y-128270000D02*
X146610000Y-123480000D01*
X125095000Y-128270000D02*
X141820000Y-128270000D01*
D24*
%TO.N,Net-(A1-GP0)*%
X85090000Y-87630000D02*
X90170000Y-82550000D01*
X90170000Y-82550000D02*
X91440000Y-82550000D01*
%TO.N,Net-(A1-GP1)*%
X90170000Y-85090000D02*
X91440000Y-85090000D01*
X85090000Y-90170000D02*
X90170000Y-85090000D01*
%TO.N,Net-(A1-GP2)*%
X88900000Y-90170000D02*
X91440000Y-90170000D01*
X86360000Y-92710000D02*
X88900000Y-90170000D01*
X85090000Y-92710000D02*
X86360000Y-92710000D01*
%TO.N,Net-(A1-GP3)*%
X85090000Y-95250000D02*
X86360000Y-95250000D01*
X86360000Y-95250000D02*
X88900000Y-92710000D01*
X88900000Y-92710000D02*
X91440000Y-92710000D01*
%TO.N,Net-(A1-GP4)*%
X86360000Y-97790000D02*
X88900000Y-95250000D01*
X85090000Y-97790000D02*
X86360000Y-97790000D01*
X88900000Y-95250000D02*
X91440000Y-95250000D01*
%TO.N,Net-(A1-GP5)*%
X85090000Y-100330000D02*
X86360000Y-100330000D01*
X88900000Y-97790000D02*
X91440000Y-97790000D01*
X86360000Y-100330000D02*
X88900000Y-97790000D01*
%TO.N,Net-(A1-GP6)*%
X85090000Y-102870000D02*
X91440000Y-102870000D01*
%TO.N,Net-(A1-GP7)*%
X85090000Y-105410000D02*
X91440000Y-105410000D01*
%TO.N,Net-(A1-GP8)*%
X85090000Y-107950000D02*
X91440000Y-107950000D01*
%TO.N,Net-(A1-GP9)*%
X85090000Y-110490000D02*
X91440000Y-110490000D01*
%TO.N,Net-(A1-GP10)*%
X87630000Y-137160000D02*
X87630000Y-119380000D01*
X87630000Y-119380000D02*
X91440000Y-115570000D01*
X92710000Y-142240000D02*
X87630000Y-137160000D01*
X97030000Y-142240000D02*
X92710000Y-142240000D01*
%TO.N,/Up*%
X146610000Y-127980000D02*
X153110000Y-127980000D01*
%TO.N,/Left*%
X140410000Y-138140000D02*
X133910000Y-138140000D01*
%TO.N,/Right*%
X119380000Y-146050000D02*
X114300000Y-146050000D01*
X153670000Y-146050000D02*
X154940000Y-144780000D01*
X159310000Y-138140000D02*
X165810000Y-138140000D01*
X144780000Y-139700000D02*
X144780000Y-137160000D01*
X144780000Y-137160000D02*
X146050000Y-135890000D01*
X153670000Y-140970000D02*
X146050000Y-140970000D01*
X146050000Y-140970000D02*
X144780000Y-139700000D01*
X119380000Y-146050000D02*
X153670000Y-146050000D01*
X114300000Y-146050000D02*
X91440000Y-123190000D01*
X154940000Y-144780000D02*
X154940000Y-142240000D01*
X157060000Y-135890000D02*
X159310000Y-138140000D01*
X154940000Y-142240000D02*
X153670000Y-140970000D01*
X146050000Y-135890000D02*
X157060000Y-135890000D01*
%TO.N,/Down*%
X146610000Y-148300000D02*
X153110000Y-148300000D01*
%TO.N,/Center*%
X146610000Y-138140000D02*
X153110000Y-138140000D01*
%TO.N,/SPI RX*%
X107315000Y-128905000D02*
X107315000Y-117475000D01*
X107950000Y-116840000D02*
X111125000Y-116840000D01*
X111760000Y-116205000D02*
X111760000Y-99060000D01*
X107315000Y-117475000D02*
X107950000Y-116840000D01*
X111760000Y-99060000D02*
X116865000Y-93955000D01*
X111125000Y-116840000D02*
X111760000Y-116205000D01*
X109220000Y-130810000D02*
X107315000Y-128905000D01*
%TO.N,/SPI CLK*%
X124460000Y-98425000D02*
X124485000Y-98400000D01*
X109220000Y-123190000D02*
X111760000Y-123190000D01*
X124460000Y-99060000D02*
X124460000Y-98425000D01*
X111760000Y-123190000D02*
X114300000Y-120650000D01*
X124485000Y-98400000D02*
X124485000Y-93955000D01*
X114300000Y-109220000D02*
X124460000Y-99060000D01*
X114300000Y-120650000D02*
X114300000Y-109220000D01*
%TO.N,/SPI TX*%
X121945000Y-99035000D02*
X121945000Y-93955000D01*
X113030000Y-118745000D02*
X113030000Y-107950000D01*
X111125000Y-120650000D02*
X113030000Y-118745000D01*
X109220000Y-120650000D02*
X111125000Y-120650000D01*
X113030000Y-107950000D02*
X121945000Y-99035000D01*
%TO.N,/I2C SDA*%
X153670000Y-97790000D02*
X153670000Y-93980000D01*
X151130000Y-100330000D02*
X153670000Y-97790000D01*
X133350000Y-100330000D02*
X151130000Y-100330000D01*
X125095000Y-108585000D02*
X133350000Y-100330000D01*
%TO.N,/SPI CS*%
X110490000Y-128270000D02*
X115570000Y-123190000D01*
X109220000Y-128270000D02*
X110490000Y-128270000D01*
X119380000Y-99060000D02*
X119405000Y-99035000D01*
X115570000Y-123190000D02*
X115570000Y-109855000D01*
X119405000Y-99035000D02*
X119405000Y-93955000D01*
X115570000Y-109855000D02*
X121920000Y-103505000D01*
%TO.N,/I2C SCL*%
X122555000Y-108585000D02*
X132715000Y-98425000D01*
X132715000Y-98425000D02*
X149860000Y-98425000D01*
X151130000Y-97155000D02*
X151130000Y-93980000D01*
X149860000Y-98425000D02*
X151130000Y-97155000D01*
%TO.N,Net-(A1-RUN)*%
X83110000Y-142530000D02*
X89610000Y-142530000D01*
%TO.N,Net-(A1-GP26)*%
X120650000Y-132715000D02*
X122555000Y-130810000D01*
X105410000Y-109220000D02*
X105410000Y-129540000D01*
X108585000Y-132715000D02*
X120650000Y-132715000D01*
X105410000Y-129540000D02*
X108585000Y-132715000D01*
X109220000Y-105410000D02*
X105410000Y-109220000D01*
%TO.N,Net-(A1-GP27)*%
X118110000Y-109855000D02*
X118110000Y-114095000D01*
X118110000Y-114095000D02*
X120855000Y-116840000D01*
%TO.N,Net-(A1-GP28)*%
X111760000Y-80010000D02*
X115824000Y-84074000D01*
X116713000Y-83947000D02*
X116840000Y-83820000D01*
X109220000Y-97790000D02*
X106680000Y-97790000D01*
X107950000Y-80010000D02*
X111760000Y-80010000D01*
X116713000Y-84074000D02*
X116713000Y-83947000D01*
X105410000Y-82550000D02*
X107950000Y-80010000D01*
X105410000Y-96520000D02*
X105410000Y-82550000D01*
X115824000Y-84074000D02*
X116713000Y-84074000D01*
X106680000Y-97790000D02*
X105410000Y-96520000D01*
D25*
%TO.N,+3.3V*%
X129540000Y-99060000D02*
X129540000Y-95885000D01*
D24*
X146610000Y-133640000D02*
X145760000Y-133640000D01*
D25*
X146610000Y-123480000D02*
X153110000Y-123480000D01*
X156210000Y-130540000D02*
X156210000Y-125730000D01*
X145760000Y-133640000D02*
X143510000Y-135890000D01*
D24*
X129540000Y-95885000D02*
X129565000Y-95860000D01*
D25*
X140410000Y-133640000D02*
X146610000Y-133640000D01*
X143510000Y-135890000D02*
X143510000Y-140700000D01*
X156210000Y-125730000D02*
X153960000Y-123480000D01*
X143510000Y-140700000D02*
X146610000Y-143800000D01*
X127050000Y-91440000D02*
X129246802Y-93636802D01*
X109220000Y-92710000D02*
X112395000Y-92710000D01*
X125095000Y-117680000D02*
X124255000Y-116840000D01*
X124255000Y-116840000D02*
X124255000Y-114730000D01*
X121285000Y-107315000D02*
X129540000Y-99060000D01*
X148590000Y-95250000D02*
X148590000Y-93980000D01*
X132105000Y-96495000D02*
X147345000Y-96495000D01*
X125095000Y-128270000D02*
X125095000Y-117680000D01*
X147345000Y-96495000D02*
X148590000Y-95250000D01*
X146610000Y-143800000D02*
X153110000Y-143800000D01*
X153110000Y-133640000D02*
X156210000Y-130540000D01*
X146610000Y-133640000D02*
X153110000Y-133640000D01*
X113665000Y-91440000D02*
X127050000Y-91440000D01*
X124255000Y-114730000D02*
X121285000Y-111760000D01*
D24*
X153960000Y-123480000D02*
X153110000Y-123480000D01*
D25*
X159310000Y-133640000D02*
X165810000Y-133640000D01*
D24*
X130226396Y-93980000D02*
X129883198Y-93636802D01*
D25*
X153110000Y-133640000D02*
X159310000Y-133640000D01*
X112395000Y-92710000D02*
X113665000Y-91440000D01*
X121285000Y-111760000D02*
X121285000Y-107315000D01*
X129565000Y-95860000D02*
X129565000Y-93955000D01*
X133910000Y-133640000D02*
X140410000Y-133640000D01*
%TO.N,+5V*%
X111125000Y-82550000D02*
X115189000Y-86614000D01*
D24*
X117856000Y-86614000D02*
X116713000Y-86614000D01*
D25*
X109220000Y-82550000D02*
X111125000Y-82550000D01*
D24*
X115189000Y-86614000D02*
X116713000Y-86614000D01*
%TO.N,Net-(D1-K)*%
X81275000Y-129794000D02*
X81275000Y-137419000D01*
X81275000Y-137419000D02*
X81026000Y-137668000D01*
%TD*%
M02*
