%TF.GenerationSoftware,KiCad,Pcbnew,7.0.8*%
%TF.CreationDate,2023-12-13T08:54:31+01:00*%
%TF.ProjectId,MicroPython_DemoBoard,4d696372-6f50-4797-9468-6f6e5f44656d,rev?*%
%TF.SameCoordinates,Original*%
%TF.FileFunction,Drillmap*%
%TF.FilePolarity,Positive*%
%FSLAX45Y45*%
G04 Gerber Fmt 4.5, Leading zero omitted, Abs format (unit mm)*
G04 Created by KiCad (PCBNEW 7.0.8) date 2023-12-13 08:54:31*
%MOMM*%
%LPD*%
G01*
G04 APERTURE LIST*
%ADD10C,0.100000*%
%ADD11C,0.200000*%
%ADD12C,0.040000*%
%ADD13C,0.080000*%
%ADD14C,0.090000*%
%ADD15C,0.110000*%
G04 APERTURE END LIST*
D10*
X17018000Y-7793000D02*
X17018000Y-15003500D01*
X16718000Y-15303500D02*
X7793000Y-15303500D01*
X17018000Y-7793000D02*
G75*
G03*
X16718000Y-7493000I-300000J0D01*
G01*
X7493000Y-15003500D02*
G75*
G03*
X7793000Y-15303500I300000J0D01*
G01*
X16718000Y-15303500D02*
G75*
G03*
X17018000Y-15003500I0J300000D01*
G01*
X7793000Y-7493000D02*
G75*
G03*
X7493000Y-7793000I0J-300000D01*
G01*
X7793000Y-7493000D02*
X16718000Y-7493000D01*
X7493000Y-15003500D02*
X7493000Y-7793000D01*
D11*
D12*
X11918000Y-9886000D02*
X11958000Y-9926000D01*
X11958000Y-9886000D02*
X11918000Y-9926000D01*
X12172000Y-10330500D02*
X12212000Y-10370500D01*
X12212000Y-10330500D02*
X12172000Y-10370500D01*
X12235500Y-10838500D02*
X12275500Y-10878500D01*
X12275500Y-10838500D02*
X12235500Y-10878500D01*
X12489500Y-10838500D02*
X12529500Y-10878500D01*
X12529500Y-10838500D02*
X12489500Y-10878500D01*
D13*
X8142600Y-13766800D02*
G75*
G03*
X8142600Y-13766800I-40000J0D01*
G01*
X9158600Y-13766800D02*
G75*
G03*
X9158600Y-13766800I-40000J0D01*
G01*
X11851000Y-10985500D02*
G75*
G03*
X11851000Y-10985500I-40000J0D01*
G01*
X12041500Y-12827000D02*
G75*
G03*
X12041500Y-12827000I-40000J0D01*
G01*
X12125500Y-11684000D02*
G75*
G03*
X12125500Y-11684000I-40000J0D01*
G01*
X12295500Y-13081000D02*
G75*
G03*
X12295500Y-13081000I-40000J0D01*
G01*
X12465500Y-11684000D02*
G75*
G03*
X12465500Y-11684000I-40000J0D01*
G01*
X12549500Y-12827000D02*
G75*
G03*
X12549500Y-12827000I-40000J0D01*
G01*
X12867000Y-10985500D02*
G75*
G03*
X12867000Y-10985500I-40000J0D01*
G01*
D14*
X8127500Y-12934400D02*
X8127500Y-13024400D01*
X8082500Y-12979400D02*
X8172500Y-12979400D01*
X8381500Y-12934400D02*
X8381500Y-13024400D01*
X8336500Y-12979400D02*
X8426500Y-12979400D01*
D10*
X8544356Y-8290356D02*
X8544356Y-8219644D01*
X8473644Y-8219644D01*
X8473644Y-8290356D01*
X8544356Y-8290356D01*
X8544356Y-8544356D02*
X8544356Y-8473644D01*
X8473644Y-8473644D01*
X8473644Y-8544356D01*
X8544356Y-8544356D01*
X8544356Y-8798356D02*
X8544356Y-8727644D01*
X8473644Y-8727644D01*
X8473644Y-8798356D01*
X8544356Y-8798356D01*
X8544356Y-9052356D02*
X8544356Y-8981644D01*
X8473644Y-8981644D01*
X8473644Y-9052356D01*
X8544356Y-9052356D01*
X8544356Y-9306356D02*
X8544356Y-9235644D01*
X8473644Y-9235644D01*
X8473644Y-9306356D01*
X8544356Y-9306356D01*
X8544356Y-9560356D02*
X8544356Y-9489644D01*
X8473644Y-9489644D01*
X8473644Y-9560356D01*
X8544356Y-9560356D01*
X8544356Y-9814356D02*
X8544356Y-9743644D01*
X8473644Y-9743644D01*
X8473644Y-9814356D01*
X8544356Y-9814356D01*
X8544356Y-10068356D02*
X8544356Y-9997644D01*
X8473644Y-9997644D01*
X8473644Y-10068356D01*
X8544356Y-10068356D01*
X8544356Y-10322356D02*
X8544356Y-10251644D01*
X8473644Y-10251644D01*
X8473644Y-10322356D01*
X8544356Y-10322356D01*
X8544356Y-10576356D02*
X8544356Y-10505644D01*
X8473644Y-10505644D01*
X8473644Y-10576356D01*
X8544356Y-10576356D01*
X8544356Y-10830356D02*
X8544356Y-10759644D01*
X8473644Y-10759644D01*
X8473644Y-10830356D01*
X8544356Y-10830356D01*
X8544356Y-11084356D02*
X8544356Y-11013644D01*
X8473644Y-11013644D01*
X8473644Y-11084356D01*
X8544356Y-11084356D01*
X9179356Y-8290356D02*
X9179356Y-8219644D01*
X9108644Y-8219644D01*
X9108644Y-8290356D01*
X9179356Y-8290356D01*
X9179356Y-8544356D02*
X9179356Y-8473644D01*
X9108644Y-8473644D01*
X9108644Y-8544356D01*
X9179356Y-8544356D01*
X9179356Y-8798356D02*
X9179356Y-8727644D01*
X9108644Y-8727644D01*
X9108644Y-8798356D01*
X9179356Y-8798356D01*
X9179356Y-9052356D02*
X9179356Y-8981644D01*
X9108644Y-8981644D01*
X9108644Y-9052356D01*
X9179356Y-9052356D01*
X9179356Y-9306356D02*
X9179356Y-9235644D01*
X9108644Y-9235644D01*
X9108644Y-9306356D01*
X9179356Y-9306356D01*
X9179356Y-9560356D02*
X9179356Y-9489644D01*
X9108644Y-9489644D01*
X9108644Y-9560356D01*
X9179356Y-9560356D01*
X9179356Y-9814356D02*
X9179356Y-9743644D01*
X9108644Y-9743644D01*
X9108644Y-9814356D01*
X9179356Y-9814356D01*
X9179356Y-10068356D02*
X9179356Y-9997644D01*
X9108644Y-9997644D01*
X9108644Y-10068356D01*
X9179356Y-10068356D01*
X9179356Y-10322356D02*
X9179356Y-10251644D01*
X9108644Y-10251644D01*
X9108644Y-10322356D01*
X9179356Y-10322356D01*
X9179356Y-10576356D02*
X9179356Y-10505644D01*
X9108644Y-10505644D01*
X9108644Y-10576356D01*
X9179356Y-10576356D01*
X9179356Y-10830356D02*
X9179356Y-10759644D01*
X9108644Y-10759644D01*
X9108644Y-10830356D01*
X9179356Y-10830356D01*
X9179356Y-11084356D02*
X9179356Y-11013644D01*
X9108644Y-11013644D01*
X9108644Y-11084356D01*
X9179356Y-11084356D01*
X9179356Y-11338356D02*
X9179356Y-11267644D01*
X9108644Y-11267644D01*
X9108644Y-11338356D01*
X9179356Y-11338356D01*
X9179356Y-11592356D02*
X9179356Y-11521644D01*
X9108644Y-11521644D01*
X9108644Y-11592356D01*
X9179356Y-11592356D01*
X9179356Y-11846356D02*
X9179356Y-11775644D01*
X9108644Y-11775644D01*
X9108644Y-11846356D01*
X9179356Y-11846356D01*
X9179356Y-12354356D02*
X9179356Y-12283644D01*
X9108644Y-12283644D01*
X9108644Y-12354356D01*
X9179356Y-12354356D01*
X9179356Y-12608356D02*
X9179356Y-12537644D01*
X9108644Y-12537644D01*
X9108644Y-12608356D01*
X9179356Y-12608356D01*
X9179356Y-12862356D02*
X9179356Y-12791644D01*
X9108644Y-12791644D01*
X9108644Y-12862356D01*
X9179356Y-12862356D01*
X9179356Y-13116356D02*
X9179356Y-13045644D01*
X9108644Y-13045644D01*
X9108644Y-13116356D01*
X9179356Y-13116356D01*
X9183544Y-12100356D02*
X9183544Y-12029644D01*
X9112832Y-12029644D01*
X9112832Y-12100356D01*
X9183544Y-12100356D01*
X9738356Y-14259356D02*
X9738356Y-14188644D01*
X9667644Y-14188644D01*
X9667644Y-14259356D01*
X9738356Y-14259356D01*
X10398356Y-14259356D02*
X10398356Y-14188644D01*
X10327644Y-14188644D01*
X10327644Y-14259356D01*
X10398356Y-14259356D01*
X10957356Y-8290356D02*
X10957356Y-8219644D01*
X10886644Y-8219644D01*
X10886644Y-8290356D01*
X10957356Y-8290356D01*
X10957356Y-8544356D02*
X10957356Y-8473644D01*
X10886644Y-8473644D01*
X10886644Y-8544356D01*
X10957356Y-8544356D01*
X10957356Y-8798356D02*
X10957356Y-8727644D01*
X10886644Y-8727644D01*
X10886644Y-8798356D01*
X10957356Y-8798356D01*
X10957356Y-9052356D02*
X10957356Y-8981644D01*
X10886644Y-8981644D01*
X10886644Y-9052356D01*
X10957356Y-9052356D01*
X10957356Y-9306356D02*
X10957356Y-9235644D01*
X10886644Y-9235644D01*
X10886644Y-9306356D01*
X10957356Y-9306356D01*
X10957356Y-9560356D02*
X10957356Y-9489644D01*
X10886644Y-9489644D01*
X10886644Y-9560356D01*
X10957356Y-9560356D01*
X10957356Y-9814356D02*
X10957356Y-9743644D01*
X10886644Y-9743644D01*
X10886644Y-9814356D01*
X10957356Y-9814356D01*
X10957356Y-10068356D02*
X10957356Y-9997644D01*
X10886644Y-9997644D01*
X10886644Y-10068356D01*
X10957356Y-10068356D01*
X10957356Y-10322356D02*
X10957356Y-10251644D01*
X10886644Y-10251644D01*
X10886644Y-10322356D01*
X10957356Y-10322356D01*
X10957356Y-10576356D02*
X10957356Y-10505644D01*
X10886644Y-10505644D01*
X10886644Y-10576356D01*
X10957356Y-10576356D01*
X10957356Y-10830356D02*
X10957356Y-10759644D01*
X10886644Y-10759644D01*
X10886644Y-10830356D01*
X10957356Y-10830356D01*
X10957356Y-11084356D02*
X10957356Y-11013644D01*
X10886644Y-11013644D01*
X10886644Y-11084356D01*
X10957356Y-11084356D01*
X10957356Y-11338356D02*
X10957356Y-11267644D01*
X10886644Y-11267644D01*
X10886644Y-11338356D01*
X10957356Y-11338356D01*
X10957356Y-11592356D02*
X10957356Y-11521644D01*
X10886644Y-11521644D01*
X10886644Y-11592356D01*
X10957356Y-11592356D01*
X10957356Y-11846356D02*
X10957356Y-11775644D01*
X10886644Y-11775644D01*
X10886644Y-11846356D01*
X10957356Y-11846356D01*
X10957356Y-12100356D02*
X10957356Y-12029644D01*
X10886644Y-12029644D01*
X10886644Y-12100356D01*
X10957356Y-12100356D01*
X10957356Y-12354356D02*
X10957356Y-12283644D01*
X10886644Y-12283644D01*
X10886644Y-12354356D01*
X10957356Y-12354356D01*
X10957356Y-12608356D02*
X10957356Y-12537644D01*
X10886644Y-12537644D01*
X10886644Y-12608356D01*
X10957356Y-12608356D01*
X10957356Y-12862356D02*
X10957356Y-12791644D01*
X10886644Y-12791644D01*
X10886644Y-12862356D01*
X10957356Y-12862356D01*
X10957356Y-13116356D02*
X10957356Y-13045644D01*
X10886644Y-13045644D01*
X10886644Y-13116356D01*
X10957356Y-13116356D01*
X11706656Y-8145356D02*
X11706656Y-8074644D01*
X11635944Y-8074644D01*
X11635944Y-8145356D01*
X11706656Y-8145356D01*
X11706656Y-8442756D02*
X11706656Y-8372044D01*
X11635944Y-8372044D01*
X11635944Y-8442756D01*
X11706656Y-8442756D01*
X11706656Y-8735356D02*
X11706656Y-8664644D01*
X11635944Y-8664644D01*
X11635944Y-8735356D01*
X11706656Y-8735356D01*
X11721856Y-9430856D02*
X11721856Y-9360144D01*
X11651144Y-9360144D01*
X11651144Y-9430856D01*
X11721856Y-9430856D01*
X11975856Y-9430856D02*
X11975856Y-9360144D01*
X11905144Y-9360144D01*
X11905144Y-9430856D01*
X11975856Y-9430856D01*
X12229856Y-9430856D02*
X12229856Y-9360144D01*
X12159144Y-9360144D01*
X12159144Y-9430856D01*
X12229856Y-9430856D01*
X12483856Y-9430856D02*
X12483856Y-9360144D01*
X12413144Y-9360144D01*
X12413144Y-9430856D01*
X12483856Y-9430856D01*
X12737856Y-9430856D02*
X12737856Y-9360144D01*
X12667144Y-9360144D01*
X12667144Y-9430856D01*
X12737856Y-9430856D01*
X12991856Y-9430856D02*
X12991856Y-9360144D01*
X12921144Y-9360144D01*
X12921144Y-9430856D01*
X12991856Y-9430856D01*
X14640356Y-9433356D02*
X14640356Y-9362644D01*
X14569644Y-9362644D01*
X14569644Y-9433356D01*
X14640356Y-9433356D01*
X14894356Y-9433356D02*
X14894356Y-9362644D01*
X14823644Y-9362644D01*
X14823644Y-9433356D01*
X14894356Y-9433356D01*
X15148356Y-9433356D02*
X15148356Y-9362644D01*
X15077644Y-9362644D01*
X15077644Y-9433356D01*
X15148356Y-9433356D01*
X15402356Y-9433356D02*
X15402356Y-9362644D01*
X15331644Y-9362644D01*
X15331644Y-9433356D01*
X15402356Y-9433356D01*
D15*
X8311000Y-14308000D02*
X8366000Y-14253000D01*
X8311000Y-14198000D01*
X8256000Y-14253000D01*
X8311000Y-14308000D01*
X8311000Y-14758000D02*
X8366000Y-14703000D01*
X8311000Y-14648000D01*
X8256000Y-14703000D01*
X8311000Y-14758000D01*
X8961000Y-14308000D02*
X9016000Y-14253000D01*
X8961000Y-14198000D01*
X8906000Y-14253000D01*
X8961000Y-14308000D01*
X8961000Y-14758000D02*
X9016000Y-14703000D01*
X8961000Y-14648000D01*
X8906000Y-14703000D01*
X8961000Y-14758000D01*
X13391000Y-13419000D02*
X13446000Y-13364000D01*
X13391000Y-13309000D01*
X13336000Y-13364000D01*
X13391000Y-13419000D01*
X13391000Y-13869000D02*
X13446000Y-13814000D01*
X13391000Y-13759000D01*
X13336000Y-13814000D01*
X13391000Y-13869000D01*
X14041000Y-13419000D02*
X14096000Y-13364000D01*
X14041000Y-13309000D01*
X13986000Y-13364000D01*
X14041000Y-13419000D01*
X14041000Y-13869000D02*
X14096000Y-13814000D01*
X14041000Y-13759000D01*
X13986000Y-13814000D01*
X14041000Y-13869000D01*
X14661000Y-12403000D02*
X14716000Y-12348000D01*
X14661000Y-12293000D01*
X14606000Y-12348000D01*
X14661000Y-12403000D01*
X14661000Y-12853000D02*
X14716000Y-12798000D01*
X14661000Y-12743000D01*
X14606000Y-12798000D01*
X14661000Y-12853000D01*
X14661000Y-13419000D02*
X14716000Y-13364000D01*
X14661000Y-13309000D01*
X14606000Y-13364000D01*
X14661000Y-13419000D01*
X14661000Y-13869000D02*
X14716000Y-13814000D01*
X14661000Y-13759000D01*
X14606000Y-13814000D01*
X14661000Y-13869000D01*
X14661000Y-14435000D02*
X14716000Y-14380000D01*
X14661000Y-14325000D01*
X14606000Y-14380000D01*
X14661000Y-14435000D01*
X14661000Y-14885000D02*
X14716000Y-14830000D01*
X14661000Y-14775000D01*
X14606000Y-14830000D01*
X14661000Y-14885000D01*
X15311000Y-12403000D02*
X15366000Y-12348000D01*
X15311000Y-12293000D01*
X15256000Y-12348000D01*
X15311000Y-12403000D01*
X15311000Y-12853000D02*
X15366000Y-12798000D01*
X15311000Y-12743000D01*
X15256000Y-12798000D01*
X15311000Y-12853000D01*
X15311000Y-13419000D02*
X15366000Y-13364000D01*
X15311000Y-13309000D01*
X15256000Y-13364000D01*
X15311000Y-13419000D01*
X15311000Y-13869000D02*
X15366000Y-13814000D01*
X15311000Y-13759000D01*
X15256000Y-13814000D01*
X15311000Y-13869000D01*
X15311000Y-14435000D02*
X15366000Y-14380000D01*
X15311000Y-14325000D01*
X15256000Y-14380000D01*
X15311000Y-14435000D01*
X15311000Y-14885000D02*
X15366000Y-14830000D01*
X15311000Y-14775000D01*
X15256000Y-14830000D01*
X15311000Y-14885000D01*
X15931000Y-13419000D02*
X15986000Y-13364000D01*
X15931000Y-13309000D01*
X15876000Y-13364000D01*
X15931000Y-13419000D01*
X15931000Y-13869000D02*
X15986000Y-13814000D01*
X15931000Y-13759000D01*
X15876000Y-13814000D01*
X15931000Y-13869000D01*
X16581000Y-13419000D02*
X16636000Y-13364000D01*
X16581000Y-13309000D01*
X16526000Y-13364000D01*
X16581000Y-13419000D01*
X16581000Y-13869000D02*
X16636000Y-13814000D01*
X16581000Y-13759000D01*
X16526000Y-13814000D01*
X16581000Y-13869000D01*
D11*
X7748777Y-15619984D02*
X7748777Y-15419984D01*
X7748777Y-15419984D02*
X7796396Y-15419984D01*
X7796396Y-15419984D02*
X7824967Y-15429508D01*
X7824967Y-15429508D02*
X7844015Y-15448555D01*
X7844015Y-15448555D02*
X7853539Y-15467603D01*
X7853539Y-15467603D02*
X7863062Y-15505698D01*
X7863062Y-15505698D02*
X7863062Y-15534269D01*
X7863062Y-15534269D02*
X7853539Y-15572365D01*
X7853539Y-15572365D02*
X7844015Y-15591412D01*
X7844015Y-15591412D02*
X7824967Y-15610460D01*
X7824967Y-15610460D02*
X7796396Y-15619984D01*
X7796396Y-15619984D02*
X7748777Y-15619984D01*
X7948777Y-15619984D02*
X7948777Y-15486650D01*
X7948777Y-15524746D02*
X7958301Y-15505698D01*
X7958301Y-15505698D02*
X7967824Y-15496174D01*
X7967824Y-15496174D02*
X7986872Y-15486650D01*
X7986872Y-15486650D02*
X8005920Y-15486650D01*
X8072586Y-15619984D02*
X8072586Y-15486650D01*
X8072586Y-15419984D02*
X8063062Y-15429508D01*
X8063062Y-15429508D02*
X8072586Y-15439031D01*
X8072586Y-15439031D02*
X8082110Y-15429508D01*
X8082110Y-15429508D02*
X8072586Y-15419984D01*
X8072586Y-15419984D02*
X8072586Y-15439031D01*
X8196396Y-15619984D02*
X8177348Y-15610460D01*
X8177348Y-15610460D02*
X8167824Y-15591412D01*
X8167824Y-15591412D02*
X8167824Y-15419984D01*
X8301158Y-15619984D02*
X8282110Y-15610460D01*
X8282110Y-15610460D02*
X8272586Y-15591412D01*
X8272586Y-15591412D02*
X8272586Y-15419984D01*
X8529729Y-15619984D02*
X8529729Y-15419984D01*
X8529729Y-15419984D02*
X8596396Y-15562841D01*
X8596396Y-15562841D02*
X8663063Y-15419984D01*
X8663063Y-15419984D02*
X8663063Y-15619984D01*
X8844015Y-15619984D02*
X8844015Y-15515222D01*
X8844015Y-15515222D02*
X8834491Y-15496174D01*
X8834491Y-15496174D02*
X8815444Y-15486650D01*
X8815444Y-15486650D02*
X8777348Y-15486650D01*
X8777348Y-15486650D02*
X8758301Y-15496174D01*
X8844015Y-15610460D02*
X8824967Y-15619984D01*
X8824967Y-15619984D02*
X8777348Y-15619984D01*
X8777348Y-15619984D02*
X8758301Y-15610460D01*
X8758301Y-15610460D02*
X8748777Y-15591412D01*
X8748777Y-15591412D02*
X8748777Y-15572365D01*
X8748777Y-15572365D02*
X8758301Y-15553317D01*
X8758301Y-15553317D02*
X8777348Y-15543793D01*
X8777348Y-15543793D02*
X8824967Y-15543793D01*
X8824967Y-15543793D02*
X8844015Y-15534269D01*
X8939253Y-15486650D02*
X8939253Y-15686650D01*
X8939253Y-15496174D02*
X8958301Y-15486650D01*
X8958301Y-15486650D02*
X8996396Y-15486650D01*
X8996396Y-15486650D02*
X9015444Y-15496174D01*
X9015444Y-15496174D02*
X9024967Y-15505698D01*
X9024967Y-15505698D02*
X9034491Y-15524746D01*
X9034491Y-15524746D02*
X9034491Y-15581888D01*
X9034491Y-15581888D02*
X9024967Y-15600936D01*
X9024967Y-15600936D02*
X9015444Y-15610460D01*
X9015444Y-15610460D02*
X8996396Y-15619984D01*
X8996396Y-15619984D02*
X8958301Y-15619984D01*
X8958301Y-15619984D02*
X8939253Y-15610460D01*
X9120205Y-15600936D02*
X9129729Y-15610460D01*
X9129729Y-15610460D02*
X9120205Y-15619984D01*
X9120205Y-15619984D02*
X9110682Y-15610460D01*
X9110682Y-15610460D02*
X9120205Y-15600936D01*
X9120205Y-15600936D02*
X9120205Y-15619984D01*
X9120205Y-15496174D02*
X9129729Y-15505698D01*
X9129729Y-15505698D02*
X9120205Y-15515222D01*
X9120205Y-15515222D02*
X9110682Y-15505698D01*
X9110682Y-15505698D02*
X9120205Y-15496174D01*
X9120205Y-15496174D02*
X9120205Y-15515222D01*
D12*
X7448000Y-15928500D02*
X7488000Y-15968500D01*
X7488000Y-15928500D02*
X7448000Y-15968500D01*
D11*
X7786872Y-15839984D02*
X7805920Y-15839984D01*
X7805920Y-15839984D02*
X7824967Y-15849508D01*
X7824967Y-15849508D02*
X7834491Y-15859031D01*
X7834491Y-15859031D02*
X7844015Y-15878079D01*
X7844015Y-15878079D02*
X7853539Y-15916174D01*
X7853539Y-15916174D02*
X7853539Y-15963793D01*
X7853539Y-15963793D02*
X7844015Y-16001888D01*
X7844015Y-16001888D02*
X7834491Y-16020936D01*
X7834491Y-16020936D02*
X7824967Y-16030460D01*
X7824967Y-16030460D02*
X7805920Y-16039984D01*
X7805920Y-16039984D02*
X7786872Y-16039984D01*
X7786872Y-16039984D02*
X7767824Y-16030460D01*
X7767824Y-16030460D02*
X7758301Y-16020936D01*
X7758301Y-16020936D02*
X7748777Y-16001888D01*
X7748777Y-16001888D02*
X7739253Y-15963793D01*
X7739253Y-15963793D02*
X7739253Y-15916174D01*
X7739253Y-15916174D02*
X7748777Y-15878079D01*
X7748777Y-15878079D02*
X7758301Y-15859031D01*
X7758301Y-15859031D02*
X7767824Y-15849508D01*
X7767824Y-15849508D02*
X7786872Y-15839984D01*
X7939253Y-16020936D02*
X7948777Y-16030460D01*
X7948777Y-16030460D02*
X7939253Y-16039984D01*
X7939253Y-16039984D02*
X7929729Y-16030460D01*
X7929729Y-16030460D02*
X7939253Y-16020936D01*
X7939253Y-16020936D02*
X7939253Y-16039984D01*
X8120205Y-15906650D02*
X8120205Y-16039984D01*
X8072586Y-15830460D02*
X8024967Y-15973317D01*
X8024967Y-15973317D02*
X8148777Y-15973317D01*
X8263062Y-15839984D02*
X8282110Y-15839984D01*
X8282110Y-15839984D02*
X8301158Y-15849508D01*
X8301158Y-15849508D02*
X8310682Y-15859031D01*
X8310682Y-15859031D02*
X8320205Y-15878079D01*
X8320205Y-15878079D02*
X8329729Y-15916174D01*
X8329729Y-15916174D02*
X8329729Y-15963793D01*
X8329729Y-15963793D02*
X8320205Y-16001888D01*
X8320205Y-16001888D02*
X8310682Y-16020936D01*
X8310682Y-16020936D02*
X8301158Y-16030460D01*
X8301158Y-16030460D02*
X8282110Y-16039984D01*
X8282110Y-16039984D02*
X8263062Y-16039984D01*
X8263062Y-16039984D02*
X8244015Y-16030460D01*
X8244015Y-16030460D02*
X8234491Y-16020936D01*
X8234491Y-16020936D02*
X8224967Y-16001888D01*
X8224967Y-16001888D02*
X8215443Y-15963793D01*
X8215443Y-15963793D02*
X8215443Y-15916174D01*
X8215443Y-15916174D02*
X8224967Y-15878079D01*
X8224967Y-15878079D02*
X8234491Y-15859031D01*
X8234491Y-15859031D02*
X8244015Y-15849508D01*
X8244015Y-15849508D02*
X8263062Y-15839984D01*
X8453539Y-15839984D02*
X8472586Y-15839984D01*
X8472586Y-15839984D02*
X8491634Y-15849508D01*
X8491634Y-15849508D02*
X8501158Y-15859031D01*
X8501158Y-15859031D02*
X8510682Y-15878079D01*
X8510682Y-15878079D02*
X8520205Y-15916174D01*
X8520205Y-15916174D02*
X8520205Y-15963793D01*
X8520205Y-15963793D02*
X8510682Y-16001888D01*
X8510682Y-16001888D02*
X8501158Y-16020936D01*
X8501158Y-16020936D02*
X8491634Y-16030460D01*
X8491634Y-16030460D02*
X8472586Y-16039984D01*
X8472586Y-16039984D02*
X8453539Y-16039984D01*
X8453539Y-16039984D02*
X8434491Y-16030460D01*
X8434491Y-16030460D02*
X8424967Y-16020936D01*
X8424967Y-16020936D02*
X8415444Y-16001888D01*
X8415444Y-16001888D02*
X8405920Y-15963793D01*
X8405920Y-15963793D02*
X8405920Y-15916174D01*
X8405920Y-15916174D02*
X8415444Y-15878079D01*
X8415444Y-15878079D02*
X8424967Y-15859031D01*
X8424967Y-15859031D02*
X8434491Y-15849508D01*
X8434491Y-15849508D02*
X8453539Y-15839984D01*
X8605920Y-16039984D02*
X8605920Y-15906650D01*
X8605920Y-15925698D02*
X8615444Y-15916174D01*
X8615444Y-15916174D02*
X8634491Y-15906650D01*
X8634491Y-15906650D02*
X8663063Y-15906650D01*
X8663063Y-15906650D02*
X8682110Y-15916174D01*
X8682110Y-15916174D02*
X8691634Y-15935222D01*
X8691634Y-15935222D02*
X8691634Y-16039984D01*
X8691634Y-15935222D02*
X8701158Y-15916174D01*
X8701158Y-15916174D02*
X8720205Y-15906650D01*
X8720205Y-15906650D02*
X8748777Y-15906650D01*
X8748777Y-15906650D02*
X8767825Y-15916174D01*
X8767825Y-15916174D02*
X8777348Y-15935222D01*
X8777348Y-15935222D02*
X8777348Y-16039984D01*
X8872586Y-16039984D02*
X8872586Y-15906650D01*
X8872586Y-15925698D02*
X8882110Y-15916174D01*
X8882110Y-15916174D02*
X8901158Y-15906650D01*
X8901158Y-15906650D02*
X8929729Y-15906650D01*
X8929729Y-15906650D02*
X8948777Y-15916174D01*
X8948777Y-15916174D02*
X8958301Y-15935222D01*
X8958301Y-15935222D02*
X8958301Y-16039984D01*
X8958301Y-15935222D02*
X8967825Y-15916174D01*
X8967825Y-15916174D02*
X8986872Y-15906650D01*
X8986872Y-15906650D02*
X9015444Y-15906650D01*
X9015444Y-15906650D02*
X9034491Y-15916174D01*
X9034491Y-15916174D02*
X9044015Y-15935222D01*
X9044015Y-15935222D02*
X9044015Y-16039984D01*
X9434491Y-15830460D02*
X9263063Y-16087603D01*
X9691634Y-15839984D02*
X9710682Y-15839984D01*
X9710682Y-15839984D02*
X9729729Y-15849508D01*
X9729729Y-15849508D02*
X9739253Y-15859031D01*
X9739253Y-15859031D02*
X9748777Y-15878079D01*
X9748777Y-15878079D02*
X9758301Y-15916174D01*
X9758301Y-15916174D02*
X9758301Y-15963793D01*
X9758301Y-15963793D02*
X9748777Y-16001888D01*
X9748777Y-16001888D02*
X9739253Y-16020936D01*
X9739253Y-16020936D02*
X9729729Y-16030460D01*
X9729729Y-16030460D02*
X9710682Y-16039984D01*
X9710682Y-16039984D02*
X9691634Y-16039984D01*
X9691634Y-16039984D02*
X9672587Y-16030460D01*
X9672587Y-16030460D02*
X9663063Y-16020936D01*
X9663063Y-16020936D02*
X9653539Y-16001888D01*
X9653539Y-16001888D02*
X9644015Y-15963793D01*
X9644015Y-15963793D02*
X9644015Y-15916174D01*
X9644015Y-15916174D02*
X9653539Y-15878079D01*
X9653539Y-15878079D02*
X9663063Y-15859031D01*
X9663063Y-15859031D02*
X9672587Y-15849508D01*
X9672587Y-15849508D02*
X9691634Y-15839984D01*
X9844015Y-16020936D02*
X9853539Y-16030460D01*
X9853539Y-16030460D02*
X9844015Y-16039984D01*
X9844015Y-16039984D02*
X9834491Y-16030460D01*
X9834491Y-16030460D02*
X9844015Y-16020936D01*
X9844015Y-16020936D02*
X9844015Y-16039984D01*
X9977348Y-15839984D02*
X9996396Y-15839984D01*
X9996396Y-15839984D02*
X10015444Y-15849508D01*
X10015444Y-15849508D02*
X10024968Y-15859031D01*
X10024968Y-15859031D02*
X10034491Y-15878079D01*
X10034491Y-15878079D02*
X10044015Y-15916174D01*
X10044015Y-15916174D02*
X10044015Y-15963793D01*
X10044015Y-15963793D02*
X10034491Y-16001888D01*
X10034491Y-16001888D02*
X10024968Y-16020936D01*
X10024968Y-16020936D02*
X10015444Y-16030460D01*
X10015444Y-16030460D02*
X9996396Y-16039984D01*
X9996396Y-16039984D02*
X9977348Y-16039984D01*
X9977348Y-16039984D02*
X9958301Y-16030460D01*
X9958301Y-16030460D02*
X9948777Y-16020936D01*
X9948777Y-16020936D02*
X9939253Y-16001888D01*
X9939253Y-16001888D02*
X9929729Y-15963793D01*
X9929729Y-15963793D02*
X9929729Y-15916174D01*
X9929729Y-15916174D02*
X9939253Y-15878079D01*
X9939253Y-15878079D02*
X9948777Y-15859031D01*
X9948777Y-15859031D02*
X9958301Y-15849508D01*
X9958301Y-15849508D02*
X9977348Y-15839984D01*
X10234491Y-16039984D02*
X10120206Y-16039984D01*
X10177348Y-16039984D02*
X10177348Y-15839984D01*
X10177348Y-15839984D02*
X10158301Y-15868555D01*
X10158301Y-15868555D02*
X10139253Y-15887603D01*
X10139253Y-15887603D02*
X10120206Y-15897127D01*
X10415444Y-15839984D02*
X10320206Y-15839984D01*
X10320206Y-15839984D02*
X10310682Y-15935222D01*
X10310682Y-15935222D02*
X10320206Y-15925698D01*
X10320206Y-15925698D02*
X10339253Y-15916174D01*
X10339253Y-15916174D02*
X10386872Y-15916174D01*
X10386872Y-15916174D02*
X10405920Y-15925698D01*
X10405920Y-15925698D02*
X10415444Y-15935222D01*
X10415444Y-15935222D02*
X10424968Y-15954269D01*
X10424968Y-15954269D02*
X10424968Y-16001888D01*
X10424968Y-16001888D02*
X10415444Y-16020936D01*
X10415444Y-16020936D02*
X10405920Y-16030460D01*
X10405920Y-16030460D02*
X10386872Y-16039984D01*
X10386872Y-16039984D02*
X10339253Y-16039984D01*
X10339253Y-16039984D02*
X10320206Y-16030460D01*
X10320206Y-16030460D02*
X10310682Y-16020936D01*
X10491634Y-15839984D02*
X10624968Y-15839984D01*
X10624968Y-15839984D02*
X10539253Y-16039984D01*
X10691634Y-15839984D02*
X10691634Y-15878079D01*
X10767825Y-15839984D02*
X10767825Y-15878079D01*
X11063063Y-16116174D02*
X11053539Y-16106650D01*
X11053539Y-16106650D02*
X11034491Y-16078079D01*
X11034491Y-16078079D02*
X11024968Y-16059031D01*
X11024968Y-16059031D02*
X11015444Y-16030460D01*
X11015444Y-16030460D02*
X11005920Y-15982841D01*
X11005920Y-15982841D02*
X11005920Y-15944746D01*
X11005920Y-15944746D02*
X11015444Y-15897127D01*
X11015444Y-15897127D02*
X11024968Y-15868555D01*
X11024968Y-15868555D02*
X11034491Y-15849508D01*
X11034491Y-15849508D02*
X11053539Y-15820936D01*
X11053539Y-15820936D02*
X11063063Y-15811412D01*
X11224968Y-15906650D02*
X11224968Y-16039984D01*
X11177349Y-15830460D02*
X11129730Y-15973317D01*
X11129730Y-15973317D02*
X11253539Y-15973317D01*
X11482110Y-16039984D02*
X11482110Y-15839984D01*
X11567825Y-16039984D02*
X11567825Y-15935222D01*
X11567825Y-15935222D02*
X11558301Y-15916174D01*
X11558301Y-15916174D02*
X11539253Y-15906650D01*
X11539253Y-15906650D02*
X11510682Y-15906650D01*
X11510682Y-15906650D02*
X11491634Y-15916174D01*
X11491634Y-15916174D02*
X11482110Y-15925698D01*
X11691634Y-16039984D02*
X11672587Y-16030460D01*
X11672587Y-16030460D02*
X11663063Y-16020936D01*
X11663063Y-16020936D02*
X11653539Y-16001888D01*
X11653539Y-16001888D02*
X11653539Y-15944746D01*
X11653539Y-15944746D02*
X11663063Y-15925698D01*
X11663063Y-15925698D02*
X11672587Y-15916174D01*
X11672587Y-15916174D02*
X11691634Y-15906650D01*
X11691634Y-15906650D02*
X11720206Y-15906650D01*
X11720206Y-15906650D02*
X11739253Y-15916174D01*
X11739253Y-15916174D02*
X11748777Y-15925698D01*
X11748777Y-15925698D02*
X11758301Y-15944746D01*
X11758301Y-15944746D02*
X11758301Y-16001888D01*
X11758301Y-16001888D02*
X11748777Y-16020936D01*
X11748777Y-16020936D02*
X11739253Y-16030460D01*
X11739253Y-16030460D02*
X11720206Y-16039984D01*
X11720206Y-16039984D02*
X11691634Y-16039984D01*
X11872587Y-16039984D02*
X11853539Y-16030460D01*
X11853539Y-16030460D02*
X11844015Y-16011412D01*
X11844015Y-16011412D02*
X11844015Y-15839984D01*
X12024968Y-16030460D02*
X12005920Y-16039984D01*
X12005920Y-16039984D02*
X11967825Y-16039984D01*
X11967825Y-16039984D02*
X11948777Y-16030460D01*
X11948777Y-16030460D02*
X11939253Y-16011412D01*
X11939253Y-16011412D02*
X11939253Y-15935222D01*
X11939253Y-15935222D02*
X11948777Y-15916174D01*
X11948777Y-15916174D02*
X11967825Y-15906650D01*
X11967825Y-15906650D02*
X12005920Y-15906650D01*
X12005920Y-15906650D02*
X12024968Y-15916174D01*
X12024968Y-15916174D02*
X12034491Y-15935222D01*
X12034491Y-15935222D02*
X12034491Y-15954269D01*
X12034491Y-15954269D02*
X11939253Y-15973317D01*
X12110682Y-16030460D02*
X12129730Y-16039984D01*
X12129730Y-16039984D02*
X12167825Y-16039984D01*
X12167825Y-16039984D02*
X12186872Y-16030460D01*
X12186872Y-16030460D02*
X12196396Y-16011412D01*
X12196396Y-16011412D02*
X12196396Y-16001888D01*
X12196396Y-16001888D02*
X12186872Y-15982841D01*
X12186872Y-15982841D02*
X12167825Y-15973317D01*
X12167825Y-15973317D02*
X12139253Y-15973317D01*
X12139253Y-15973317D02*
X12120206Y-15963793D01*
X12120206Y-15963793D02*
X12110682Y-15944746D01*
X12110682Y-15944746D02*
X12110682Y-15935222D01*
X12110682Y-15935222D02*
X12120206Y-15916174D01*
X12120206Y-15916174D02*
X12139253Y-15906650D01*
X12139253Y-15906650D02*
X12167825Y-15906650D01*
X12167825Y-15906650D02*
X12186872Y-15916174D01*
X12263063Y-16116174D02*
X12272587Y-16106650D01*
X12272587Y-16106650D02*
X12291634Y-16078079D01*
X12291634Y-16078079D02*
X12301158Y-16059031D01*
X12301158Y-16059031D02*
X12310682Y-16030460D01*
X12310682Y-16030460D02*
X12320206Y-15982841D01*
X12320206Y-15982841D02*
X12320206Y-15944746D01*
X12320206Y-15944746D02*
X12310682Y-15897127D01*
X12310682Y-15897127D02*
X12301158Y-15868555D01*
X12301158Y-15868555D02*
X12291634Y-15849508D01*
X12291634Y-15849508D02*
X12272587Y-15820936D01*
X12272587Y-15820936D02*
X12263063Y-15811412D01*
D13*
X7488000Y-16212500D02*
G75*
G03*
X7488000Y-16212500I-40000J0D01*
G01*
D11*
X7786872Y-16103984D02*
X7805920Y-16103984D01*
X7805920Y-16103984D02*
X7824967Y-16113508D01*
X7824967Y-16113508D02*
X7834491Y-16123031D01*
X7834491Y-16123031D02*
X7844015Y-16142079D01*
X7844015Y-16142079D02*
X7853539Y-16180174D01*
X7853539Y-16180174D02*
X7853539Y-16227793D01*
X7853539Y-16227793D02*
X7844015Y-16265888D01*
X7844015Y-16265888D02*
X7834491Y-16284936D01*
X7834491Y-16284936D02*
X7824967Y-16294460D01*
X7824967Y-16294460D02*
X7805920Y-16303984D01*
X7805920Y-16303984D02*
X7786872Y-16303984D01*
X7786872Y-16303984D02*
X7767824Y-16294460D01*
X7767824Y-16294460D02*
X7758301Y-16284936D01*
X7758301Y-16284936D02*
X7748777Y-16265888D01*
X7748777Y-16265888D02*
X7739253Y-16227793D01*
X7739253Y-16227793D02*
X7739253Y-16180174D01*
X7739253Y-16180174D02*
X7748777Y-16142079D01*
X7748777Y-16142079D02*
X7758301Y-16123031D01*
X7758301Y-16123031D02*
X7767824Y-16113508D01*
X7767824Y-16113508D02*
X7786872Y-16103984D01*
X7939253Y-16284936D02*
X7948777Y-16294460D01*
X7948777Y-16294460D02*
X7939253Y-16303984D01*
X7939253Y-16303984D02*
X7929729Y-16294460D01*
X7929729Y-16294460D02*
X7939253Y-16284936D01*
X7939253Y-16284936D02*
X7939253Y-16303984D01*
X8063062Y-16189698D02*
X8044015Y-16180174D01*
X8044015Y-16180174D02*
X8034491Y-16170650D01*
X8034491Y-16170650D02*
X8024967Y-16151603D01*
X8024967Y-16151603D02*
X8024967Y-16142079D01*
X8024967Y-16142079D02*
X8034491Y-16123031D01*
X8034491Y-16123031D02*
X8044015Y-16113508D01*
X8044015Y-16113508D02*
X8063062Y-16103984D01*
X8063062Y-16103984D02*
X8101158Y-16103984D01*
X8101158Y-16103984D02*
X8120205Y-16113508D01*
X8120205Y-16113508D02*
X8129729Y-16123031D01*
X8129729Y-16123031D02*
X8139253Y-16142079D01*
X8139253Y-16142079D02*
X8139253Y-16151603D01*
X8139253Y-16151603D02*
X8129729Y-16170650D01*
X8129729Y-16170650D02*
X8120205Y-16180174D01*
X8120205Y-16180174D02*
X8101158Y-16189698D01*
X8101158Y-16189698D02*
X8063062Y-16189698D01*
X8063062Y-16189698D02*
X8044015Y-16199222D01*
X8044015Y-16199222D02*
X8034491Y-16208746D01*
X8034491Y-16208746D02*
X8024967Y-16227793D01*
X8024967Y-16227793D02*
X8024967Y-16265888D01*
X8024967Y-16265888D02*
X8034491Y-16284936D01*
X8034491Y-16284936D02*
X8044015Y-16294460D01*
X8044015Y-16294460D02*
X8063062Y-16303984D01*
X8063062Y-16303984D02*
X8101158Y-16303984D01*
X8101158Y-16303984D02*
X8120205Y-16294460D01*
X8120205Y-16294460D02*
X8129729Y-16284936D01*
X8129729Y-16284936D02*
X8139253Y-16265888D01*
X8139253Y-16265888D02*
X8139253Y-16227793D01*
X8139253Y-16227793D02*
X8129729Y-16208746D01*
X8129729Y-16208746D02*
X8120205Y-16199222D01*
X8120205Y-16199222D02*
X8101158Y-16189698D01*
X8263062Y-16103984D02*
X8282110Y-16103984D01*
X8282110Y-16103984D02*
X8301158Y-16113508D01*
X8301158Y-16113508D02*
X8310682Y-16123031D01*
X8310682Y-16123031D02*
X8320205Y-16142079D01*
X8320205Y-16142079D02*
X8329729Y-16180174D01*
X8329729Y-16180174D02*
X8329729Y-16227793D01*
X8329729Y-16227793D02*
X8320205Y-16265888D01*
X8320205Y-16265888D02*
X8310682Y-16284936D01*
X8310682Y-16284936D02*
X8301158Y-16294460D01*
X8301158Y-16294460D02*
X8282110Y-16303984D01*
X8282110Y-16303984D02*
X8263062Y-16303984D01*
X8263062Y-16303984D02*
X8244015Y-16294460D01*
X8244015Y-16294460D02*
X8234491Y-16284936D01*
X8234491Y-16284936D02*
X8224967Y-16265888D01*
X8224967Y-16265888D02*
X8215443Y-16227793D01*
X8215443Y-16227793D02*
X8215443Y-16180174D01*
X8215443Y-16180174D02*
X8224967Y-16142079D01*
X8224967Y-16142079D02*
X8234491Y-16123031D01*
X8234491Y-16123031D02*
X8244015Y-16113508D01*
X8244015Y-16113508D02*
X8263062Y-16103984D01*
X8453539Y-16103984D02*
X8472586Y-16103984D01*
X8472586Y-16103984D02*
X8491634Y-16113508D01*
X8491634Y-16113508D02*
X8501158Y-16123031D01*
X8501158Y-16123031D02*
X8510682Y-16142079D01*
X8510682Y-16142079D02*
X8520205Y-16180174D01*
X8520205Y-16180174D02*
X8520205Y-16227793D01*
X8520205Y-16227793D02*
X8510682Y-16265888D01*
X8510682Y-16265888D02*
X8501158Y-16284936D01*
X8501158Y-16284936D02*
X8491634Y-16294460D01*
X8491634Y-16294460D02*
X8472586Y-16303984D01*
X8472586Y-16303984D02*
X8453539Y-16303984D01*
X8453539Y-16303984D02*
X8434491Y-16294460D01*
X8434491Y-16294460D02*
X8424967Y-16284936D01*
X8424967Y-16284936D02*
X8415444Y-16265888D01*
X8415444Y-16265888D02*
X8405920Y-16227793D01*
X8405920Y-16227793D02*
X8405920Y-16180174D01*
X8405920Y-16180174D02*
X8415444Y-16142079D01*
X8415444Y-16142079D02*
X8424967Y-16123031D01*
X8424967Y-16123031D02*
X8434491Y-16113508D01*
X8434491Y-16113508D02*
X8453539Y-16103984D01*
X8605920Y-16303984D02*
X8605920Y-16170650D01*
X8605920Y-16189698D02*
X8615444Y-16180174D01*
X8615444Y-16180174D02*
X8634491Y-16170650D01*
X8634491Y-16170650D02*
X8663063Y-16170650D01*
X8663063Y-16170650D02*
X8682110Y-16180174D01*
X8682110Y-16180174D02*
X8691634Y-16199222D01*
X8691634Y-16199222D02*
X8691634Y-16303984D01*
X8691634Y-16199222D02*
X8701158Y-16180174D01*
X8701158Y-16180174D02*
X8720205Y-16170650D01*
X8720205Y-16170650D02*
X8748777Y-16170650D01*
X8748777Y-16170650D02*
X8767825Y-16180174D01*
X8767825Y-16180174D02*
X8777348Y-16199222D01*
X8777348Y-16199222D02*
X8777348Y-16303984D01*
X8872586Y-16303984D02*
X8872586Y-16170650D01*
X8872586Y-16189698D02*
X8882110Y-16180174D01*
X8882110Y-16180174D02*
X8901158Y-16170650D01*
X8901158Y-16170650D02*
X8929729Y-16170650D01*
X8929729Y-16170650D02*
X8948777Y-16180174D01*
X8948777Y-16180174D02*
X8958301Y-16199222D01*
X8958301Y-16199222D02*
X8958301Y-16303984D01*
X8958301Y-16199222D02*
X8967825Y-16180174D01*
X8967825Y-16180174D02*
X8986872Y-16170650D01*
X8986872Y-16170650D02*
X9015444Y-16170650D01*
X9015444Y-16170650D02*
X9034491Y-16180174D01*
X9034491Y-16180174D02*
X9044015Y-16199222D01*
X9044015Y-16199222D02*
X9044015Y-16303984D01*
X9434491Y-16094460D02*
X9263063Y-16351603D01*
X9691634Y-16103984D02*
X9710682Y-16103984D01*
X9710682Y-16103984D02*
X9729729Y-16113508D01*
X9729729Y-16113508D02*
X9739253Y-16123031D01*
X9739253Y-16123031D02*
X9748777Y-16142079D01*
X9748777Y-16142079D02*
X9758301Y-16180174D01*
X9758301Y-16180174D02*
X9758301Y-16227793D01*
X9758301Y-16227793D02*
X9748777Y-16265888D01*
X9748777Y-16265888D02*
X9739253Y-16284936D01*
X9739253Y-16284936D02*
X9729729Y-16294460D01*
X9729729Y-16294460D02*
X9710682Y-16303984D01*
X9710682Y-16303984D02*
X9691634Y-16303984D01*
X9691634Y-16303984D02*
X9672587Y-16294460D01*
X9672587Y-16294460D02*
X9663063Y-16284936D01*
X9663063Y-16284936D02*
X9653539Y-16265888D01*
X9653539Y-16265888D02*
X9644015Y-16227793D01*
X9644015Y-16227793D02*
X9644015Y-16180174D01*
X9644015Y-16180174D02*
X9653539Y-16142079D01*
X9653539Y-16142079D02*
X9663063Y-16123031D01*
X9663063Y-16123031D02*
X9672587Y-16113508D01*
X9672587Y-16113508D02*
X9691634Y-16103984D01*
X9844015Y-16284936D02*
X9853539Y-16294460D01*
X9853539Y-16294460D02*
X9844015Y-16303984D01*
X9844015Y-16303984D02*
X9834491Y-16294460D01*
X9834491Y-16294460D02*
X9844015Y-16284936D01*
X9844015Y-16284936D02*
X9844015Y-16303984D01*
X9977348Y-16103984D02*
X9996396Y-16103984D01*
X9996396Y-16103984D02*
X10015444Y-16113508D01*
X10015444Y-16113508D02*
X10024968Y-16123031D01*
X10024968Y-16123031D02*
X10034491Y-16142079D01*
X10034491Y-16142079D02*
X10044015Y-16180174D01*
X10044015Y-16180174D02*
X10044015Y-16227793D01*
X10044015Y-16227793D02*
X10034491Y-16265888D01*
X10034491Y-16265888D02*
X10024968Y-16284936D01*
X10024968Y-16284936D02*
X10015444Y-16294460D01*
X10015444Y-16294460D02*
X9996396Y-16303984D01*
X9996396Y-16303984D02*
X9977348Y-16303984D01*
X9977348Y-16303984D02*
X9958301Y-16294460D01*
X9958301Y-16294460D02*
X9948777Y-16284936D01*
X9948777Y-16284936D02*
X9939253Y-16265888D01*
X9939253Y-16265888D02*
X9929729Y-16227793D01*
X9929729Y-16227793D02*
X9929729Y-16180174D01*
X9929729Y-16180174D02*
X9939253Y-16142079D01*
X9939253Y-16142079D02*
X9948777Y-16123031D01*
X9948777Y-16123031D02*
X9958301Y-16113508D01*
X9958301Y-16113508D02*
X9977348Y-16103984D01*
X10110682Y-16103984D02*
X10234491Y-16103984D01*
X10234491Y-16103984D02*
X10167825Y-16180174D01*
X10167825Y-16180174D02*
X10196396Y-16180174D01*
X10196396Y-16180174D02*
X10215444Y-16189698D01*
X10215444Y-16189698D02*
X10224968Y-16199222D01*
X10224968Y-16199222D02*
X10234491Y-16218269D01*
X10234491Y-16218269D02*
X10234491Y-16265888D01*
X10234491Y-16265888D02*
X10224968Y-16284936D01*
X10224968Y-16284936D02*
X10215444Y-16294460D01*
X10215444Y-16294460D02*
X10196396Y-16303984D01*
X10196396Y-16303984D02*
X10139253Y-16303984D01*
X10139253Y-16303984D02*
X10120206Y-16294460D01*
X10120206Y-16294460D02*
X10110682Y-16284936D01*
X10424968Y-16303984D02*
X10310682Y-16303984D01*
X10367825Y-16303984D02*
X10367825Y-16103984D01*
X10367825Y-16103984D02*
X10348777Y-16132555D01*
X10348777Y-16132555D02*
X10329729Y-16151603D01*
X10329729Y-16151603D02*
X10310682Y-16161127D01*
X10605920Y-16103984D02*
X10510682Y-16103984D01*
X10510682Y-16103984D02*
X10501158Y-16199222D01*
X10501158Y-16199222D02*
X10510682Y-16189698D01*
X10510682Y-16189698D02*
X10529729Y-16180174D01*
X10529729Y-16180174D02*
X10577349Y-16180174D01*
X10577349Y-16180174D02*
X10596396Y-16189698D01*
X10596396Y-16189698D02*
X10605920Y-16199222D01*
X10605920Y-16199222D02*
X10615444Y-16218269D01*
X10615444Y-16218269D02*
X10615444Y-16265888D01*
X10615444Y-16265888D02*
X10605920Y-16284936D01*
X10605920Y-16284936D02*
X10596396Y-16294460D01*
X10596396Y-16294460D02*
X10577349Y-16303984D01*
X10577349Y-16303984D02*
X10529729Y-16303984D01*
X10529729Y-16303984D02*
X10510682Y-16294460D01*
X10510682Y-16294460D02*
X10501158Y-16284936D01*
X10691634Y-16103984D02*
X10691634Y-16142079D01*
X10767825Y-16103984D02*
X10767825Y-16142079D01*
X11063063Y-16380174D02*
X11053539Y-16370650D01*
X11053539Y-16370650D02*
X11034491Y-16342079D01*
X11034491Y-16342079D02*
X11024968Y-16323031D01*
X11024968Y-16323031D02*
X11015444Y-16294460D01*
X11015444Y-16294460D02*
X11005920Y-16246841D01*
X11005920Y-16246841D02*
X11005920Y-16208746D01*
X11005920Y-16208746D02*
X11015444Y-16161127D01*
X11015444Y-16161127D02*
X11024968Y-16132555D01*
X11024968Y-16132555D02*
X11034491Y-16113508D01*
X11034491Y-16113508D02*
X11053539Y-16084936D01*
X11053539Y-16084936D02*
X11063063Y-16075412D01*
X11148777Y-16303984D02*
X11186872Y-16303984D01*
X11186872Y-16303984D02*
X11205920Y-16294460D01*
X11205920Y-16294460D02*
X11215444Y-16284936D01*
X11215444Y-16284936D02*
X11234491Y-16256365D01*
X11234491Y-16256365D02*
X11244015Y-16218269D01*
X11244015Y-16218269D02*
X11244015Y-16142079D01*
X11244015Y-16142079D02*
X11234491Y-16123031D01*
X11234491Y-16123031D02*
X11224968Y-16113508D01*
X11224968Y-16113508D02*
X11205920Y-16103984D01*
X11205920Y-16103984D02*
X11167825Y-16103984D01*
X11167825Y-16103984D02*
X11148777Y-16113508D01*
X11148777Y-16113508D02*
X11139253Y-16123031D01*
X11139253Y-16123031D02*
X11129730Y-16142079D01*
X11129730Y-16142079D02*
X11129730Y-16189698D01*
X11129730Y-16189698D02*
X11139253Y-16208746D01*
X11139253Y-16208746D02*
X11148777Y-16218269D01*
X11148777Y-16218269D02*
X11167825Y-16227793D01*
X11167825Y-16227793D02*
X11205920Y-16227793D01*
X11205920Y-16227793D02*
X11224968Y-16218269D01*
X11224968Y-16218269D02*
X11234491Y-16208746D01*
X11234491Y-16208746D02*
X11244015Y-16189698D01*
X11482110Y-16303984D02*
X11482110Y-16103984D01*
X11567825Y-16303984D02*
X11567825Y-16199222D01*
X11567825Y-16199222D02*
X11558301Y-16180174D01*
X11558301Y-16180174D02*
X11539253Y-16170650D01*
X11539253Y-16170650D02*
X11510682Y-16170650D01*
X11510682Y-16170650D02*
X11491634Y-16180174D01*
X11491634Y-16180174D02*
X11482110Y-16189698D01*
X11691634Y-16303984D02*
X11672587Y-16294460D01*
X11672587Y-16294460D02*
X11663063Y-16284936D01*
X11663063Y-16284936D02*
X11653539Y-16265888D01*
X11653539Y-16265888D02*
X11653539Y-16208746D01*
X11653539Y-16208746D02*
X11663063Y-16189698D01*
X11663063Y-16189698D02*
X11672587Y-16180174D01*
X11672587Y-16180174D02*
X11691634Y-16170650D01*
X11691634Y-16170650D02*
X11720206Y-16170650D01*
X11720206Y-16170650D02*
X11739253Y-16180174D01*
X11739253Y-16180174D02*
X11748777Y-16189698D01*
X11748777Y-16189698D02*
X11758301Y-16208746D01*
X11758301Y-16208746D02*
X11758301Y-16265888D01*
X11758301Y-16265888D02*
X11748777Y-16284936D01*
X11748777Y-16284936D02*
X11739253Y-16294460D01*
X11739253Y-16294460D02*
X11720206Y-16303984D01*
X11720206Y-16303984D02*
X11691634Y-16303984D01*
X11872587Y-16303984D02*
X11853539Y-16294460D01*
X11853539Y-16294460D02*
X11844015Y-16275412D01*
X11844015Y-16275412D02*
X11844015Y-16103984D01*
X12024968Y-16294460D02*
X12005920Y-16303984D01*
X12005920Y-16303984D02*
X11967825Y-16303984D01*
X11967825Y-16303984D02*
X11948777Y-16294460D01*
X11948777Y-16294460D02*
X11939253Y-16275412D01*
X11939253Y-16275412D02*
X11939253Y-16199222D01*
X11939253Y-16199222D02*
X11948777Y-16180174D01*
X11948777Y-16180174D02*
X11967825Y-16170650D01*
X11967825Y-16170650D02*
X12005920Y-16170650D01*
X12005920Y-16170650D02*
X12024968Y-16180174D01*
X12024968Y-16180174D02*
X12034491Y-16199222D01*
X12034491Y-16199222D02*
X12034491Y-16218269D01*
X12034491Y-16218269D02*
X11939253Y-16237317D01*
X12110682Y-16294460D02*
X12129730Y-16303984D01*
X12129730Y-16303984D02*
X12167825Y-16303984D01*
X12167825Y-16303984D02*
X12186872Y-16294460D01*
X12186872Y-16294460D02*
X12196396Y-16275412D01*
X12196396Y-16275412D02*
X12196396Y-16265888D01*
X12196396Y-16265888D02*
X12186872Y-16246841D01*
X12186872Y-16246841D02*
X12167825Y-16237317D01*
X12167825Y-16237317D02*
X12139253Y-16237317D01*
X12139253Y-16237317D02*
X12120206Y-16227793D01*
X12120206Y-16227793D02*
X12110682Y-16208746D01*
X12110682Y-16208746D02*
X12110682Y-16199222D01*
X12110682Y-16199222D02*
X12120206Y-16180174D01*
X12120206Y-16180174D02*
X12139253Y-16170650D01*
X12139253Y-16170650D02*
X12167825Y-16170650D01*
X12167825Y-16170650D02*
X12186872Y-16180174D01*
X12263063Y-16380174D02*
X12272587Y-16370650D01*
X12272587Y-16370650D02*
X12291634Y-16342079D01*
X12291634Y-16342079D02*
X12301158Y-16323031D01*
X12301158Y-16323031D02*
X12310682Y-16294460D01*
X12310682Y-16294460D02*
X12320206Y-16246841D01*
X12320206Y-16246841D02*
X12320206Y-16208746D01*
X12320206Y-16208746D02*
X12310682Y-16161127D01*
X12310682Y-16161127D02*
X12301158Y-16132555D01*
X12301158Y-16132555D02*
X12291634Y-16113508D01*
X12291634Y-16113508D02*
X12272587Y-16084936D01*
X12272587Y-16084936D02*
X12263063Y-16075412D01*
D14*
X7443000Y-16431500D02*
X7443000Y-16521500D01*
X7398000Y-16476500D02*
X7488000Y-16476500D01*
D11*
X7786872Y-16367984D02*
X7805920Y-16367984D01*
X7805920Y-16367984D02*
X7824967Y-16377508D01*
X7824967Y-16377508D02*
X7834491Y-16387031D01*
X7834491Y-16387031D02*
X7844015Y-16406079D01*
X7844015Y-16406079D02*
X7853539Y-16444174D01*
X7853539Y-16444174D02*
X7853539Y-16491793D01*
X7853539Y-16491793D02*
X7844015Y-16529888D01*
X7844015Y-16529888D02*
X7834491Y-16548936D01*
X7834491Y-16548936D02*
X7824967Y-16558460D01*
X7824967Y-16558460D02*
X7805920Y-16567984D01*
X7805920Y-16567984D02*
X7786872Y-16567984D01*
X7786872Y-16567984D02*
X7767824Y-16558460D01*
X7767824Y-16558460D02*
X7758301Y-16548936D01*
X7758301Y-16548936D02*
X7748777Y-16529888D01*
X7748777Y-16529888D02*
X7739253Y-16491793D01*
X7739253Y-16491793D02*
X7739253Y-16444174D01*
X7739253Y-16444174D02*
X7748777Y-16406079D01*
X7748777Y-16406079D02*
X7758301Y-16387031D01*
X7758301Y-16387031D02*
X7767824Y-16377508D01*
X7767824Y-16377508D02*
X7786872Y-16367984D01*
X7939253Y-16548936D02*
X7948777Y-16558460D01*
X7948777Y-16558460D02*
X7939253Y-16567984D01*
X7939253Y-16567984D02*
X7929729Y-16558460D01*
X7929729Y-16558460D02*
X7939253Y-16548936D01*
X7939253Y-16548936D02*
X7939253Y-16567984D01*
X8044015Y-16567984D02*
X8082110Y-16567984D01*
X8082110Y-16567984D02*
X8101158Y-16558460D01*
X8101158Y-16558460D02*
X8110682Y-16548936D01*
X8110682Y-16548936D02*
X8129729Y-16520365D01*
X8129729Y-16520365D02*
X8139253Y-16482269D01*
X8139253Y-16482269D02*
X8139253Y-16406079D01*
X8139253Y-16406079D02*
X8129729Y-16387031D01*
X8129729Y-16387031D02*
X8120205Y-16377508D01*
X8120205Y-16377508D02*
X8101158Y-16367984D01*
X8101158Y-16367984D02*
X8063062Y-16367984D01*
X8063062Y-16367984D02*
X8044015Y-16377508D01*
X8044015Y-16377508D02*
X8034491Y-16387031D01*
X8034491Y-16387031D02*
X8024967Y-16406079D01*
X8024967Y-16406079D02*
X8024967Y-16453698D01*
X8024967Y-16453698D02*
X8034491Y-16472746D01*
X8034491Y-16472746D02*
X8044015Y-16482269D01*
X8044015Y-16482269D02*
X8063062Y-16491793D01*
X8063062Y-16491793D02*
X8101158Y-16491793D01*
X8101158Y-16491793D02*
X8120205Y-16482269D01*
X8120205Y-16482269D02*
X8129729Y-16472746D01*
X8129729Y-16472746D02*
X8139253Y-16453698D01*
X8263062Y-16367984D02*
X8282110Y-16367984D01*
X8282110Y-16367984D02*
X8301158Y-16377508D01*
X8301158Y-16377508D02*
X8310682Y-16387031D01*
X8310682Y-16387031D02*
X8320205Y-16406079D01*
X8320205Y-16406079D02*
X8329729Y-16444174D01*
X8329729Y-16444174D02*
X8329729Y-16491793D01*
X8329729Y-16491793D02*
X8320205Y-16529888D01*
X8320205Y-16529888D02*
X8310682Y-16548936D01*
X8310682Y-16548936D02*
X8301158Y-16558460D01*
X8301158Y-16558460D02*
X8282110Y-16567984D01*
X8282110Y-16567984D02*
X8263062Y-16567984D01*
X8263062Y-16567984D02*
X8244015Y-16558460D01*
X8244015Y-16558460D02*
X8234491Y-16548936D01*
X8234491Y-16548936D02*
X8224967Y-16529888D01*
X8224967Y-16529888D02*
X8215443Y-16491793D01*
X8215443Y-16491793D02*
X8215443Y-16444174D01*
X8215443Y-16444174D02*
X8224967Y-16406079D01*
X8224967Y-16406079D02*
X8234491Y-16387031D01*
X8234491Y-16387031D02*
X8244015Y-16377508D01*
X8244015Y-16377508D02*
X8263062Y-16367984D01*
X8453539Y-16367984D02*
X8472586Y-16367984D01*
X8472586Y-16367984D02*
X8491634Y-16377508D01*
X8491634Y-16377508D02*
X8501158Y-16387031D01*
X8501158Y-16387031D02*
X8510682Y-16406079D01*
X8510682Y-16406079D02*
X8520205Y-16444174D01*
X8520205Y-16444174D02*
X8520205Y-16491793D01*
X8520205Y-16491793D02*
X8510682Y-16529888D01*
X8510682Y-16529888D02*
X8501158Y-16548936D01*
X8501158Y-16548936D02*
X8491634Y-16558460D01*
X8491634Y-16558460D02*
X8472586Y-16567984D01*
X8472586Y-16567984D02*
X8453539Y-16567984D01*
X8453539Y-16567984D02*
X8434491Y-16558460D01*
X8434491Y-16558460D02*
X8424967Y-16548936D01*
X8424967Y-16548936D02*
X8415444Y-16529888D01*
X8415444Y-16529888D02*
X8405920Y-16491793D01*
X8405920Y-16491793D02*
X8405920Y-16444174D01*
X8405920Y-16444174D02*
X8415444Y-16406079D01*
X8415444Y-16406079D02*
X8424967Y-16387031D01*
X8424967Y-16387031D02*
X8434491Y-16377508D01*
X8434491Y-16377508D02*
X8453539Y-16367984D01*
X8605920Y-16567984D02*
X8605920Y-16434650D01*
X8605920Y-16453698D02*
X8615444Y-16444174D01*
X8615444Y-16444174D02*
X8634491Y-16434650D01*
X8634491Y-16434650D02*
X8663063Y-16434650D01*
X8663063Y-16434650D02*
X8682110Y-16444174D01*
X8682110Y-16444174D02*
X8691634Y-16463222D01*
X8691634Y-16463222D02*
X8691634Y-16567984D01*
X8691634Y-16463222D02*
X8701158Y-16444174D01*
X8701158Y-16444174D02*
X8720205Y-16434650D01*
X8720205Y-16434650D02*
X8748777Y-16434650D01*
X8748777Y-16434650D02*
X8767825Y-16444174D01*
X8767825Y-16444174D02*
X8777348Y-16463222D01*
X8777348Y-16463222D02*
X8777348Y-16567984D01*
X8872586Y-16567984D02*
X8872586Y-16434650D01*
X8872586Y-16453698D02*
X8882110Y-16444174D01*
X8882110Y-16444174D02*
X8901158Y-16434650D01*
X8901158Y-16434650D02*
X8929729Y-16434650D01*
X8929729Y-16434650D02*
X8948777Y-16444174D01*
X8948777Y-16444174D02*
X8958301Y-16463222D01*
X8958301Y-16463222D02*
X8958301Y-16567984D01*
X8958301Y-16463222D02*
X8967825Y-16444174D01*
X8967825Y-16444174D02*
X8986872Y-16434650D01*
X8986872Y-16434650D02*
X9015444Y-16434650D01*
X9015444Y-16434650D02*
X9034491Y-16444174D01*
X9034491Y-16444174D02*
X9044015Y-16463222D01*
X9044015Y-16463222D02*
X9044015Y-16567984D01*
X9434491Y-16358460D02*
X9263063Y-16615603D01*
X9691634Y-16367984D02*
X9710682Y-16367984D01*
X9710682Y-16367984D02*
X9729729Y-16377508D01*
X9729729Y-16377508D02*
X9739253Y-16387031D01*
X9739253Y-16387031D02*
X9748777Y-16406079D01*
X9748777Y-16406079D02*
X9758301Y-16444174D01*
X9758301Y-16444174D02*
X9758301Y-16491793D01*
X9758301Y-16491793D02*
X9748777Y-16529888D01*
X9748777Y-16529888D02*
X9739253Y-16548936D01*
X9739253Y-16548936D02*
X9729729Y-16558460D01*
X9729729Y-16558460D02*
X9710682Y-16567984D01*
X9710682Y-16567984D02*
X9691634Y-16567984D01*
X9691634Y-16567984D02*
X9672587Y-16558460D01*
X9672587Y-16558460D02*
X9663063Y-16548936D01*
X9663063Y-16548936D02*
X9653539Y-16529888D01*
X9653539Y-16529888D02*
X9644015Y-16491793D01*
X9644015Y-16491793D02*
X9644015Y-16444174D01*
X9644015Y-16444174D02*
X9653539Y-16406079D01*
X9653539Y-16406079D02*
X9663063Y-16387031D01*
X9663063Y-16387031D02*
X9672587Y-16377508D01*
X9672587Y-16377508D02*
X9691634Y-16367984D01*
X9844015Y-16548936D02*
X9853539Y-16558460D01*
X9853539Y-16558460D02*
X9844015Y-16567984D01*
X9844015Y-16567984D02*
X9834491Y-16558460D01*
X9834491Y-16558460D02*
X9844015Y-16548936D01*
X9844015Y-16548936D02*
X9844015Y-16567984D01*
X9977348Y-16367984D02*
X9996396Y-16367984D01*
X9996396Y-16367984D02*
X10015444Y-16377508D01*
X10015444Y-16377508D02*
X10024968Y-16387031D01*
X10024968Y-16387031D02*
X10034491Y-16406079D01*
X10034491Y-16406079D02*
X10044015Y-16444174D01*
X10044015Y-16444174D02*
X10044015Y-16491793D01*
X10044015Y-16491793D02*
X10034491Y-16529888D01*
X10034491Y-16529888D02*
X10024968Y-16548936D01*
X10024968Y-16548936D02*
X10015444Y-16558460D01*
X10015444Y-16558460D02*
X9996396Y-16567984D01*
X9996396Y-16567984D02*
X9977348Y-16567984D01*
X9977348Y-16567984D02*
X9958301Y-16558460D01*
X9958301Y-16558460D02*
X9948777Y-16548936D01*
X9948777Y-16548936D02*
X9939253Y-16529888D01*
X9939253Y-16529888D02*
X9929729Y-16491793D01*
X9929729Y-16491793D02*
X9929729Y-16444174D01*
X9929729Y-16444174D02*
X9939253Y-16406079D01*
X9939253Y-16406079D02*
X9948777Y-16387031D01*
X9948777Y-16387031D02*
X9958301Y-16377508D01*
X9958301Y-16377508D02*
X9977348Y-16367984D01*
X10110682Y-16367984D02*
X10234491Y-16367984D01*
X10234491Y-16367984D02*
X10167825Y-16444174D01*
X10167825Y-16444174D02*
X10196396Y-16444174D01*
X10196396Y-16444174D02*
X10215444Y-16453698D01*
X10215444Y-16453698D02*
X10224968Y-16463222D01*
X10224968Y-16463222D02*
X10234491Y-16482269D01*
X10234491Y-16482269D02*
X10234491Y-16529888D01*
X10234491Y-16529888D02*
X10224968Y-16548936D01*
X10224968Y-16548936D02*
X10215444Y-16558460D01*
X10215444Y-16558460D02*
X10196396Y-16567984D01*
X10196396Y-16567984D02*
X10139253Y-16567984D01*
X10139253Y-16567984D02*
X10120206Y-16558460D01*
X10120206Y-16558460D02*
X10110682Y-16548936D01*
X10415444Y-16367984D02*
X10320206Y-16367984D01*
X10320206Y-16367984D02*
X10310682Y-16463222D01*
X10310682Y-16463222D02*
X10320206Y-16453698D01*
X10320206Y-16453698D02*
X10339253Y-16444174D01*
X10339253Y-16444174D02*
X10386872Y-16444174D01*
X10386872Y-16444174D02*
X10405920Y-16453698D01*
X10405920Y-16453698D02*
X10415444Y-16463222D01*
X10415444Y-16463222D02*
X10424968Y-16482269D01*
X10424968Y-16482269D02*
X10424968Y-16529888D01*
X10424968Y-16529888D02*
X10415444Y-16548936D01*
X10415444Y-16548936D02*
X10405920Y-16558460D01*
X10405920Y-16558460D02*
X10386872Y-16567984D01*
X10386872Y-16567984D02*
X10339253Y-16567984D01*
X10339253Y-16567984D02*
X10320206Y-16558460D01*
X10320206Y-16558460D02*
X10310682Y-16548936D01*
X10596396Y-16434650D02*
X10596396Y-16567984D01*
X10548777Y-16358460D02*
X10501158Y-16501317D01*
X10501158Y-16501317D02*
X10624968Y-16501317D01*
X10691634Y-16367984D02*
X10691634Y-16406079D01*
X10767825Y-16367984D02*
X10767825Y-16406079D01*
X11063063Y-16644174D02*
X11053539Y-16634650D01*
X11053539Y-16634650D02*
X11034491Y-16606079D01*
X11034491Y-16606079D02*
X11024968Y-16587031D01*
X11024968Y-16587031D02*
X11015444Y-16558460D01*
X11015444Y-16558460D02*
X11005920Y-16510841D01*
X11005920Y-16510841D02*
X11005920Y-16472746D01*
X11005920Y-16472746D02*
X11015444Y-16425127D01*
X11015444Y-16425127D02*
X11024968Y-16396555D01*
X11024968Y-16396555D02*
X11034491Y-16377508D01*
X11034491Y-16377508D02*
X11053539Y-16348936D01*
X11053539Y-16348936D02*
X11063063Y-16339412D01*
X11129730Y-16387031D02*
X11139253Y-16377508D01*
X11139253Y-16377508D02*
X11158301Y-16367984D01*
X11158301Y-16367984D02*
X11205920Y-16367984D01*
X11205920Y-16367984D02*
X11224968Y-16377508D01*
X11224968Y-16377508D02*
X11234491Y-16387031D01*
X11234491Y-16387031D02*
X11244015Y-16406079D01*
X11244015Y-16406079D02*
X11244015Y-16425127D01*
X11244015Y-16425127D02*
X11234491Y-16453698D01*
X11234491Y-16453698D02*
X11120206Y-16567984D01*
X11120206Y-16567984D02*
X11244015Y-16567984D01*
X11482110Y-16567984D02*
X11482110Y-16367984D01*
X11567825Y-16567984D02*
X11567825Y-16463222D01*
X11567825Y-16463222D02*
X11558301Y-16444174D01*
X11558301Y-16444174D02*
X11539253Y-16434650D01*
X11539253Y-16434650D02*
X11510682Y-16434650D01*
X11510682Y-16434650D02*
X11491634Y-16444174D01*
X11491634Y-16444174D02*
X11482110Y-16453698D01*
X11691634Y-16567984D02*
X11672587Y-16558460D01*
X11672587Y-16558460D02*
X11663063Y-16548936D01*
X11663063Y-16548936D02*
X11653539Y-16529888D01*
X11653539Y-16529888D02*
X11653539Y-16472746D01*
X11653539Y-16472746D02*
X11663063Y-16453698D01*
X11663063Y-16453698D02*
X11672587Y-16444174D01*
X11672587Y-16444174D02*
X11691634Y-16434650D01*
X11691634Y-16434650D02*
X11720206Y-16434650D01*
X11720206Y-16434650D02*
X11739253Y-16444174D01*
X11739253Y-16444174D02*
X11748777Y-16453698D01*
X11748777Y-16453698D02*
X11758301Y-16472746D01*
X11758301Y-16472746D02*
X11758301Y-16529888D01*
X11758301Y-16529888D02*
X11748777Y-16548936D01*
X11748777Y-16548936D02*
X11739253Y-16558460D01*
X11739253Y-16558460D02*
X11720206Y-16567984D01*
X11720206Y-16567984D02*
X11691634Y-16567984D01*
X11872587Y-16567984D02*
X11853539Y-16558460D01*
X11853539Y-16558460D02*
X11844015Y-16539412D01*
X11844015Y-16539412D02*
X11844015Y-16367984D01*
X12024968Y-16558460D02*
X12005920Y-16567984D01*
X12005920Y-16567984D02*
X11967825Y-16567984D01*
X11967825Y-16567984D02*
X11948777Y-16558460D01*
X11948777Y-16558460D02*
X11939253Y-16539412D01*
X11939253Y-16539412D02*
X11939253Y-16463222D01*
X11939253Y-16463222D02*
X11948777Y-16444174D01*
X11948777Y-16444174D02*
X11967825Y-16434650D01*
X11967825Y-16434650D02*
X12005920Y-16434650D01*
X12005920Y-16434650D02*
X12024968Y-16444174D01*
X12024968Y-16444174D02*
X12034491Y-16463222D01*
X12034491Y-16463222D02*
X12034491Y-16482269D01*
X12034491Y-16482269D02*
X11939253Y-16501317D01*
X12110682Y-16558460D02*
X12129730Y-16567984D01*
X12129730Y-16567984D02*
X12167825Y-16567984D01*
X12167825Y-16567984D02*
X12186872Y-16558460D01*
X12186872Y-16558460D02*
X12196396Y-16539412D01*
X12196396Y-16539412D02*
X12196396Y-16529888D01*
X12196396Y-16529888D02*
X12186872Y-16510841D01*
X12186872Y-16510841D02*
X12167825Y-16501317D01*
X12167825Y-16501317D02*
X12139253Y-16501317D01*
X12139253Y-16501317D02*
X12120206Y-16491793D01*
X12120206Y-16491793D02*
X12110682Y-16472746D01*
X12110682Y-16472746D02*
X12110682Y-16463222D01*
X12110682Y-16463222D02*
X12120206Y-16444174D01*
X12120206Y-16444174D02*
X12139253Y-16434650D01*
X12139253Y-16434650D02*
X12167825Y-16434650D01*
X12167825Y-16434650D02*
X12186872Y-16444174D01*
X12263063Y-16644174D02*
X12272587Y-16634650D01*
X12272587Y-16634650D02*
X12291634Y-16606079D01*
X12291634Y-16606079D02*
X12301158Y-16587031D01*
X12301158Y-16587031D02*
X12310682Y-16558460D01*
X12310682Y-16558460D02*
X12320206Y-16510841D01*
X12320206Y-16510841D02*
X12320206Y-16472746D01*
X12320206Y-16472746D02*
X12310682Y-16425127D01*
X12310682Y-16425127D02*
X12301158Y-16396555D01*
X12301158Y-16396555D02*
X12291634Y-16377508D01*
X12291634Y-16377508D02*
X12272587Y-16348936D01*
X12272587Y-16348936D02*
X12263063Y-16339412D01*
D10*
X7473356Y-16775856D02*
X7473356Y-16705144D01*
X7402644Y-16705144D01*
X7402644Y-16775856D01*
X7473356Y-16775856D01*
D11*
X7853539Y-16831984D02*
X7739253Y-16831984D01*
X7796396Y-16831984D02*
X7796396Y-16631984D01*
X7796396Y-16631984D02*
X7777348Y-16660555D01*
X7777348Y-16660555D02*
X7758301Y-16679603D01*
X7758301Y-16679603D02*
X7739253Y-16689127D01*
X7939253Y-16812936D02*
X7948777Y-16822460D01*
X7948777Y-16822460D02*
X7939253Y-16831984D01*
X7939253Y-16831984D02*
X7929729Y-16822460D01*
X7929729Y-16822460D02*
X7939253Y-16812936D01*
X7939253Y-16812936D02*
X7939253Y-16831984D01*
X8072586Y-16631984D02*
X8091634Y-16631984D01*
X8091634Y-16631984D02*
X8110682Y-16641508D01*
X8110682Y-16641508D02*
X8120205Y-16651031D01*
X8120205Y-16651031D02*
X8129729Y-16670079D01*
X8129729Y-16670079D02*
X8139253Y-16708174D01*
X8139253Y-16708174D02*
X8139253Y-16755793D01*
X8139253Y-16755793D02*
X8129729Y-16793889D01*
X8129729Y-16793889D02*
X8120205Y-16812936D01*
X8120205Y-16812936D02*
X8110682Y-16822460D01*
X8110682Y-16822460D02*
X8091634Y-16831984D01*
X8091634Y-16831984D02*
X8072586Y-16831984D01*
X8072586Y-16831984D02*
X8053539Y-16822460D01*
X8053539Y-16822460D02*
X8044015Y-16812936D01*
X8044015Y-16812936D02*
X8034491Y-16793889D01*
X8034491Y-16793889D02*
X8024967Y-16755793D01*
X8024967Y-16755793D02*
X8024967Y-16708174D01*
X8024967Y-16708174D02*
X8034491Y-16670079D01*
X8034491Y-16670079D02*
X8044015Y-16651031D01*
X8044015Y-16651031D02*
X8053539Y-16641508D01*
X8053539Y-16641508D02*
X8072586Y-16631984D01*
X8263062Y-16631984D02*
X8282110Y-16631984D01*
X8282110Y-16631984D02*
X8301158Y-16641508D01*
X8301158Y-16641508D02*
X8310682Y-16651031D01*
X8310682Y-16651031D02*
X8320205Y-16670079D01*
X8320205Y-16670079D02*
X8329729Y-16708174D01*
X8329729Y-16708174D02*
X8329729Y-16755793D01*
X8329729Y-16755793D02*
X8320205Y-16793889D01*
X8320205Y-16793889D02*
X8310682Y-16812936D01*
X8310682Y-16812936D02*
X8301158Y-16822460D01*
X8301158Y-16822460D02*
X8282110Y-16831984D01*
X8282110Y-16831984D02*
X8263062Y-16831984D01*
X8263062Y-16831984D02*
X8244015Y-16822460D01*
X8244015Y-16822460D02*
X8234491Y-16812936D01*
X8234491Y-16812936D02*
X8224967Y-16793889D01*
X8224967Y-16793889D02*
X8215443Y-16755793D01*
X8215443Y-16755793D02*
X8215443Y-16708174D01*
X8215443Y-16708174D02*
X8224967Y-16670079D01*
X8224967Y-16670079D02*
X8234491Y-16651031D01*
X8234491Y-16651031D02*
X8244015Y-16641508D01*
X8244015Y-16641508D02*
X8263062Y-16631984D01*
X8453539Y-16631984D02*
X8472586Y-16631984D01*
X8472586Y-16631984D02*
X8491634Y-16641508D01*
X8491634Y-16641508D02*
X8501158Y-16651031D01*
X8501158Y-16651031D02*
X8510682Y-16670079D01*
X8510682Y-16670079D02*
X8520205Y-16708174D01*
X8520205Y-16708174D02*
X8520205Y-16755793D01*
X8520205Y-16755793D02*
X8510682Y-16793889D01*
X8510682Y-16793889D02*
X8501158Y-16812936D01*
X8501158Y-16812936D02*
X8491634Y-16822460D01*
X8491634Y-16822460D02*
X8472586Y-16831984D01*
X8472586Y-16831984D02*
X8453539Y-16831984D01*
X8453539Y-16831984D02*
X8434491Y-16822460D01*
X8434491Y-16822460D02*
X8424967Y-16812936D01*
X8424967Y-16812936D02*
X8415444Y-16793889D01*
X8415444Y-16793889D02*
X8405920Y-16755793D01*
X8405920Y-16755793D02*
X8405920Y-16708174D01*
X8405920Y-16708174D02*
X8415444Y-16670079D01*
X8415444Y-16670079D02*
X8424967Y-16651031D01*
X8424967Y-16651031D02*
X8434491Y-16641508D01*
X8434491Y-16641508D02*
X8453539Y-16631984D01*
X8605920Y-16831984D02*
X8605920Y-16698650D01*
X8605920Y-16717698D02*
X8615444Y-16708174D01*
X8615444Y-16708174D02*
X8634491Y-16698650D01*
X8634491Y-16698650D02*
X8663063Y-16698650D01*
X8663063Y-16698650D02*
X8682110Y-16708174D01*
X8682110Y-16708174D02*
X8691634Y-16727222D01*
X8691634Y-16727222D02*
X8691634Y-16831984D01*
X8691634Y-16727222D02*
X8701158Y-16708174D01*
X8701158Y-16708174D02*
X8720205Y-16698650D01*
X8720205Y-16698650D02*
X8748777Y-16698650D01*
X8748777Y-16698650D02*
X8767825Y-16708174D01*
X8767825Y-16708174D02*
X8777348Y-16727222D01*
X8777348Y-16727222D02*
X8777348Y-16831984D01*
X8872586Y-16831984D02*
X8872586Y-16698650D01*
X8872586Y-16717698D02*
X8882110Y-16708174D01*
X8882110Y-16708174D02*
X8901158Y-16698650D01*
X8901158Y-16698650D02*
X8929729Y-16698650D01*
X8929729Y-16698650D02*
X8948777Y-16708174D01*
X8948777Y-16708174D02*
X8958301Y-16727222D01*
X8958301Y-16727222D02*
X8958301Y-16831984D01*
X8958301Y-16727222D02*
X8967825Y-16708174D01*
X8967825Y-16708174D02*
X8986872Y-16698650D01*
X8986872Y-16698650D02*
X9015444Y-16698650D01*
X9015444Y-16698650D02*
X9034491Y-16708174D01*
X9034491Y-16708174D02*
X9044015Y-16727222D01*
X9044015Y-16727222D02*
X9044015Y-16831984D01*
X9434491Y-16622460D02*
X9263063Y-16879603D01*
X9691634Y-16631984D02*
X9710682Y-16631984D01*
X9710682Y-16631984D02*
X9729729Y-16641508D01*
X9729729Y-16641508D02*
X9739253Y-16651031D01*
X9739253Y-16651031D02*
X9748777Y-16670079D01*
X9748777Y-16670079D02*
X9758301Y-16708174D01*
X9758301Y-16708174D02*
X9758301Y-16755793D01*
X9758301Y-16755793D02*
X9748777Y-16793889D01*
X9748777Y-16793889D02*
X9739253Y-16812936D01*
X9739253Y-16812936D02*
X9729729Y-16822460D01*
X9729729Y-16822460D02*
X9710682Y-16831984D01*
X9710682Y-16831984D02*
X9691634Y-16831984D01*
X9691634Y-16831984D02*
X9672587Y-16822460D01*
X9672587Y-16822460D02*
X9663063Y-16812936D01*
X9663063Y-16812936D02*
X9653539Y-16793889D01*
X9653539Y-16793889D02*
X9644015Y-16755793D01*
X9644015Y-16755793D02*
X9644015Y-16708174D01*
X9644015Y-16708174D02*
X9653539Y-16670079D01*
X9653539Y-16670079D02*
X9663063Y-16651031D01*
X9663063Y-16651031D02*
X9672587Y-16641508D01*
X9672587Y-16641508D02*
X9691634Y-16631984D01*
X9844015Y-16812936D02*
X9853539Y-16822460D01*
X9853539Y-16822460D02*
X9844015Y-16831984D01*
X9844015Y-16831984D02*
X9834491Y-16822460D01*
X9834491Y-16822460D02*
X9844015Y-16812936D01*
X9844015Y-16812936D02*
X9844015Y-16831984D01*
X9977348Y-16631984D02*
X9996396Y-16631984D01*
X9996396Y-16631984D02*
X10015444Y-16641508D01*
X10015444Y-16641508D02*
X10024968Y-16651031D01*
X10024968Y-16651031D02*
X10034491Y-16670079D01*
X10034491Y-16670079D02*
X10044015Y-16708174D01*
X10044015Y-16708174D02*
X10044015Y-16755793D01*
X10044015Y-16755793D02*
X10034491Y-16793889D01*
X10034491Y-16793889D02*
X10024968Y-16812936D01*
X10024968Y-16812936D02*
X10015444Y-16822460D01*
X10015444Y-16822460D02*
X9996396Y-16831984D01*
X9996396Y-16831984D02*
X9977348Y-16831984D01*
X9977348Y-16831984D02*
X9958301Y-16822460D01*
X9958301Y-16822460D02*
X9948777Y-16812936D01*
X9948777Y-16812936D02*
X9939253Y-16793889D01*
X9939253Y-16793889D02*
X9929729Y-16755793D01*
X9929729Y-16755793D02*
X9929729Y-16708174D01*
X9929729Y-16708174D02*
X9939253Y-16670079D01*
X9939253Y-16670079D02*
X9948777Y-16651031D01*
X9948777Y-16651031D02*
X9958301Y-16641508D01*
X9958301Y-16641508D02*
X9977348Y-16631984D01*
X10110682Y-16631984D02*
X10234491Y-16631984D01*
X10234491Y-16631984D02*
X10167825Y-16708174D01*
X10167825Y-16708174D02*
X10196396Y-16708174D01*
X10196396Y-16708174D02*
X10215444Y-16717698D01*
X10215444Y-16717698D02*
X10224968Y-16727222D01*
X10224968Y-16727222D02*
X10234491Y-16746269D01*
X10234491Y-16746269D02*
X10234491Y-16793889D01*
X10234491Y-16793889D02*
X10224968Y-16812936D01*
X10224968Y-16812936D02*
X10215444Y-16822460D01*
X10215444Y-16822460D02*
X10196396Y-16831984D01*
X10196396Y-16831984D02*
X10139253Y-16831984D01*
X10139253Y-16831984D02*
X10120206Y-16822460D01*
X10120206Y-16822460D02*
X10110682Y-16812936D01*
X10329729Y-16831984D02*
X10367825Y-16831984D01*
X10367825Y-16831984D02*
X10386872Y-16822460D01*
X10386872Y-16822460D02*
X10396396Y-16812936D01*
X10396396Y-16812936D02*
X10415444Y-16784365D01*
X10415444Y-16784365D02*
X10424968Y-16746269D01*
X10424968Y-16746269D02*
X10424968Y-16670079D01*
X10424968Y-16670079D02*
X10415444Y-16651031D01*
X10415444Y-16651031D02*
X10405920Y-16641508D01*
X10405920Y-16641508D02*
X10386872Y-16631984D01*
X10386872Y-16631984D02*
X10348777Y-16631984D01*
X10348777Y-16631984D02*
X10329729Y-16641508D01*
X10329729Y-16641508D02*
X10320206Y-16651031D01*
X10320206Y-16651031D02*
X10310682Y-16670079D01*
X10310682Y-16670079D02*
X10310682Y-16717698D01*
X10310682Y-16717698D02*
X10320206Y-16736746D01*
X10320206Y-16736746D02*
X10329729Y-16746269D01*
X10329729Y-16746269D02*
X10348777Y-16755793D01*
X10348777Y-16755793D02*
X10386872Y-16755793D01*
X10386872Y-16755793D02*
X10405920Y-16746269D01*
X10405920Y-16746269D02*
X10415444Y-16736746D01*
X10415444Y-16736746D02*
X10424968Y-16717698D01*
X10596396Y-16698650D02*
X10596396Y-16831984D01*
X10548777Y-16622460D02*
X10501158Y-16765317D01*
X10501158Y-16765317D02*
X10624968Y-16765317D01*
X10691634Y-16631984D02*
X10691634Y-16670079D01*
X10767825Y-16631984D02*
X10767825Y-16670079D01*
X11063063Y-16908174D02*
X11053539Y-16898650D01*
X11053539Y-16898650D02*
X11034491Y-16870079D01*
X11034491Y-16870079D02*
X11024968Y-16851031D01*
X11024968Y-16851031D02*
X11015444Y-16822460D01*
X11015444Y-16822460D02*
X11005920Y-16774841D01*
X11005920Y-16774841D02*
X11005920Y-16736746D01*
X11005920Y-16736746D02*
X11015444Y-16689127D01*
X11015444Y-16689127D02*
X11024968Y-16660555D01*
X11024968Y-16660555D02*
X11034491Y-16641508D01*
X11034491Y-16641508D02*
X11053539Y-16612936D01*
X11053539Y-16612936D02*
X11063063Y-16603412D01*
X11224968Y-16631984D02*
X11186872Y-16631984D01*
X11186872Y-16631984D02*
X11167825Y-16641508D01*
X11167825Y-16641508D02*
X11158301Y-16651031D01*
X11158301Y-16651031D02*
X11139253Y-16679603D01*
X11139253Y-16679603D02*
X11129730Y-16717698D01*
X11129730Y-16717698D02*
X11129730Y-16793889D01*
X11129730Y-16793889D02*
X11139253Y-16812936D01*
X11139253Y-16812936D02*
X11148777Y-16822460D01*
X11148777Y-16822460D02*
X11167825Y-16831984D01*
X11167825Y-16831984D02*
X11205920Y-16831984D01*
X11205920Y-16831984D02*
X11224968Y-16822460D01*
X11224968Y-16822460D02*
X11234491Y-16812936D01*
X11234491Y-16812936D02*
X11244015Y-16793889D01*
X11244015Y-16793889D02*
X11244015Y-16746269D01*
X11244015Y-16746269D02*
X11234491Y-16727222D01*
X11234491Y-16727222D02*
X11224968Y-16717698D01*
X11224968Y-16717698D02*
X11205920Y-16708174D01*
X11205920Y-16708174D02*
X11167825Y-16708174D01*
X11167825Y-16708174D02*
X11148777Y-16717698D01*
X11148777Y-16717698D02*
X11139253Y-16727222D01*
X11139253Y-16727222D02*
X11129730Y-16746269D01*
X11310682Y-16631984D02*
X11444015Y-16631984D01*
X11444015Y-16631984D02*
X11358301Y-16831984D01*
X11672587Y-16831984D02*
X11672587Y-16631984D01*
X11758301Y-16831984D02*
X11758301Y-16727222D01*
X11758301Y-16727222D02*
X11748777Y-16708174D01*
X11748777Y-16708174D02*
X11729730Y-16698650D01*
X11729730Y-16698650D02*
X11701158Y-16698650D01*
X11701158Y-16698650D02*
X11682110Y-16708174D01*
X11682110Y-16708174D02*
X11672587Y-16717698D01*
X11882110Y-16831984D02*
X11863063Y-16822460D01*
X11863063Y-16822460D02*
X11853539Y-16812936D01*
X11853539Y-16812936D02*
X11844015Y-16793889D01*
X11844015Y-16793889D02*
X11844015Y-16736746D01*
X11844015Y-16736746D02*
X11853539Y-16717698D01*
X11853539Y-16717698D02*
X11863063Y-16708174D01*
X11863063Y-16708174D02*
X11882110Y-16698650D01*
X11882110Y-16698650D02*
X11910682Y-16698650D01*
X11910682Y-16698650D02*
X11929730Y-16708174D01*
X11929730Y-16708174D02*
X11939253Y-16717698D01*
X11939253Y-16717698D02*
X11948777Y-16736746D01*
X11948777Y-16736746D02*
X11948777Y-16793889D01*
X11948777Y-16793889D02*
X11939253Y-16812936D01*
X11939253Y-16812936D02*
X11929730Y-16822460D01*
X11929730Y-16822460D02*
X11910682Y-16831984D01*
X11910682Y-16831984D02*
X11882110Y-16831984D01*
X12063063Y-16831984D02*
X12044015Y-16822460D01*
X12044015Y-16822460D02*
X12034491Y-16803412D01*
X12034491Y-16803412D02*
X12034491Y-16631984D01*
X12215444Y-16822460D02*
X12196396Y-16831984D01*
X12196396Y-16831984D02*
X12158301Y-16831984D01*
X12158301Y-16831984D02*
X12139253Y-16822460D01*
X12139253Y-16822460D02*
X12129730Y-16803412D01*
X12129730Y-16803412D02*
X12129730Y-16727222D01*
X12129730Y-16727222D02*
X12139253Y-16708174D01*
X12139253Y-16708174D02*
X12158301Y-16698650D01*
X12158301Y-16698650D02*
X12196396Y-16698650D01*
X12196396Y-16698650D02*
X12215444Y-16708174D01*
X12215444Y-16708174D02*
X12224968Y-16727222D01*
X12224968Y-16727222D02*
X12224968Y-16746269D01*
X12224968Y-16746269D02*
X12129730Y-16765317D01*
X12301158Y-16822460D02*
X12320206Y-16831984D01*
X12320206Y-16831984D02*
X12358301Y-16831984D01*
X12358301Y-16831984D02*
X12377349Y-16822460D01*
X12377349Y-16822460D02*
X12386872Y-16803412D01*
X12386872Y-16803412D02*
X12386872Y-16793889D01*
X12386872Y-16793889D02*
X12377349Y-16774841D01*
X12377349Y-16774841D02*
X12358301Y-16765317D01*
X12358301Y-16765317D02*
X12329730Y-16765317D01*
X12329730Y-16765317D02*
X12310682Y-16755793D01*
X12310682Y-16755793D02*
X12301158Y-16736746D01*
X12301158Y-16736746D02*
X12301158Y-16727222D01*
X12301158Y-16727222D02*
X12310682Y-16708174D01*
X12310682Y-16708174D02*
X12329730Y-16698650D01*
X12329730Y-16698650D02*
X12358301Y-16698650D01*
X12358301Y-16698650D02*
X12377349Y-16708174D01*
X12453539Y-16908174D02*
X12463063Y-16898650D01*
X12463063Y-16898650D02*
X12482111Y-16870079D01*
X12482111Y-16870079D02*
X12491634Y-16851031D01*
X12491634Y-16851031D02*
X12501158Y-16822460D01*
X12501158Y-16822460D02*
X12510682Y-16774841D01*
X12510682Y-16774841D02*
X12510682Y-16736746D01*
X12510682Y-16736746D02*
X12501158Y-16689127D01*
X12501158Y-16689127D02*
X12491634Y-16660555D01*
X12491634Y-16660555D02*
X12482111Y-16641508D01*
X12482111Y-16641508D02*
X12463063Y-16612936D01*
X12463063Y-16612936D02*
X12453539Y-16603412D01*
D15*
X7433000Y-17059500D02*
X7488000Y-17004500D01*
X7433000Y-16949500D01*
X7378000Y-17004500D01*
X7433000Y-17059500D01*
D11*
X7853539Y-17095984D02*
X7739253Y-17095984D01*
X7796396Y-17095984D02*
X7796396Y-16895984D01*
X7796396Y-16895984D02*
X7777348Y-16924555D01*
X7777348Y-16924555D02*
X7758301Y-16943603D01*
X7758301Y-16943603D02*
X7739253Y-16953127D01*
X7939253Y-17076936D02*
X7948777Y-17086460D01*
X7948777Y-17086460D02*
X7939253Y-17095984D01*
X7939253Y-17095984D02*
X7929729Y-17086460D01*
X7929729Y-17086460D02*
X7939253Y-17076936D01*
X7939253Y-17076936D02*
X7939253Y-17095984D01*
X8139253Y-17095984D02*
X8024967Y-17095984D01*
X8082110Y-17095984D02*
X8082110Y-16895984D01*
X8082110Y-16895984D02*
X8063062Y-16924555D01*
X8063062Y-16924555D02*
X8044015Y-16943603D01*
X8044015Y-16943603D02*
X8024967Y-16953127D01*
X8263062Y-16895984D02*
X8282110Y-16895984D01*
X8282110Y-16895984D02*
X8301158Y-16905508D01*
X8301158Y-16905508D02*
X8310682Y-16915031D01*
X8310682Y-16915031D02*
X8320205Y-16934079D01*
X8320205Y-16934079D02*
X8329729Y-16972174D01*
X8329729Y-16972174D02*
X8329729Y-17019793D01*
X8329729Y-17019793D02*
X8320205Y-17057889D01*
X8320205Y-17057889D02*
X8310682Y-17076936D01*
X8310682Y-17076936D02*
X8301158Y-17086460D01*
X8301158Y-17086460D02*
X8282110Y-17095984D01*
X8282110Y-17095984D02*
X8263062Y-17095984D01*
X8263062Y-17095984D02*
X8244015Y-17086460D01*
X8244015Y-17086460D02*
X8234491Y-17076936D01*
X8234491Y-17076936D02*
X8224967Y-17057889D01*
X8224967Y-17057889D02*
X8215443Y-17019793D01*
X8215443Y-17019793D02*
X8215443Y-16972174D01*
X8215443Y-16972174D02*
X8224967Y-16934079D01*
X8224967Y-16934079D02*
X8234491Y-16915031D01*
X8234491Y-16915031D02*
X8244015Y-16905508D01*
X8244015Y-16905508D02*
X8263062Y-16895984D01*
X8453539Y-16895984D02*
X8472586Y-16895984D01*
X8472586Y-16895984D02*
X8491634Y-16905508D01*
X8491634Y-16905508D02*
X8501158Y-16915031D01*
X8501158Y-16915031D02*
X8510682Y-16934079D01*
X8510682Y-16934079D02*
X8520205Y-16972174D01*
X8520205Y-16972174D02*
X8520205Y-17019793D01*
X8520205Y-17019793D02*
X8510682Y-17057889D01*
X8510682Y-17057889D02*
X8501158Y-17076936D01*
X8501158Y-17076936D02*
X8491634Y-17086460D01*
X8491634Y-17086460D02*
X8472586Y-17095984D01*
X8472586Y-17095984D02*
X8453539Y-17095984D01*
X8453539Y-17095984D02*
X8434491Y-17086460D01*
X8434491Y-17086460D02*
X8424967Y-17076936D01*
X8424967Y-17076936D02*
X8415444Y-17057889D01*
X8415444Y-17057889D02*
X8405920Y-17019793D01*
X8405920Y-17019793D02*
X8405920Y-16972174D01*
X8405920Y-16972174D02*
X8415444Y-16934079D01*
X8415444Y-16934079D02*
X8424967Y-16915031D01*
X8424967Y-16915031D02*
X8434491Y-16905508D01*
X8434491Y-16905508D02*
X8453539Y-16895984D01*
X8605920Y-17095984D02*
X8605920Y-16962650D01*
X8605920Y-16981698D02*
X8615444Y-16972174D01*
X8615444Y-16972174D02*
X8634491Y-16962650D01*
X8634491Y-16962650D02*
X8663063Y-16962650D01*
X8663063Y-16962650D02*
X8682110Y-16972174D01*
X8682110Y-16972174D02*
X8691634Y-16991222D01*
X8691634Y-16991222D02*
X8691634Y-17095984D01*
X8691634Y-16991222D02*
X8701158Y-16972174D01*
X8701158Y-16972174D02*
X8720205Y-16962650D01*
X8720205Y-16962650D02*
X8748777Y-16962650D01*
X8748777Y-16962650D02*
X8767825Y-16972174D01*
X8767825Y-16972174D02*
X8777348Y-16991222D01*
X8777348Y-16991222D02*
X8777348Y-17095984D01*
X8872586Y-17095984D02*
X8872586Y-16962650D01*
X8872586Y-16981698D02*
X8882110Y-16972174D01*
X8882110Y-16972174D02*
X8901158Y-16962650D01*
X8901158Y-16962650D02*
X8929729Y-16962650D01*
X8929729Y-16962650D02*
X8948777Y-16972174D01*
X8948777Y-16972174D02*
X8958301Y-16991222D01*
X8958301Y-16991222D02*
X8958301Y-17095984D01*
X8958301Y-16991222D02*
X8967825Y-16972174D01*
X8967825Y-16972174D02*
X8986872Y-16962650D01*
X8986872Y-16962650D02*
X9015444Y-16962650D01*
X9015444Y-16962650D02*
X9034491Y-16972174D01*
X9034491Y-16972174D02*
X9044015Y-16991222D01*
X9044015Y-16991222D02*
X9044015Y-17095984D01*
X9434491Y-16886460D02*
X9263063Y-17143603D01*
X9691634Y-16895984D02*
X9710682Y-16895984D01*
X9710682Y-16895984D02*
X9729729Y-16905508D01*
X9729729Y-16905508D02*
X9739253Y-16915031D01*
X9739253Y-16915031D02*
X9748777Y-16934079D01*
X9748777Y-16934079D02*
X9758301Y-16972174D01*
X9758301Y-16972174D02*
X9758301Y-17019793D01*
X9758301Y-17019793D02*
X9748777Y-17057889D01*
X9748777Y-17057889D02*
X9739253Y-17076936D01*
X9739253Y-17076936D02*
X9729729Y-17086460D01*
X9729729Y-17086460D02*
X9710682Y-17095984D01*
X9710682Y-17095984D02*
X9691634Y-17095984D01*
X9691634Y-17095984D02*
X9672587Y-17086460D01*
X9672587Y-17086460D02*
X9663063Y-17076936D01*
X9663063Y-17076936D02*
X9653539Y-17057889D01*
X9653539Y-17057889D02*
X9644015Y-17019793D01*
X9644015Y-17019793D02*
X9644015Y-16972174D01*
X9644015Y-16972174D02*
X9653539Y-16934079D01*
X9653539Y-16934079D02*
X9663063Y-16915031D01*
X9663063Y-16915031D02*
X9672587Y-16905508D01*
X9672587Y-16905508D02*
X9691634Y-16895984D01*
X9844015Y-17076936D02*
X9853539Y-17086460D01*
X9853539Y-17086460D02*
X9844015Y-17095984D01*
X9844015Y-17095984D02*
X9834491Y-17086460D01*
X9834491Y-17086460D02*
X9844015Y-17076936D01*
X9844015Y-17076936D02*
X9844015Y-17095984D01*
X9977348Y-16895984D02*
X9996396Y-16895984D01*
X9996396Y-16895984D02*
X10015444Y-16905508D01*
X10015444Y-16905508D02*
X10024968Y-16915031D01*
X10024968Y-16915031D02*
X10034491Y-16934079D01*
X10034491Y-16934079D02*
X10044015Y-16972174D01*
X10044015Y-16972174D02*
X10044015Y-17019793D01*
X10044015Y-17019793D02*
X10034491Y-17057889D01*
X10034491Y-17057889D02*
X10024968Y-17076936D01*
X10024968Y-17076936D02*
X10015444Y-17086460D01*
X10015444Y-17086460D02*
X9996396Y-17095984D01*
X9996396Y-17095984D02*
X9977348Y-17095984D01*
X9977348Y-17095984D02*
X9958301Y-17086460D01*
X9958301Y-17086460D02*
X9948777Y-17076936D01*
X9948777Y-17076936D02*
X9939253Y-17057889D01*
X9939253Y-17057889D02*
X9929729Y-17019793D01*
X9929729Y-17019793D02*
X9929729Y-16972174D01*
X9929729Y-16972174D02*
X9939253Y-16934079D01*
X9939253Y-16934079D02*
X9948777Y-16915031D01*
X9948777Y-16915031D02*
X9958301Y-16905508D01*
X9958301Y-16905508D02*
X9977348Y-16895984D01*
X10215444Y-16962650D02*
X10215444Y-17095984D01*
X10167825Y-16886460D02*
X10120206Y-17029317D01*
X10120206Y-17029317D02*
X10244015Y-17029317D01*
X10301158Y-16895984D02*
X10424968Y-16895984D01*
X10424968Y-16895984D02*
X10358301Y-16972174D01*
X10358301Y-16972174D02*
X10386872Y-16972174D01*
X10386872Y-16972174D02*
X10405920Y-16981698D01*
X10405920Y-16981698D02*
X10415444Y-16991222D01*
X10415444Y-16991222D02*
X10424968Y-17010270D01*
X10424968Y-17010270D02*
X10424968Y-17057889D01*
X10424968Y-17057889D02*
X10415444Y-17076936D01*
X10415444Y-17076936D02*
X10405920Y-17086460D01*
X10405920Y-17086460D02*
X10386872Y-17095984D01*
X10386872Y-17095984D02*
X10329729Y-17095984D01*
X10329729Y-17095984D02*
X10310682Y-17086460D01*
X10310682Y-17086460D02*
X10301158Y-17076936D01*
X10491634Y-16895984D02*
X10615444Y-16895984D01*
X10615444Y-16895984D02*
X10548777Y-16972174D01*
X10548777Y-16972174D02*
X10577349Y-16972174D01*
X10577349Y-16972174D02*
X10596396Y-16981698D01*
X10596396Y-16981698D02*
X10605920Y-16991222D01*
X10605920Y-16991222D02*
X10615444Y-17010270D01*
X10615444Y-17010270D02*
X10615444Y-17057889D01*
X10615444Y-17057889D02*
X10605920Y-17076936D01*
X10605920Y-17076936D02*
X10596396Y-17086460D01*
X10596396Y-17086460D02*
X10577349Y-17095984D01*
X10577349Y-17095984D02*
X10520206Y-17095984D01*
X10520206Y-17095984D02*
X10501158Y-17086460D01*
X10501158Y-17086460D02*
X10491634Y-17076936D01*
X10691634Y-16895984D02*
X10691634Y-16934079D01*
X10767825Y-16895984D02*
X10767825Y-16934079D01*
X11063063Y-17172174D02*
X11053539Y-17162650D01*
X11053539Y-17162650D02*
X11034491Y-17134079D01*
X11034491Y-17134079D02*
X11024968Y-17115031D01*
X11024968Y-17115031D02*
X11015444Y-17086460D01*
X11015444Y-17086460D02*
X11005920Y-17038841D01*
X11005920Y-17038841D02*
X11005920Y-17000746D01*
X11005920Y-17000746D02*
X11015444Y-16953127D01*
X11015444Y-16953127D02*
X11024968Y-16924555D01*
X11024968Y-16924555D02*
X11034491Y-16905508D01*
X11034491Y-16905508D02*
X11053539Y-16876936D01*
X11053539Y-16876936D02*
X11063063Y-16867412D01*
X11129730Y-16915031D02*
X11139253Y-16905508D01*
X11139253Y-16905508D02*
X11158301Y-16895984D01*
X11158301Y-16895984D02*
X11205920Y-16895984D01*
X11205920Y-16895984D02*
X11224968Y-16905508D01*
X11224968Y-16905508D02*
X11234491Y-16915031D01*
X11234491Y-16915031D02*
X11244015Y-16934079D01*
X11244015Y-16934079D02*
X11244015Y-16953127D01*
X11244015Y-16953127D02*
X11234491Y-16981698D01*
X11234491Y-16981698D02*
X11120206Y-17095984D01*
X11120206Y-17095984D02*
X11244015Y-17095984D01*
X11415444Y-16962650D02*
X11415444Y-17095984D01*
X11367825Y-16886460D02*
X11320206Y-17029317D01*
X11320206Y-17029317D02*
X11444015Y-17029317D01*
X11672587Y-17095984D02*
X11672587Y-16895984D01*
X11758301Y-17095984D02*
X11758301Y-16991222D01*
X11758301Y-16991222D02*
X11748777Y-16972174D01*
X11748777Y-16972174D02*
X11729730Y-16962650D01*
X11729730Y-16962650D02*
X11701158Y-16962650D01*
X11701158Y-16962650D02*
X11682110Y-16972174D01*
X11682110Y-16972174D02*
X11672587Y-16981698D01*
X11882110Y-17095984D02*
X11863063Y-17086460D01*
X11863063Y-17086460D02*
X11853539Y-17076936D01*
X11853539Y-17076936D02*
X11844015Y-17057889D01*
X11844015Y-17057889D02*
X11844015Y-17000746D01*
X11844015Y-17000746D02*
X11853539Y-16981698D01*
X11853539Y-16981698D02*
X11863063Y-16972174D01*
X11863063Y-16972174D02*
X11882110Y-16962650D01*
X11882110Y-16962650D02*
X11910682Y-16962650D01*
X11910682Y-16962650D02*
X11929730Y-16972174D01*
X11929730Y-16972174D02*
X11939253Y-16981698D01*
X11939253Y-16981698D02*
X11948777Y-17000746D01*
X11948777Y-17000746D02*
X11948777Y-17057889D01*
X11948777Y-17057889D02*
X11939253Y-17076936D01*
X11939253Y-17076936D02*
X11929730Y-17086460D01*
X11929730Y-17086460D02*
X11910682Y-17095984D01*
X11910682Y-17095984D02*
X11882110Y-17095984D01*
X12063063Y-17095984D02*
X12044015Y-17086460D01*
X12044015Y-17086460D02*
X12034491Y-17067412D01*
X12034491Y-17067412D02*
X12034491Y-16895984D01*
X12215444Y-17086460D02*
X12196396Y-17095984D01*
X12196396Y-17095984D02*
X12158301Y-17095984D01*
X12158301Y-17095984D02*
X12139253Y-17086460D01*
X12139253Y-17086460D02*
X12129730Y-17067412D01*
X12129730Y-17067412D02*
X12129730Y-16991222D01*
X12129730Y-16991222D02*
X12139253Y-16972174D01*
X12139253Y-16972174D02*
X12158301Y-16962650D01*
X12158301Y-16962650D02*
X12196396Y-16962650D01*
X12196396Y-16962650D02*
X12215444Y-16972174D01*
X12215444Y-16972174D02*
X12224968Y-16991222D01*
X12224968Y-16991222D02*
X12224968Y-17010270D01*
X12224968Y-17010270D02*
X12129730Y-17029317D01*
X12301158Y-17086460D02*
X12320206Y-17095984D01*
X12320206Y-17095984D02*
X12358301Y-17095984D01*
X12358301Y-17095984D02*
X12377349Y-17086460D01*
X12377349Y-17086460D02*
X12386872Y-17067412D01*
X12386872Y-17067412D02*
X12386872Y-17057889D01*
X12386872Y-17057889D02*
X12377349Y-17038841D01*
X12377349Y-17038841D02*
X12358301Y-17029317D01*
X12358301Y-17029317D02*
X12329730Y-17029317D01*
X12329730Y-17029317D02*
X12310682Y-17019793D01*
X12310682Y-17019793D02*
X12301158Y-17000746D01*
X12301158Y-17000746D02*
X12301158Y-16991222D01*
X12301158Y-16991222D02*
X12310682Y-16972174D01*
X12310682Y-16972174D02*
X12329730Y-16962650D01*
X12329730Y-16962650D02*
X12358301Y-16962650D01*
X12358301Y-16962650D02*
X12377349Y-16972174D01*
X12453539Y-17172174D02*
X12463063Y-17162650D01*
X12463063Y-17162650D02*
X12482111Y-17134079D01*
X12482111Y-17134079D02*
X12491634Y-17115031D01*
X12491634Y-17115031D02*
X12501158Y-17086460D01*
X12501158Y-17086460D02*
X12510682Y-17038841D01*
X12510682Y-17038841D02*
X12510682Y-17000746D01*
X12510682Y-17000746D02*
X12501158Y-16953127D01*
X12501158Y-16953127D02*
X12491634Y-16924555D01*
X12491634Y-16924555D02*
X12482111Y-16905508D01*
X12482111Y-16905508D02*
X12463063Y-16876936D01*
X12463063Y-16876936D02*
X12453539Y-16867412D01*
M02*
